<svg viewBox="0 0 200 200" xmlns="http://www.w3.org/2000/svg"><path d="M100.63,117.255a24.736,24.736,0,0,1-4.724-3.478.667.667,0,0,0-.712-.131c-1.549.648-3.506,1.069-4.953,2.018a.705.705,0,0,0-.284.84,41.105,41.105,0,0,1,1.508,6.051c-.915,3.679-9.841,31.8-12.324,48.985-.8,5.44,3.76,10.053,5.75,14.948a.912.912,0,0,0,1.48.3,115.2,115.2,0,0,0,10.616-12.732.933.933,0,0,0,.171-.549c-.193-15.491.42-34.65-1.366-50.513.1-.088,4.223-3.77,5.152-4.665A.592.592,0,0,0,100.63,117.255Z" fill="#38a1ff"></path><path d="M49.768,23.974c1.477-5.43,6.94-8.425,11.186-6.247a3.962,3.962,0,0,1,2.3,3.382,6.75,6.75,0,0,1-2.22,5.027C56.7,30.743,51.1,32.387,50.308,40.117a33.418,33.418,0,0,0,.854,9.233,1.346,1.346,0,1,0,2.676-.3c-.165-3.795-.264-9.884,2.106-12.845,2.3-2.876,6.76-5.11,9.45-8.824,3.363-4.644,2.627-10.724-2.59-13.335a10.678,10.678,0,0,0-10.93.9,11.877,11.877,0,0,0-4.526,8.6,1.228,1.228,0,1,0,2.42.424Z" fill="#38a1ff"></path><path d="M22.1,66.384c-.58-3.792,5.419-8.62,8.083-4.7,1.3,1.909.469,2.959-.6,4.873-1.334,2.393-1.815,4.331-.8,6.976a36.007,36.007,0,0,0,2.3,4.258A.966.966,0,1,0,32.861,77c-.427-1.27-1.045-2.809-1.452-4.318-.717-2.657.03-3.333,1.367-5.735,1.39-2.5,1.481-4.6-.143-6.959-4.679-6.806-14.906.286-12.239,6.868a.886.886,0,0,0,1.708-.47Z" fill="#38a1ff"></path><path d="M105.091,27.786c-.192,1.252-.1,1.3-.939,5.71a.958.958,0,1,1-1.907-.177,58.855,58.855,0,0,1,.085-6.819,1.445,1.445,0,0,1,1.139-1.268c3.7-.8,6.067-5.482,1.565-7.246-1.655-.648-2.968-.193-3.643.857a5.239,5.239,0,0,0-.37,4.629.88.88,0,1,1-1.509.9c-3.5-4.679.12-11.629,6.6-9.164C113.187,17.9,110.927,25.788,105.091,27.786Z" fill="#38a1ff"></path><path d="M150.725,51.364c-1.007,4.081-1.157,4.2-2.647,8.866a1.341,1.341,0,1,1-2.619-.577,103.881,103.881,0,0,1,1.679-10.531,1.99,1.99,0,0,1,1.708-1.574,23.808,23.808,0,0,0,3.33-.619c4.914-1.376,6.751-6.473,3.5-10.775-2.823-3.737-6.983-3.782-10.189-.757a7.383,7.383,0,0,0-1.167,1.343,11.724,11.724,0,0,0-.968,1.7,1.235,1.235,0,0,1-2.363-.717,10.848,10.848,0,0,1,2.021-4.611c4.355-5.671,11.628-5.119,15.968.541,3.644,4.753,4.037,12.134-2.96,16.115A14.367,14.367,0,0,1,150.725,51.364Z" fill="#38a1ff"></path><path d="M165.725,65.143a9.643,9.643,0,0,1,5.891-2.434c4.031-.221,6.546,2.591,5.152,7.21-1.547,5.137-7.108,2.575-10.7,8.194-.888,1.389-1.453,3-2.22,4.426a1,1,0,0,0,.341,1.33.982.982,0,0,0,1.338-.328c.883-1.252,1.708-2.638,2.7-3.868,1.611-1.989,2.886-2.371,5.408-3.236,3.043-1.044,4.967-2.276,5.977-5.664,3.278-11-9.471-14.575-15.2-6.814a.915.915,0,0,0,.057,1.252A.88.88,0,0,0,165.725,65.143Z" fill="#38a1ff"></path><path d="M93.307,100.592a10.5,10.5,0,0,1-4.416-7.313c-.691-4.244.33-8.822,1.142-12.788a33.9,33.9,0,0,1,1.561-5.419.536.536,0,0,1,1.028.3c-.293,1.219-.587,3.8-.914,5.447-1.412,7.09-2.866,14.393,2.779,18.584.682.434.353,1.673.228,4.594a.572.572,0,1,1-1.142.059C93.459,103.21,93.421,101.431,93.307,100.592Zm.19.121c.038.024.038.041.076.052Zm-.19-.138v-.049c0-.076,0-.186-.038-.176C93.116,100.381,93.193,100.481,93.307,100.575Z" fill="#191919"></path><path d="M95.439,90.239a2.926,2.926,0,0,0,.266,1.444,3.328,3.328,0,0,0,.457.67c1.939,2.406,6.321.785,7.233-2.193a.6.6,0,0,0-.228-.791.589.589,0,0,0-.8.242,5.25,5.25,0,0,1-.951.822A4.755,4.755,0,0,1,98.979,91.7a2.02,2.02,0,0,1-1.9-.874,2.242,2.242,0,0,1-.342-.432c-.076-.121-.152-.221-.229-.352a.523.523,0,0,0-.609-.425A.559.559,0,0,0,95.439,90.239Z" fill="#191919"></path><path d="M98.408,78.985a15.683,15.683,0,0,0-.342,2.087c-.2,1.212-.343,2.425-.419,3.651,0,.971-.1,2.143.571,2.242.6.081.969-1.213,1.066-1.772.246-.917.6-4.278.761-5.5.089-.667.244-2.339-.457-2.466C98.992,77.1,98.665,78.135,98.408,78.985Z" fill="#191919"></path><path d="M94.894,75.34a2.325,2.325,0,0,1,.99-.826c.952-.291,1.338,1.3,2.132.971.65-.258.2-1.5,0-1.8-1.082-1.9-3.956-.916-4.568.825-.152.411-.354,1.555.266,1.71C94.087,76.33,94.825,75.44,94.894,75.34Z" fill="#191919"></path><path d="M104.412,74.977a2.781,2.781,0,0,1,1.37-.556,1.548,1.548,0,0,1,1.18.473c.862.719.876.98,1.333.808.657-.246.261-1.423,0-1.868a2.762,2.762,0,0,0-2.589-1.216,3.518,3.518,0,0,0-2.436,1.136c-.241.284-.814,1.415-.3,1.769C103.331,75.736,104.309,75.055,104.412,74.977Z" fill="#191919"></path><path d="M5.053,104.051c1.12,4.211,6.14,6.485,10.3,7.7,3.4,1,5.962.051,6.319,3.311a.584.584,0,0,0,1.167-.06,4.156,4.156,0,0,0-.968-3.137c-1.223-1.382-3.811-1.186-6-1.833-3.73-1.107-7.877-3.056-9.848-6.41a.536.536,0,0,0-.712-.279A.517.517,0,0,0,5.053,104.051Z" fill="#191919"></path><path d="M10.6,102.887a12.753,12.753,0,0,0,5.92,4.13c.676.177,2.124.454,2.249-.233.248-.91-1.968-1.153-4.469-2.881a17.272,17.272,0,0,1-2.419-2.092c-.088-.1-1.282-1.411-1.793-1.1C9.534,101.1,10.39,102.556,10.6,102.887Z" fill="#191919"></path><path d="M17.035,100.112a12.811,12.811,0,0,0,4.64,3.621c.5.178,1.817.539,2.049-.077.118-.415,0-.585-1.281-1.438-.729-.486-1.508-.905-2.191-1.451-1.569-1.246-3-3.09-3.672-2.573C16.065,98.586,16.872,99.9,17.035,100.112Z" fill="#191919"></path><path d="M24.379,100.206a12.708,12.708,0,0,0,4.525,2.328c.369.058,1.708.192,1.822-.444.213-.788-1.554-1.149-3.273-2.043-.922-.48-3.33-2.236-3.9-1.438C23.234,99.062,24.193,100.043,24.379,100.206Z" fill="#191919"></path><path d="M32.121,97.146c.445.864,1.672,2.408,1.537,2.827-.3,1.326-3.047,2.981-3.558,5.023-.489,1.92.962,3.346,2.789,4.113a.586.586,0,0,0,.8-.2.6.6,0,0,0-.2-.8c-.717-.584-1.906-1.784-1.679-2.678.36-1.367,3.152-3.056,3.586-5.055.419-1.934-2.009-3.444-2.391-3.865A.544.544,0,0,0,32.121,97.146Z" fill="#191919"></path><path d="M37.045,102.984c.74,2.717.685,2.2.911,3.026.754,2.761.442,4.5.056,7.158-.089.614-.113,1.238-.227,1.9a.579.579,0,0,0,1.11.333,18.161,18.161,0,0,0,.768-1.85c1.083-3.41.777-8.1-1.679-11.075a.553.553,0,0,0-.74-.214A.533.533,0,0,0,37.045,102.984Z" fill="#191919"></path><path d="M158.808,110.6c3.214-6.268,11.864-4,17.761-5.869a.584.584,0,0,0-.256-1.139c-4.549.607-16.988-.959-18.5,6.655a.528.528,0,1,0,1,.353Z" fill="#191919"></path><path d="M171.616,108.116a4.778,4.778,0,0,1-1.423,1.346c-1.268.777-3.5.9-3.415,1.81.056.64,1.486.638,1.793.621,1.931-.117,4.122-1.734,4.5-2.946.231-.524.431-1.692-.142-1.876C172.478,106.928,171.688,108.016,171.616,108.116Z" fill="#191919"></path><path d="M178.533,108.771a9.644,9.644,0,0,0,7.115-3c.456-.552,1.356-1.833.769-2.248-.444-.314-.68-.036-1.964,1.05a9.6,9.6,0,0,1-5.977,2.513c-1.746.24-2.008.267-2.05.7C176.358,108.493,178.014,108.734,178.533,108.771Z" fill="#191919"></path><path d="M184.425,110.643a8.836,8.836,0,0,0,3.984-2.183c.138-.163.979-1.241.541-1.679-.348-.344-.8-.1-1.537.359a6.967,6.967,0,0,0-.626.421,16.017,16.017,0,0,1-2.846,1.477c-.1.043-1.277.619-1.167,1.167C182.933,110.741,184.079,110.69,184.425,110.643Z" fill="#191919"></path><path d="M186.047,113.615a11.1,11.1,0,0,0,5.152-3.3c.354-.461,1.114-1.551.6-1.964-.347-.278-.672-.157-1.793.78a13.331,13.331,0,0,1-4.469,2.875c-1.259.609-1.522.733-1.479,1.167C184.181,113.823,185.591,113.7,186.047,113.615Z" fill="#191919"></path><path d="M175.857,119.561c.713-.209,4.027-.785,4.127-.8,3.548-.6,7.094-.9,10.076-2.283a10.007,10.007,0,0,0,4.839-4.389.588.588,0,0,0-.968-.668c-4,4.732-9.473,4.606-14.26,5.624a14.128,14.128,0,0,0-4.212,1.525.534.534,0,0,0-.313.7A.55.55,0,0,0,175.857,119.561Z" fill="#191919"></path><path d="M93.333 79.938 A2.121 1.347 0 1 0 97.575 79.938 A2.121 1.347 0 1 0 93.333 79.938 Z" fill="#191919" transform="translate(-1.805 157.671) rotate(-78.578)"></path><path d="M103.372 79.838 A2.109 1.428 0 1 0 107.590 79.838 A2.109 1.428 0 1 0 103.372 79.838 Z" fill="#191919" transform="translate(6.75 167.886) rotate(-78.848)"></path><path d="M118.128,80.844c1.071-2.838,1.032-5.261-1.1-7.448-.093-7.316-7.188-11.2-12.487-15.624-2.5-2.14-4.841-5.562-7.842-6.965-1.606-.752-3.508-.985-4.721.318a4.278,4.278,0,0,0-.99,2.523,6.682,6.682,0,0,0-3.007-1.78c-4.012-1.017-5.639,2.043-4.759,6.226a2.932,2.932,0,0,0-.266-.128c-1.931-.793-3.02-.044-3.274,1.077-.332,1.121.314,3.138.8,4.177,1.919,4.105,5.416,7.688,8.794,10.708a.891.891,0,0,0,1.485-.766c-.13-1.836-.114-1.48-.114-1.752a24.075,24.075,0,0,0,4.074,1.572.862.862,0,0,0,1.065-1.057c-.168-.743-.3-1.5-.457-2.266,1.716.8,2.932,1.393,4.835,2.121a.857.857,0,0,0,1.1-1.126c-.152-.46-.3-.916-.456-1.379a35.6,35.6,0,0,1,9.216,4.527c-.025.046-.051.094-.08.143a5.789,5.789,0,0,0-.342,3.462c.259,1.679,1.4,3.781,1.675,3.806,1.654.246,3.626.519,4.53,1.52a1.661,1.661,0,0,1,.419,1.7c-.624,2.164-3.641,2.126-5.863,1.782a.883.883,0,0,0-.99.661,46.475,46.475,0,0,1-4.911,10.86c-1.939,3.281-1.485.019-1.485,7.406a.567.567,0,0,0,.533.614.558.558,0,0,0,.609-.552c.267-2.632.343-4.017.457-4.688v-.075c1.529-1.538,4.858-7.4,6.32-12.343a12.575,12.575,0,0,0,2.551.042c2.668-.276,4.053-1.645,4.454-3.247.231-.878.2-2.675-.522-3.293l.087-.379A.564.564,0,0,0,118.128,80.844Z" fill="#191919"></path><path d="M37.238,81.275a3.063,3.063,0,0,0-4.753-.757,3.227,3.227,0,0,0-.057,4.243,2.807,2.807,0,0,0,4.326,0A3.354,3.354,0,0,0,37.238,81.275Z" fill="#38a1ff"></path><path d="M56.065,54.5a3.064,3.064,0,0,0-4.753-.757,3.228,3.228,0,0,0-.057,4.244,2.807,2.807,0,0,0,4.326,0A3.36,3.36,0,0,0,56.065,54.5Z" fill="#38a1ff"></path><path d="M105.459,37.985a3.065,3.065,0,0,0-4.753-.757,3.227,3.227,0,0,0-.057,4.244,2.807,2.807,0,0,0,4.326,0A3.361,3.361,0,0,0,105.459,37.985Z" fill="#38a1ff"></path><path d="M147.912,64.4a3.065,3.065,0,0,0-4.754-.757,3.229,3.229,0,0,0-.056,4.244,2.807,2.807,0,0,0,4.326,0A3.356,3.356,0,0,0,147.912,64.4Z" fill="#38a1ff"></path><path d="M164.248,86.978a3.064,3.064,0,0,0-4.753-.757,3.228,3.228,0,0,0-.057,4.244,2.807,2.807,0,0,0,4.326,0A3.36,3.36,0,0,0,164.248,86.978Z" fill="#38a1ff"></path><path d="M177.707,122.475a.879.879,0,0,0-.455-.993,245.107,245.107,0,0,0-23.4-10.665.884.884,0,0,0-1.167.532c-.852,2.471-1.09,3.289-2.391,7.759-6.016,1.558-7.91,8.954-9.108,14.98-6.748-13.1-19.266-22.906-33.159-27.8-.79-.273.262-.13-12.439,6.412a57.007,57.007,0,0,0-2.817-7.258.907.907,0,0,0-.854-.486q-.684.051-1.366.142c-9.837,1.345-18.27,3.506-27.524,8.963a68.024,68.024,0,0,0-18.244,15.93,8.261,8.261,0,0,0-4.355-4.147c.4-2.077.691-4.8.882-6.973a.905.905,0,0,0-1.024-.965c-7.8,1.136-15.088.243-22.685-1.6a.906.906,0,0,0-1.082.74c-.2,1.571-.882,6.458-1,7.343-5.492,2.45-6.651,8.622-7.059,14.6-.83,12.754,3.069,28.361,13.207,36.171,10.476,8.066,23.5.4,34.155-7.369l-.284,8.96a.541.541,0,0,0,1.081.022l.409-9.729a31.926,31.926,0,0,0,4.43-4.379.581.581,0,1,0-.8-.846c-.1.074-11.625,11.884-24.307,14.75-4.754,1.073-9.507.657-13.748-2.65C13.041,166.432,9.37,151.086,10.233,139.1c.353-5.489,1.3-11.316,6.432-13.278a.924.924,0,0,0,.57-.728c.428-3.927.528-4.063.911-6.846a59.815,59.815,0,0,0,21.29,1.575c-.112,1.173-.456,4.029-.844,6.2-8.295,1.5-11.036.258-18.966.166a.535.535,0,0,0-.143,1.061c1,.233,2.142.543,3.615.76,3.949.568,9.785.862,13.634.017a16.346,16.346,0,0,0,2.433-.767,7.67,7.67,0,0,1,2.889,1.815c1.816,1.935,1.718,4.449,1.936,7.454a61.245,61.245,0,0,1-.313,13.25c-.143,1.133-.228,2.245-.4,3.335a.585.585,0,0,0,1.139.268,31.594,31.594,0,0,0,.91-3.344,49.115,49.115,0,0,0-.214-17.59c12.272-15.724,27.5-23.471,46.324-25.639.961,1.939,1.8,4.7,2.605,6.907a99.071,99.071,0,0,1-12.055,3.177,74.923,74.923,0,0,0,5.067-8.237.542.542,0,0,0-.2-.732.553.553,0,0,0-.741.2c-1.216,2.068-4.623,6.62-6.859,9.583a.87.87,0,0,0,.882,1.369c5.18-1.1,10.338-2.076,15.285-3.956a53.461,53.461,0,0,0,14.772,8.39.886.886,0,0,0,1.138-1.121A40.163,40.163,0,0,1,109,109.7a.581.581,0,0,0-.569-.586.6.6,0,0,0-.6.58,35.4,35.4,0,0,0,1.253,11.468,51.289,51.289,0,0,1-12.135-7.136c3.676-1.9,7.314-3.807,10.882-5.9,14.051,5.047,27.274,15.786,32.9,29.155.008.019.016.037.025.055-.8,2.764-2.238,14.137-2.272,14.523-.071.81-.085,1.614-.142,2.422a.584.584,0,0,0,.484.669.6.6,0,0,0,.683-.481c.2-.755.4-1.494.569-2.255,1.206-5.347,2.193-20.216,5.606-26.788,1.195-2.328,2.9-4.2,5.465-4.691a.9.9,0,0,0,.683-.611c.564-1.932,2.049-6.8,2.22-7.313,7.163,2.849,14.768,6.262,21.774,9.9-.56,2.117-.908,3.71-1.708,6.316a.9.9,0,0,0,.114.712c2.979,4.674,1.09,10.261-.569,15.5-3.455,11.124-8.97,26.028-19.213,31.613-4.639,2.542-9.535,4.435-14.06,3.751-6.678-1.007-8.9-6.5-12.515-12.2a.582.582,0,0,0-1.053.5,25.807,25.807,0,0,0,4.437,7.236c.121,2.555.084,4.337.023,6.843a.584.584,0,0,0,1.167.037c.067-2.754.085-1.393.085-5.309,6.295,6.727,14.542,4.77,22.628.439,10.749-5.76,16.473-20.846,20.152-32.391,1.778-5.728,3.651-11.4.6-16.611C176.142,128.33,177.367,123.9,177.707,122.475Z" fill="#191919"></path></svg>