<svg viewBox="0 0 200 200" xmlns="http://www.w3.org/2000/svg"><path d="M163.481,76.206a2.509,2.509,0,0,0-2.545,2.476c-.249,22.732-.232,21.446.038,22.062a2.639,2.639,0,0,0,1.454,1.471c.706.294-.12.212,15.25.21A2.71,2.71,0,0,0,180.4,99.8c.688-22.723.834-21.281.535-22.086a2.682,2.682,0,0,0-1.454-1.516c-.755-.315.052-.259-16-.024Zm0,.752c15.924.233,15.049.108,15.536.312a1.508,1.508,0,0,1,.823.863c.165.41.274-.839-.651,21.624a1.511,1.511,0,0,1-1.511,1.46c-15.474,0-14.381.049-14.79-.112a1.6,1.6,0,0,1-.823-.82c-.218-.521-.044.626-.287-21.6a1.732,1.732,0,0,1,1.7-1.757Z" fill="#191919"></path><path d="M96.648,87.023c.035-.089.4-1.44.5-1.831.384-1.553.506-3.73,1.167-3.676.48.038.421,1.133.421,1.644a21.553,21.553,0,0,1-.995,4.3c-.038.1-.1.2-.134.3a.557.557,0,0,1-.631.367l-.842-.334a.392.392,0,1,1,.134-.772Z" fill="#191919"></path><path d="M101.8,79.977c.453.031,1.317.351,1.569-.065.146-.289-.186-1.045-1.531-1.149-1.117-.09-1.7.485-1.645.79C100.289,80.066,101.66,79.967,101.8,79.977Z" fill="#191919"></path><path d="M92.152,94.51c1.816-.044,2.906-1.86,3.515-3.579-1.666-.682-3.261-1.473-4.893-2.217C89.543,91.1,89.48,94.57,92.152,94.51Z" fill="#38a1ff"></path><path d="M95.921,91.328c-.381,1.639-1.507,3.391-3.138,3.712-3.564.713-4.242-3.4-2.544-6.605a.606.606,0,0,1,.784-.265c3.86,1.8,3.026,1.543,4.879,2.44A.385.385,0,0,1,95.921,91.328ZM91.061,89.5c-.726,1.836-.89,4.447,1.072,4.407a2.016,2.016,0,0,0,.784-.151,5.64,5.64,0,0,0,2.22-2.581A33.529,33.529,0,0,1,91.061,89.5Z" fill="#191919"></path><path d="M67.126,137.175A48.586,48.586,0,0,0,50.02,126.123c-2.239-.883-4.491-2.113-6.811-2.489a.589.589,0,0,1-.421-.853c5.962-10.97,11.28-18.353,23.228-22.306,4.624-1.53,11.394-2.892,16.034-1.41.341.108.85.265.975.573,1.009,2.134,1.892,4.755,3.865,5.971,2.868,1.767,4.739-.375,4.42-3.476a.591.591,0,0,1,.727-.648c3.1.722,6.465.419,9.471,1.79,6.762,3.085,14.507,9.963,19.459,15.467a.512.512,0,0,1,.019.662c-2.4,3.024-6.282,6.692-9.433,10a.392.392,0,0,1-.574-.533c3.833-4.1,6.461-6.719,8.935-9.772-4.687-5.132-12.822-11.978-18.9-14.748-2.517-1.146-5.638-1.029-8.476-1.543,0,3.564-2.714,6.016-6.276,3.823-2.246-1.382-3.206-4.064-4.228-6.3-4.21-1.629-11.254-.169-15.633,1.283-11.07,3.67-16.782,10.793-22.213,21.008a44.883,44.883,0,0,1,6.257,2.423A48.109,48.109,0,0,1,67.891,136.8a.4.4,0,0,1,.077.409l-1.244,3.229a.363.363,0,0,1-.689-.23Z" fill="#38a1ff"></path><path d="M105.813,119.276c.06.261.224,1.146.325,1.466.009.036.613,2.032.9,3.311.246,1.1.4,2.221.574,3.365.074.485.191.957.268,1.455a.392.392,0,0,0,.784-.024,13.356,13.356,0,0,0-.44-5.066,15.083,15.083,0,0,0-1.722-4.759.377.377,0,0,0-.478-.21A.382.382,0,0,0,105.813,119.276Z" fill="#38a1ff"></path><path d="M67.757,137.536c.64-1.158,1.044-1.881,1.55-2.957.406-.865,4.644-10.171,5.376-12.148a.393.393,0,0,0-.172-.526.407.407,0,0,0-.536.179,55.589,55.589,0,0,0-3.73,7.45,49.166,49.166,0,0,0-3.138,7.715A.355.355,0,1,0,67.757,137.536Z" fill="#38a1ff"></path><path d="M44.089,124.974c-3.22,4.725-5.848,9.108-7.558,14.827-.826,2.767-1.583,5.892-.268,8.613a.4.4,0,0,0,.728-.309c-.839-2.271-.022-5.635.688-7.954,1.909-6.229,3.755-8.308,7.023-14.811a.344.344,0,0,0-.116-.492A.364.364,0,0,0,44.089,124.974Z" fill="#191919"></path><path d="M85.321,148.915c4.239-4.725,10.026-7.935,12.38-2.266a.4.4,0,0,1-.727.335c-1.079-2.178-2.659-2.551-4.286-2.068-2.447.726-5.109,3.23-6.774,5.151a.6.6,0,0,1-.746.133c-5.185-2.857-10.773-5.043-16.091-7.7a60.892,60.892,0,0,1-6.658-3.867.361.361,0,0,1,.383-.611C67.629,140.852,79.57,145.8,85.321,148.915Z" fill="#191919"></path><path d="M90.985,150.3c.1-.047.557-.222.784-.344a3.682,3.682,0,0,1,2.66-.62,1.933,1.933,0,0,1,.631.16.394.394,0,0,0,.517-.594,1.953,1.953,0,0,0-.5-.5,2.49,2.49,0,0,0-1.741-.312,4.355,4.355,0,0,0-2.43,1.1,3.289,3.289,0,0,0-.421.59.373.373,0,0,0,0,.508A.347.347,0,0,0,90.985,150.3Z" fill="#191919"></path><path d="M91.138,153.807a4.129,4.129,0,0,0,.593-.164,3.39,3.39,0,0,1,1.894-.482,2.563,2.563,0,0,1,.479-.022.393.393,0,0,0,.382-.688,1.589,1.589,0,0,0-.593-.4,3.283,3.283,0,0,0-3.061.928,2.1,2.1,0,0,0-.172.285.362.362,0,1,0,.478.543Z" fill="#191919"></path><path d="M20.613,75.116A72.821,72.821,0,0,1,26.334,66.4c.633-.764,1.32-1.446,1.989-2.175a.777.777,0,1,1,1.263.906c-.478.866-.9,1.743-1.416,2.586-1.338,2.178-4.407,6.273-6.161,9.746a1.16,1.16,0,0,1-1.8.345,27.7,27.7,0,0,1-2.774-3.026.715.715,0,0,1-.115-1,.727.727,0,0,1,1.014-.109A24.19,24.19,0,0,1,20.613,75.116Z" fill="#38a1ff"></path><path d="M20.613,58.277a49.215,49.215,0,0,1,5.07-6.92c.6-.6,1.244-1.118,1.875-1.658a.78.78,0,1,1,1.167,1.036c-.478.711-.878,1.452-1.378,2.161-1.452,2.064-3.584,4.613-5.433,7.778a1.183,1.183,0,0,1-1.8.29,15.377,15.377,0,0,1-2.506-2.947.716.716,0,0,1-.115-1.006.725.725,0,0,1,1.014-.1A15.068,15.068,0,0,1,20.613,58.277Z" fill="#38a1ff"></path><path d="M31.365,54.451c15.67-.454,14.67.075,21.257-.42a.393.393,0,0,0-.019-.785c-1.814-.073-1.854-.132-4.457-.17-3.375-.048-10.061-.134-13.681.2-.731.068-1.819.213-3.176.463A.36.36,0,1,0,31.365,54.451Z" fill="#38a1ff"></path><path d="M31.48,59.987a7.369,7.369,0,0,0,.919.132c.444.015,2.955-.152,3.845-.24a5.692,5.692,0,0,0,1.244-.263.392.392,0,1,0-.038-.783,8.678,8.678,0,0,0-3.023-.036,7.781,7.781,0,0,0-3,.474.359.359,0,0,0,.057.716Z" fill="#38a1ff"></path><path d="M31.5,70.015c.723-.1,4.565-.382,4.668-.388,3.211-.21,6.163-.145,8.973-.419,2.747-.269,3.214-.393,4.286-.437a.393.393,0,1,0,.019-.785,37.206,37.206,0,0,0-6.256.165c-5.042.222-7.992-.025-11.844,1.162A.359.359,0,0,0,31.5,70.015Z" fill="#38a1ff"></path><path d="M31.251,77.745a7.744,7.744,0,0,0,.918.043c.1-.006,3.441-.345,3.578-.364a5.37,5.37,0,0,0,1.129-.3.393.393,0,1,0-.1-.781,6.8,6.8,0,0,0-1.033-.091,26.237,26.237,0,0,0-3.769.409,5.035,5.035,0,0,0-.88.382A.359.359,0,0,0,31.251,77.745Z" fill="#38a1ff"></path><path d="M24.344,105.471a9.258,9.258,0,0,1-4.86-.621c-3.834-1.426-5.771-7.423-2.947-11.617A10.551,10.551,0,0,1,22.086,89.4,7.354,7.354,0,0,1,29.72,92.3a8.258,8.258,0,0,1,1,4.7,14.947,14.947,0,0,1-.268,2.761.394.394,0,0,0,.766.181,15.128,15.128,0,0,0,.382-5.861c-.589-4.26-5.8-6.953-9.834-5.851a11.741,11.741,0,0,0-6.238,4.318c-3.267,4.828-.973,11.862,3.616,13.3a9.694,9.694,0,0,0,5.358.318A.36.36,0,0,0,24.344,105.471Z" fill="#191919"></path><path d="M23.608,98.477l.192-3.2a.6.6,0,0,1,1.09-.3c.26.4,2.329,3.071,3.616,5.018a.4.4,0,0,1-.631.474c-.906-1.114-1.986-2.136-2.966-3.455l-.134,1.974a.579.579,0,0,1-.44.547c-.8.208-1.607.471-2.411.691,1.358.758,2.35,1.576,3.846,2.444a.361.361,0,0,1,.191.476.369.369,0,0,1-.478.179,15.2,15.2,0,0,1-1.416-.583c-.829-.4-3.537-1.9-4.075-2.3a.607.607,0,0,1,.268-1.072C21.417,99.169,22.573,98.768,23.608,98.477Z" fill="#38a1ff"></path><path d="M26.219,105a24.978,24.978,0,0,1,1.989-2.664,8.119,8.119,0,0,1,1.627-1.714c1.118-.727,2.17.129,2.315,1.345a1.457,1.457,0,0,1,1.243,2.159,13.838,13.838,0,0,1-3.539,4.156c-1.016.905-2.068.489-2.353-.481a1.276,1.276,0,0,1-1.435-.5A2.061,2.061,0,0,1,26.219,105Zm.516.56c-.1.341-.105,1.048.211,1.209.175.1.538-.134.708-.273a.571.571,0,0,1,.918.528.784.784,0,0,0,.115.57c.217.168,2.251-2.008,2.545-2.355.274-.325,1.365-1.73,1.052-1.993-.341-.265-.726.273-1.167-.136a.6.6,0,0,1-.172-.626,1.023,1.023,0,0,0-.115-.78c-.1-.108-.152-.233-.345-.078a8.686,8.686,0,0,0-1.416,1.459C28.321,103.884,27.679,104.475,26.735,105.559Z" fill="#191919"></path><path d="M31.5,109.013c1.025-.547,3-2.853,2.18-3.292a.4.4,0,0,0-.516.159c-.081.106-1.482,1.764-2.143,2.6C30.758,108.806,31.024,109.267,31.5,109.013Z" fill="#191919"></path><path d="M24.937,62.991c0-1.055.113-3.657.172-6.324a.4.4,0,0,1,.8,0l.173,6.888a.58.58,0,0,1-.555.58c-12.923.436-12.046.493-12.3.238s-.181.521-.181-11.916a.6.6,0,0,1,.6-.59c3.086,0,4.82.152,8.8.231a.36.36,0,1,1,0,.719c-4.363.086-5.446.216-8.2.229V63.313Z" fill="#191919"></path><path d="M25.319,79.825c0-.566.173-7.086.173-7.086a.4.4,0,0,1,.8,0l.191,7.653a.6.6,0,0,1-.574.584l-11.862.405a.6.6,0,0,1-.622-.606V69.3a.6.6,0,0,1,.584-.588c2.665-.121,5.77-.1,8.418-.154a.367.367,0,0,1,.383.343.375.375,0,0,1-.345.375c-3.528.246-5.969.489-7.835.584V80.149Z" fill="#191919"></path><path d="M147.543,127.62c1.437-.15,3.039.3,3.54,1.691.283.785.223,1.979-.67,3.775-.282.568-11.48,24.008-11.48,24.11a5.716,5.716,0,0,1-1.626,1.817,4.341,4.341,0,0,1-2.335.807c-1.129.051-60.844,3.237-60.844,3.237a.354.354,0,0,1-.363-.294,1.929,1.929,0,0,1,.861-2.035,5.287,5.287,0,0,1,2.927-.759c3.267-.107,12.439-.935,15.709-1.238.536-1.313,10.031-24.678,10.14-24.979a8.271,8.271,0,0,1,2.909-3.713,7.326,7.326,0,0,1,4.553-1.264C115.606,128.953,142.857,127.822,147.543,127.62Zm-9.682,29.038c.153-.335,10.53-22.2,11.48-24.11.674-1.353.807-2.24.594-2.831-.32-.885-1.664-.962-2.277-.89-.113.013-35.213,1.206-36.832,1.144A6.144,6.144,0,0,0,107,131.022a7.137,7.137,0,0,0-2.487,3.137c0,.1.437-.679-10.408,25.259a.508.508,0,0,1-.441.323c-17.4,1.409-17.339.73-18.616,1.6a1.313,1.313,0,0,0-.593.905c2.411-.157,59.332-3.574,60.48-3.627A3.651,3.651,0,0,0,137.861,156.658Z" fill="#191919"></path><path d="M9.9,111.552a17.091,17.091,0,0,0,2.373-2.532,13.776,13.776,0,0,0,2.353-2.986.411.411,0,0,0-.038-.554.393.393,0,0,0-.555.04,9.84,9.84,0,0,0-1.014.858,45.2,45.2,0,0,0-3.157,3.679c-.175.255-.471.9-.555,1.068A.365.365,0,0,0,9.9,111.552Z" fill="#38a1ff"></path><path d="M5.383,100.593a3.782,3.782,0,0,0,.841.164,26.113,26.113,0,0,0,3.387-.348,5.481,5.481,0,0,0,.9-.3.393.393,0,1,0-.1-.78,4.091,4.091,0,0,0-1.549-.023c-3.5.359-2.675.3-3.521.564a.36.36,0,1,0,.039.718Z" fill="#38a1ff"></path><path d="M8.6,86.694a4.9,4.9,0,0,0,.5.9,32.581,32.581,0,0,0,2.87,2.913,10.031,10.031,0,0,0,.919.631.394.394,0,0,0,.555-.558A10.819,10.819,0,0,0,11.3,88.2c-1.809-1.795-.758-.928-2.124-1.963A.366.366,0,0,0,8.6,86.694Z" fill="#38a1ff"></path><path d="M20.555,83.454a1.253,1.253,0,0,0-.134.465,9.021,9.021,0,0,0,.4,1.762,1.749,1.749,0,0,0,.306.516.4.4,0,0,0,.785-.158,3.739,3.739,0,0,0,.076-.458,5.7,5.7,0,0,0-.21-.967c-.175-1-.343-1.067-.517-1.279a.372.372,0,0,0-.421-.295A.353.353,0,0,0,20.555,83.454Z" fill="#38a1ff"></path><path d="M32.15,89.286a11.978,11.978,0,0,0,2.1-2.37,12.193,12.193,0,0,0,2.067-2.8.408.408,0,0,0-.038-.552.4.4,0,0,0-.555.052,7.127,7.127,0,0,0-.919.8,39.356,39.356,0,0,0-2.793,3.459,5.946,5.946,0,0,0-.459,1.007A.36.36,0,0,0,32.15,89.286Z" fill="#38a1ff"></path><path d="M171.173,138c4.728,0,15.259-.463,15.363-.471.709-.056,1.416-.14,2.1-.215a.392.392,0,0,0-.019-.784,94.95,94.95,0,0,0-10.523.089,39.475,39.475,0,0,0-7,.665A.36.36,0,1,0,171.173,138Z" fill="#191919"></path><path d="M151.542,132.939a17.862,17.862,0,0,1,3.846-.471c2.468-.278,4.974-.563,7.462-.658-1.722.428-5.5,1.548-5.3,4a3.043,3.043,0,0,0,1.3,1.844,10.719,10.719,0,0,0,4.668,2.116c-4.228.269-8.572.572-12.8.614-.784.008-1.55.163-2.334.2Z" fill="#38a1ff"></path><path d="M144.769,150.977c2.257-.224,4.592.1,6.849,0,5.472-.256,10.964-.749,16.417-.641a5.406,5.406,0,0,0-1.952,1.425c-1.492,1.929,1.224,2.985,2.755,3.3-8.151.363-16.282.234-24.414.261Z" fill="#38a1ff"></path><path d="M190.65,133.69c-.668.056-7.661.321-12.57.332-8.02.02-9.124-.06-13.719.475a.36.36,0,0,0,.058.718c.1,0,12.639.118,18.406-.047a51.006,51.006,0,0,0,7.9-.7A.392.392,0,0,0,190.65,133.69Z" fill="#191919"></path><path d="M194.534,151.7c-3.781.541-8.75.808-16.206,1.559-2.009.21-4.133.6-6.218.755-1.614.116-5.92.208-5.819-1.4a3.894,3.894,0,0,1,1.973-1.716,6.456,6.456,0,0,1,.988-.266c4.233-.02,8.528-.742,12.673-1.049,4.83-.37,5.392,0,12.131-.784a.4.4,0,0,0,.363-.43.418.418,0,0,0-.44-.351c-2.478.217-7.618.047-12.13.369-4.184.305-13.213,1.675-16.646.718-1.46-.411-1.4-1.769-.536-2.823a4.846,4.846,0,0,1,2.656-1.51c8.264-.284,18.662-1.858,26.255-2.2a.393.393,0,0,0-.019-.785c-12.758-.238-30.65,3.723-33.771.733-.259-.248-.11-.454.153-.7a7.619,7.619,0,0,1,2.695-1.4c3.325-.211,11.377,1.332,27.287-.916a.392.392,0,1,0-.095-.779,144.44,144.44,0,0,1-25.678.422,9.737,9.737,0,0,1-5.07-2.119,1.7,1.7,0,0,1-.019-2.7c1.637-1.912,5.856-1.992,8.323-2.157,12.277-.83,13.635-.559,19.516-.863,1.908-.1.808-.117,3.081-.223a.393.393,0,0,0-.02-.785c-4.906.042-12.426-.053-23.209.607-1.678.1-6,.579-6.466-1.069-.106-.564,1.178-1.071,1.722-1.255,5.8-1.962,20.1-1.617,28.968-2.045a.36.36,0,1,0-.02-.719c-5.228-.019-19.258-.645-27.631,1.161a45.543,45.543,0,0,0-8.473.814c-.665.11-1.3.3-1.952.465a.393.393,0,1,0,.115.778,62.59,62.59,0,0,0,6.829-.711,1.838,1.838,0,0,0,.134,3.065c-1.646.149-2.971.344-4.648.566a17.421,17.421,0,0,0-3.9.633.358.358,0,1,0,.23.679,19.074,19.074,0,0,1,3.788-.309c.861-.076,3.195-.273,3.482-.3a3.484,3.484,0,0,0-1.99,3.189c.138,1.479,2.174,2.88,3.482,3.508-1.109.071-10.2.579-10.446.61-.536.068-1.072.17-1.607.214a.393.393,0,0,0,.038.784c.554-.019,1.109-.077,1.645-.11,1.276-.076,2.45.181,9.887-.271-1.786,1.024-1.845,2.328-.177,3.279-1.933.019-7.982.29-9.576.5-1.8.246-2.381.419-3.31.476a.36.36,0,0,0-.019.719c2.068.225,1.98-.027,9.815-.394,1.474-.069,5.013-.168,5.32-.183.591-.031,2.682-.168,2.845-.168-1.923,1.184-2.646,3.686-.97,4.926-3.629.1-6.81.355-12.265.682-2.483.179-3.958-.135-6.85.186a.359.359,0,0,0,.058.716c2.11-.148,4.611.227,6.83.179,3.464-.118,9.756-.57,14.408-.591a2.576,2.576,0,0,0-.995,2.059,2.2,2.2,0,0,0,.995,1.576c-1.512.049-18.77.3-21.64.366a.393.393,0,0,0,.019.785c8.965.168,15.472.338,24.453-.049a.6.6,0,0,0,.549-.423c3.033.2,6.131-.475,9.036-.773,6.4-.675,9.971-.649,16.225-1.992A.394.394,0,0,0,194.534,151.7Z" fill="#191919"></path><path d="M40.129,156.249a9,9,0,0,0,1.549,1.524,22.025,22.025,0,0,0,8.132,3.339,18.247,18.247,0,0,0,2.373.281.4.4,0,0,0,.459-.32.4.4,0,0,0-.326-.453c-.679-.186-1.511-.457-2.238-.642a23.868,23.868,0,0,1-7.749-3.144c-.3-.19-1.224-.742-1.7-1.107A.36.36,0,1,0,40.129,156.249Z" fill="#191919"></path><path d="M68.675,164.11c1.42-.253,2.41-.682,2.45-2.141.066-2.813-3.2-6.291-6.946-6.362a12.433,12.433,0,0,0-4.669.836c-5.329,2.059-6.947,6.71-4.132,7.591C57.176,164.591,66.334,164.524,68.675,164.11Zm-12.513-.644v-.022l9.127-.221c.9-.032,3.541-.173,4.324-.628.6-.349.184-1.711-.153-2.332a6.5,6.5,0,0,0-5.319-3.45c-6.381-.136-10.52,5.07-8.8,6.323A2.315,2.315,0,0,0,56.162,163.466Z" fill="#191919"></path><path d="M38.77,150.979c0-.042.019-.088.019-.135a.373.373,0,0,0-.057-.2.361.361,0,0,0-.67-.2c-12.742-.292-14.688-.347-16.493,0a.607.607,0,0,0-.5.575c-.015.33-.023.671-.041,1.019a4.856,4.856,0,0,0-2.925.432c-3.306,1.793-2.514,7.2,2.411,7.318a11.384,11.384,0,0,0,1.406-.076c2.7,4.69,10.94,5.035,14.532,1.132C38.773,158.255,39.085,154.451,38.77,150.979Zm-20.53,6.848a2.651,2.651,0,0,1,.459-4.343,7.241,7.241,0,0,1,2.29-.674,14.589,14.589,0,0,0,.516,6.016A6.14,6.14,0,0,1,18.24,157.827Zm17.354,2.217c-2.952,3.179-9.916,3.066-12.417-.613-1.455-2.153-1.018-5.3-.919-7.893,2.162-.307,2.081.067,15.766-.292C38.089,154.223,37.634,157.877,35.594,160.044Z" fill="#191919"></path><path d="M17.57,163.846c.019.017.058.035.077.052l.4.242c1.459.674,4.284.586,5.8.593,1.456.009,13.074-.418,15.1-.929a3.937,3.937,0,0,0,1.665-.78.247.247,0,0,0,.077-.14c.019-.17-.135-.315-.383-.487a5.482,5.482,0,0,0-2.641-.689.4.4,0,0,1-.382-.413.412.412,0,0,1,.42-.371,6.134,6.134,0,0,1,3.138.623c1.392.833,1.368,2.322-.937,3.177-1.619.63-4.434.656-6.716.791-3.478.206-11.638.9-14.9-.051-2.147-.661-2.356-1.969-1.263-2.56a9.931,9.931,0,0,1,2.124-.6,10,10,0,0,1,2.813-.137.36.36,0,0,1-.019.719A11.949,11.949,0,0,0,17.57,163.846Zm-.057.023c-.057.029-.076.058-.057.082C17.494,163.97,17.513,163.922,17.513,163.869Zm.019-.052c0-.042-.019-.075-.038-.061C17.456,163.768,17.494,163.79,17.532,163.817Z" fill="#191919"></path><path d="M28.094,122.956a12.5,12.5,0,0,0-3.081,4.07c-1.67,3.782.019,6.459,1.971,9.9,1.092,1.925,2.345,4.116,2.047,6.272a5.764,5.764,0,0,1-2.181,3.651.4.4,0,0,0,.5.616c6.654-5-.036-10.865-1.511-15.548a6.854,6.854,0,0,1,.8-5.614c1.5-2.7,2.439-2.938,1.951-3.366A.346.346,0,0,0,28.094,122.956Z" fill="#191919"></path><path d="M31.385,135.919c.033.085.354.994.421,1.16a13.179,13.179,0,0,1,.956,2.62,13.931,13.931,0,0,1,.192,3.885.386.386,0,0,0,.248.489.4.4,0,0,0,.5-.261,5.443,5.443,0,0,0,.44-1.283,9.424,9.424,0,0,0-.9-5.154A5.953,5.953,0,0,0,32,135.537.361.361,0,0,0,31.385,135.919Z" fill="#191919"></path><path d="M126.362,144.021a.6.6,0,0,0-1.052-.18c-.514.711-1.077.653-1.492.13a1.094,1.094,0,0,1,.248-1.756.41.41,0,0,0,.23-.408.359.359,0,0,0-.249-.532,4.6,4.6,0,0,0-4.649,1.87c-3,3.814,1.55,7.826,5.166,5.566A4.089,4.089,0,0,0,126.362,144.021Z" fill="#38a1ff"></path><path d="M129.519,136.434c-2.72-.656-4.832.926-5.127,3.1a.386.386,0,0,0-.077.651c2.405,2.329,5.623-.15,5.664-3.158A.616.616,0,0,0,129.519,136.434Z" fill="#38a1ff"></path><path d="M164.017,74.269a1.954,1.954,0,0,1,.152-.94,1.446,1.446,0,0,1,.861-.792c.519-.205-.027,0,17.335.04a1.336,1.336,0,0,1,1.34,1.345c.069,23.175.361,21.739-.268,22.421a1.725,1.725,0,0,1-1.416.494.393.393,0,1,0,0,.785l.344.009a2.364,2.364,0,0,0,2.43-2.351c.158-8.266.053,5.541.134-21.358a2.56,2.56,0,0,0-2.564-2.553c-2.659.006-15.5.1-16.761.13a2.356,2.356,0,0,0-2.315,2.424v.346a.364.364,0,0,0,.728,0Z" fill="#191919"></path><path d="M165.93,83.047c.282.039,1.026.18,1.473.224,1,.095,1.971.148,2.966.254a23.594,23.594,0,0,0,4.86.323.392.392,0,1,0,.076-.781c-.566-.13-1.08-.28-1.645-.362a52,52,0,0,0-6.218-.576,8.907,8.907,0,0,0-1.512.2A.359.359,0,1,0,165.93,83.047Z" fill="#38a1ff"></path><path d="M166.045,87.51a3.516,3.516,0,0,0,.975.213c3.433.228,3.016.142,3.712.02a.393.393,0,1,0,.058-.783c-.191-.067-.364-.141-.574-.2a14.232,14.232,0,0,0-2.258-.2,3.66,3.66,0,0,0-1.932.234A.359.359,0,0,0,166.045,87.51Z" fill="#38a1ff"></path><path d="M165.375,92.136c.253,0,1.061.011,1.493-.008.409-.017,1.628-.137,3.463-.152,1.167-.01,2.334.075,3.463.095.516.009,1.014-.028,1.511-.027a.391.391,0,0,0,.077-.779,15.953,15.953,0,0,0-5.07-.5,12.955,12.955,0,0,0-5.071.665A.36.36,0,0,0,165.375,92.136Z" fill="#38a1ff"></path><path d="M164.9,95.989a3.071,3.071,0,0,0,.861.107c.459-.013.918-.047,1.377-.056s.919.034,1.378-.006c.248-.022.459-.094.708-.138a.4.4,0,0,0,.421-.363.4.4,0,0,0-.364-.42,4.706,4.706,0,0,0-.669-.215,12.109,12.109,0,0,0-2.718,0,2.22,2.22,0,0,0-1.128.382A.361.361,0,0,0,164.9,95.989Z" fill="#38a1ff"></path><path d="M152.382,102.1H133.865a1.745,1.745,0,0,0-1.719,1.744c0,.955.145,8.479.174,9.84a1.532,1.532,0,0,0,1.545,1.5c0,.1,18.414.237,18.517.238a1.757,1.757,0,0,0,1.748-1.743v-9.84A1.748,1.748,0,0,0,152.382,102.1ZM138.2,109.9a3.6,3.6,0,0,1-.491.757c-.417.482-1.93,1.992-2.3,2.281a3.992,3.992,0,0,1-.694.405.374.374,0,0,1-.52,0,.38.38,0,0,1,0-.508,4.08,4.08,0,0,1,.405-.7c.254-.308,1.774-1.854,2.282-2.3a4.568,4.568,0,0,1,.765-.491.39.39,0,0,1,.549,0A.386.386,0,0,1,138.2,109.9Zm4.608.242a81.3,81.3,0,0,1-8.536-5.411.361.361,0,0,1,.375-.617,88.766,88.766,0,0,1,8.479,4.8c2.487-1.526,5.953-3.611,8.464-4.826a.392.392,0,0,1,.4.673c-2.332,1.7-6.047,3.94-8.551,5.383A.616.616,0,0,1,142.806,110.145Zm9.259,3.224a.388.388,0,0,1-.549,0,8.842,8.842,0,0,1-2.239-1.93,4.712,4.712,0,0,1-1.213-1.56.38.38,0,0,1,0-.508.374.374,0,0,1,.52,0,14.879,14.879,0,0,1,3.163,2.9,5.062,5.062,0,0,1,.318.546A.387.387,0,0,1,152.065,113.369Z" fill="#38a1ff"></path><path d="M74.924,77.526A31.855,31.855,0,0,1,81.94,46.382a30.947,30.947,0,0,1,43.742-1.726c16.448,15.175,11.559,41.726-7.587,51.1a.771.771,0,1,0,.664,1.391,32.883,32.883,0,0,0,8.546-54.24A33.3,33.3,0,0,0,80.22,44.784a32.35,32.35,0,0,0-6.643,33.2.712.712,0,0,0,.9.443A.7.7,0,0,0,74.924,77.526Z" fill="#38a1ff"></path><path d="M103.748,44.8a159.663,159.663,0,0,0-.038,18.368.383.383,0,0,0,.765,0,158.352,158.352,0,0,0-.038-18.368A.345.345,0,1,0,103.748,44.8Z" fill="#191919"></path><path d="M112.981,66.1c1.366-.8,4.533-2.557,3.846-3.7-.729-1.207-3.87.928-5.071,1.666-.663.409-3.152,1.861-2.525,2.9S112.588,66.331,112.981,66.1Z" fill="#191919"></path><path d="M93.543 82.714 A1.148 1.722 0 1 0 95.839 82.714 A1.148 1.722 0 1 0 93.543 82.714 Z" fill="#191919" transform="translate(-30.359 69.654) rotate(-35.175)"></path><path d="M99.315 84.597 A1.722 1.148 0 1 0 102.759 84.597 A1.722 1.148 0 1 0 99.315 84.597 Z" fill="#191919" transform="translate(-18.77 29.72) rotate(-15.329)"></path><path d="M119.878,122.461a5.325,5.325,0,0,0,.44,1c.309.507,1.857,2.756,2.544,3.6a9.494,9.494,0,0,0,.861.871.382.382,0,0,0,.536.091.4.4,0,0,0,.1-.54c-.172-.335-.284-.643-.44-.918-.378-.66-2.53-3.58-2.717-3.807a9.546,9.546,0,0,0-.746-.7A.352.352,0,1,0,119.878,122.461Z" fill="#191919"></path><path d="M67.165,137.069a2.007,2.007,0,0,0-.382.464,18.408,18.408,0,0,0-.8,2.187,2.072,2.072,0,0,0-.038.66.388.388,0,0,0,.727.27,4.08,4.08,0,0,0,.344-.439,7.006,7.006,0,0,0,.459-1.154c.535-1.438.364-1.228.364-1.755A.355.355,0,0,0,67.165,137.069Z" fill="#191919"></path><path d="M115.667,84.26c-.746-2.827-2.488-9.617-5.587-14.182-2.239-3.3-5.166-5.43-8.839-4.446-6.162-2.057-12.361.6-17.068,5.239-9.642,9.5-10.992,24.446-2.564,27.453a5.759,5.759,0,0,0,2.812.391c-.057.238-.113.475-.171.712a.389.389,0,0,0,.746.224A92.315,92.315,0,0,0,88.67,86.145a.6.6,0,0,0-.44-.715,6.667,6.667,0,0,1-1.875-.743c-1.554-.98-1.6-2.511-.8-3.195,2.952-.643,3.864,1.723,10.9-3.275.246.345.906.984,1.282.739.2-.129.352-.662-.153-1.276-.049-.063-.1-.124-.152-.181a25.255,25.255,0,0,0,5.26-5.2,28.312,28.312,0,0,1,1.312,8.292c-.985,6.607-5.432,17.686-12.179,17.464a.538.538,0,0,0-.555.427c-.192,1.18-.375,2.34-.67,3.5a.391.391,0,1,0,.746.235c.084-.25-.011-.065.326-.027,4.422.483,13.526,2.262,18.023.734C116.59,100.572,117.526,91.324,115.667,84.26Zm-29.12-11a30.236,30.236,0,0,0-4.3,5.408,16.552,16.552,0,0,0-1.817,4.437,17.415,17.415,0,0,0-.478,2.011.355.355,0,0,1-.709-.03,9.337,9.337,0,0,1,.1-2.223,15.1,15.1,0,0,1,1.875-4.794,14.948,14.948,0,0,1,4.86-5.412.378.378,0,0,1,.536.057A.384.384,0,0,1,86.547,73.261Zm4.745-3.446c-.5.387-1.843,1.556-2.257,1.105-.281-.3.3-1.028.689-1.374.632-.563,2.807-2.239,3.195-1.491C93.248,68.586,91.792,69.448,91.292,69.815Z" fill="#191919"></path></svg>