<svg viewBox="0 0 200 200" xmlns="http://www.w3.org/2000/svg"><path d="M125.531,66.277c8.655,3.646,31.114,10.358,40.817,5.113,7.892-4.275-4.1-10.923-9.2-12.69-.674-.233-1.171.771-.49,1,2.921,1,15.652,6.639,9.394,10.607-9.22,5.884-35.787-2.424-44.626-7.321-2.348-1.278-9.8-6.432-6.872-9.785,2.059-2.39,12.4-1.435,15.247-1.02.5.074.647-.681.148-.764-3.584-.573-16.6-2.415-16.963,3.137S121.356,64.519,125.531,66.277Z" fill="#191919"></path><path d="M130.568,56.318c1.06-1.662,3.32-6.374,4.507-7.03a14.248,14.248,0,0,1,9.469-1.253c3.32.572,6.64,1.967,8.391,3.959.88,1.012.755,2.124-.49,2.606-3.958,1.535-13.71-.44-15.943-3.619-.83-1.187-2.374.656,2.54,3.021,3.2,1.536,11.619,3.727,14.756,1.2.116,2.391.581,4.8.333,7.171-.54,5.312-19.089.481-22.866-3.394-.324-.341-.88.19-.6.556,3.187,4.149,15.894,7.079,20.881,6.125,1.768-.341,3.785-1.536,3.718-3.129-.141-3.4.4-9.9-2.273-11.993a18.923,18.923,0,0,0-8.507-3.652c-2.823-.456-8.665-.224-10.558,2.141a27.791,27.791,0,0,0-3.966,7.047C129.838,56.434,130.377,56.616,130.568,56.318Z" fill="#191919"></path><path d="M122.368,72.3c.048-1.859.523-3.319,2.249-4.207.7-.366.15-1.353-.556-1.063-3.32,1.378-2.78,4.831-2.988,6.557-.347,3.021-4.191,1.942-4.581,6.158a6.1,6.1,0,0,0,2.208,5.079c.323.291.913,0,.672-.464-1.029-1.843-2.863-5.237-.05-6.955C121.455,76.1,122.272,76.037,122.368,72.3Z" fill="#191919"></path><path d="M151.209,75.307a.581.581,0,0,0-1.054-.473,36.229,36.229,0,0,1-7.038,10.656c-3.32,3.279-7.851,2.681-9.694-2.431a.425.425,0,0,0-.83.182c.05,3.154,3.469,5.984,7.2,5.378a19.427,19.427,0,0,0,.722,5.81c.232.523,1.171.3,1.079-.257a21.087,21.087,0,0,1-.7-5.81C145,86.943,149.715,79.141,151.209,75.307Z" fill="#191919"></path><path d="M127.381,89.59c2.361-13.733,5.222-14.711,3.278-15.628-1.718-.78-1.9-2.871-1.269-4.481.2-.507-.673-.648-.88-.191-.955,2.075-.531,4.847,1.527,5.809-1.76,5.146-3.129,9.5-3.594,14.234C126.418,89.873,127.305,90.032,127.381,89.59Z" fill="#191919"></path><path d="M163.841,97.4c-.74-3.319,2.315-7.469-3.32-10.075-1.187-.548-3.088-.9-3.32-2.49-.216-1.726,1.2-3.262,1.47-4.93a6.012,6.012,0,0,0-1.079-4.581.432.432,0,0,0-.715.473c2.026,4.075-.83,5.984-.912,8.59-.183,4.548,6.83,2.755,6.763,7.975,0,2.175-1.053,4.889.474,6.881,1.76,2.3,6.307,3.32,6.473,6.54.1,1.792-.963,3.195-1.992,4.548a.639.639,0,0,0,.955.83c2.041-1.926,3.32-5.262,1.66-7.827S164.4,99.89,163.841,97.4Z" fill="#191919"></path><path d="M146.985,75.274c-.093-.83-1.511-.44-1.42,1.328C145.632,77.905,147.2,77.183,146.985,75.274Z" fill="#191919"></path><path d="M135.655,79.266a3.554,3.554,0,0,0,2.731,3.909c.614.05.83-.523.432-.772-1.07-.7-2.008-1.544-1.785-3.063a.69.69,0,1,0-1.378-.074Z" fill="#191919"></path><path d="M140.66,79.78c-.243,1.17,4.507,1.785,3.66-.829a20.889,20.889,0,0,1-.589-2.565c-.146-.764-1.747-.238-.224,3.17C141.855,79.8,140.849,78.875,140.66,79.78Z" fill="#191919"></path><path d="M139.855,73.241c-.158-.955-1.751-.274-1.352,1.659C138.71,75.872,140.1,74.735,139.855,73.241Z" fill="#191919"></path><path d="M186.93,136.624a3.928,3.928,0,0,1-2.847.763c-.531,0-.6.963-.091,1.1,3.163.83,5.86-2.449,4.772-3.187C188.034,134.8,187.965,135.835,186.93,136.624Z" fill="#191919"></path><path d="M122.75,139.5c-1.5.225-5.2,2.324-6.266,4.034-5.171-1.078-11.62-5.735-15.487-9.711-.316-.315-.888.166-.6.541,3.32,4.315,10.267,8.814,15.537,10.274-1.618,4.149-.315,5.387-.083,4.25,1.553-7.47,4.573-6.027,7.212-8.815A.357.357,0,0,0,122.75,139.5Z" fill="#191919"></path><path d="M123.762,148.027c3.237.265,8.765-4.689,6.64-4.307-1.66.3-3.61,3.378-6.573,3.179a17.113,17.113,0,0,0-2.44-.307C120.6,146.641,121.315,147.827,123.762,148.027Z" fill="#191919"></path><path d="M185.777,142.433c-.64-.065-.921,1.029-3.2.914-.83,0-.83.83-.133,1.062,1.078.365,3.527-.249,3.727-1.269C186.225,142.848,186.108,142.467,185.777,142.433Z" fill="#191919"></path><path d="M184.482,135.645a5.326,5.326,0,0,0,5.56-5.52c0-.323-.556-.315-.771-.091-.606.623-.432,3.917-4.93,4.631C183.76,134.748,183.95,135.621,184.482,135.645Z" fill="#191919"></path><path d="M128.775,156.327a15.385,15.385,0,0,1-12.109-3.32c-3.726-2.963-13.121-1.527-26.99-12.225-5.561-4.291-1.277-8.881.59-13.487a.4.4,0,0,0-.7-.365c-4.15,5.768-6.093,10.906.406,15.7,12.515,9.245,21.247,8.083,25.355,10.789,3.394,2.257,8.747,5.561,13.462,3.644C129.14,156.958,129.183,156.26,128.775,156.327Z" fill="#191919"></path><path d="M186.175,139.612a4.238,4.238,0,0,1-2.714.83c-1.087-.133-.9.88-.141,1.12a3.446,3.446,0,0,0,3.32-.938C187.635,139.487,186.822,138.939,186.175,139.612Z" fill="#191919"></path><path d="M130.178,152.385c-3.535.7-3.876,1.128-7.843,0-.49-.133-.938.572-.431.83,2.249,1.236,6.349,1.5,8.581.1A.493.493,0,0,0,130.178,152.385Z" fill="#191919"></path><path d="M132.261,147.463c-1.046.17-1.386,1.4-4.8,2.366-1.851.53-3.843.115-5.7-.126a.446.446,0,0,0-.2.83C128.427,153.29,134.467,147.1,132.261,147.463Z" fill="#191919"></path><path d="M104.732,133.918a.626.626,0,0,0,.771-.166c1.884-3.212,3.652-6.482,5.445-9.743.365-.664-.614-1.328-.988-.664-1.128,2.025-4.232,7.37-4.979,9.229A66.45,66.45,0,0,1,89.651,122.3c3.934-6.092,13.172-23.289,19.72-26.94.722-.4.232-1.611-.515-1.2-6.764,3.644-17.727,23.471-19.819,27.256-.6,1.087-.6,1.253.241,2.124C92.731,127.129,100.745,131.962,104.732,133.918Z" fill="#191919"></path><path d="M113.869,155.215a330.994,330.994,0,0,1-8.083,38.178c-.117.4.523.755.738.307,2.49-5.171,8.233-32.368,8.3-38.328a.484.484,0,0,0-.955-.157Z" fill="#191919"></path><path d="M160.123,173.374c-.095-.4-.83-.29-.83.158.149,3.577,3.867,14.756,7.229,19.213.83,1.137,1.867,1.153.946-.481A71.6,71.6,0,0,1,160.123,173.374Z" fill="#191919"></path><path d="M164.231,107.268c-3.123-7.095-4.34-5.129-3.942-4.547,4.033,5.868,7.47,17.429,9.038,24.409.182.83,1.468.472,1.286-.366A104.355,104.355,0,0,0,164.231,107.268Z" fill="#191919"></path><path d="M146.4,92.421a17.546,17.546,0,0,0-2.589-.556c-.781-.117-.946,0-.989.655a134.064,134.064,0,0,1-1.119,14.267c-5.072-3.469-12.508-10.25-15.985-15.7-.722-1.128-1.021-1.253-1.436-1.236-3.677.141-3.046,1.5-2.49,1.386a13.741,13.741,0,0,1,2.548-.3c3.51,5.718,11.428,13.329,16.956,17.2.706.5,1.137.464,1.319-.54a69.1,69.1,0,0,0,1.179-14.632,18.523,18.523,0,0,1,2.424.481A.523.523,0,0,0,146.4,92.421Z" fill="#191919"></path><path d="M157.451,98.629c-1.538-3.428-2.674-3.818-4.324-4.582s-6.2-2.722-5.188-1.411c7.312,9.379,10.233,22.409,11.321,36.1a7.96,7.96,0,0,0,2.124-.232C162.015,123.793,162.484,109.851,157.451,98.629Z" fill="#191919"></path><path d="M105.636,135.794a15.921,15.921,0,0,0,4.98,3.627c.258-1.577.581-9.96.739-13.611A107.176,107.176,0,0,1,105.636,135.794Z" fill="#191919"></path><path d="M112.508,153.92c-2.489-.713-11.951-2.24-14.939-4.582.1,4.407-.523,9.653,1.253,11.537s11.13,1.046,12.533,1C111.562,160.3,112.4,154.982,112.508,153.92Z" fill="#191919"></path><path d="M115.139,90.3c-2.265.462-4,.9-3.759,2.565,2.489,17.321,1.718,33.97.622,47.473a6.982,6.982,0,0,0,2.125.83c6.175-11.329,7.229-34.119,5.585-50.9C119.472,87.806,117.4,89.845,115.139,90.3Z" fill="#191919"></path><path d="M109.147,91.724c.265-2.49,5.245-2.656,8.026-4.6-3.461-.108-18.193-.88-19.919,1.577s-1.1,14.457-1.1,17.5C98.25,101.857,104.749,93.7,109.147,91.724Z" fill="#191919"></path><path d="M178.92,127.611c-.7.434-23.354,2.273-28.308,4.282-.731.291-25.239-7-25.314-6.449s-1.021,15.172-1.22,19.653c4.515-.7,5.054-4.589,7.827-2.589,5.344,3.852.547,13.047-.631,15.156s-6.217,1.593-8.648.722c0,.713-2.44,9.834-1.5,10.3s22.409,5.353,23.239,4.88,17.926-4.481,23.654-4.092c.921.066,12.283-15.172,12.756-16.151s1.967-4.839,2.872-7.469a1.845,1.845,0,0,1-2.714-.78c-.623-1.1,1.535-9.81,2.124-10.9,1.2-2.232,2.49-1.368,4.872-3.1,1.046-2.63,7.229-17.61,7.071-18.158S179.629,127.174,178.92,127.611Zm-34.259,43.555c-.083.5-.921.349-.83-.124,1.9-13.2,3.909-28.01,6.141-35.423a.3.3,0,0,1,.582.166C148.769,146.808,146.831,158.083,144.661,171.166Zm34.169-41.107c-1.967,10.581-5.752,20.948-9.553,35.165-.124.465-.9.183-.78-.257,3.2-12.2,6.125-23.015,9.5-35.074a.423.423,0,0,1,.83.166Z" fill="#38a1ff"></path><path d="M26.7,54.309c-.382.006-1.171.05-1,.606,1.378,4.673,2.947,9.287,4.424,13.918-1.129,1.893-4.9,10.557-5.046,10.972-.365,1,.141,1,.83,1.029,6.142.291,11.794.689,17.943.789.133,3.4-.149,6.972.092,8.075.174.772,1.253.54,1.419-.091a62.442,62.442,0,0,0,.415-7.959c2.141,0,17.28.348,18.118-.174S76.372,69.912,75.874,68.867c-2-4.266-7.063-11.4-9.959-15.338C65.409,52.848,30.8,54.251,26.7,54.309ZM63.267,80.37c-11.113.1-24.79,0-36.791-.548.921-2.067,4.307-9.213,4.755-11.238.141-.647-3.776-12.075-4.108-13.113,1.967,0,35.895-.523,37.979-.888,3.56,4.98,6.78,10.424,9.693,14.433Z" fill="#38a1ff"></path><path d="M45.714,13.044c0,1.66-.623,10.632.133,11.818a.681.681,0,0,0,1.162-.049c.689-.988.622-9.819.672-11.62,3.37-.78,3.726-7.436-.656-7.087C43.008,6.454,42.112,11.782,45.714,13.044Z" fill="#38a1ff"></path><path d="M59.931,63.015c-1.95.052-21.039.4-23.064.83a.748.748,0,0,0,.066,1.469c2.921.49,18.757-.282,22.84-.423C60.977,64.858,61.151,62.983,59.931,63.015Z" fill="#38a1ff"></path><path d="M58.943,71.3c-1.469-.44-18.823-.241-20.748,0a.831.831,0,0,0,0,1.569c.921.124,18.881.589,20.748,0A.881.881,0,0,0,58.943,71.3Z" fill="#38a1ff"></path><path d="M80.954,91.541c-21.567-1.292-43.332-.514-64.944-1.394,0,0-8.474,5.428-9.354,5.967-1.8,1.128-2.309,1.18-.635,2.7.864.783,8.122,7.111,10.08,8.589.233.175,24.641-.556,27.347-.581,0,2.673-.324,5.652-.158,6.639.117.731,1.984.889,1.984-.231a59.14,59.14,0,0,0,.1-6.4c3.087,0,33.953.182,34.791,0,.623-.117.631-.648.39-1.054-.722-1.245-4.664-5.279-5.975-6.582,2.157-2.166,4.149-4.473,6.473-6.507C81.493,92.313,81.66,91.583,80.954,91.541ZM67.293,102.513c-7.644.3-37.647.83-44.818-.548-.523-.108-.614-1,0-1,13.155-.074,30.6.449,44.618-.083C68.073,100.845,68.347,102.472,67.293,102.513ZM68.488,97.6c-15.363.119-32.368,1-47.556.083-.656,0-.557-1.1.058-1.112,14.764-.3,32.11-.664,47.365-.689C69.459,95.882,69.6,97.591,68.488,97.6Z" fill="#38a1ff"></path><path d="M56.3,121.038c-5.9-.335-27.389-1.785-29.048-.573a.5.5,0,0,0,0,.78c.224.141,24.94,2.1,28.915,1.1C56.7,122.216,56.868,121.07,56.3,121.038Z" fill="#38a1ff"></path><path d="M22.2,53.488C30.183,50.365,37.248,47.3,45.249,44.2c-.075,1.727-.5,6.325.05,7.943.191.581,1,.432,1.212,0,.39-.9,1.12-7.735.572-8.615,2.017-.78,18.467-6.556,18.765-7.187,1.221.274,6.491-9.96,6.889-10.947.125-.324.274-.731-.2-.938-3.436-1.477-6.88-2.922-10.325-4.382-.049,0-38.227,17.146-41.331,18.4-.183.074.091,3.759.307,7.644C21.4,49.8,21.528,53.751,22.2,53.488Zm4.374-10.242c7.113-4.1,24.185-10.931,32.634-14.3,3.12-1.245,3.66.2,2.706.83-4.009,2.548-29.14,12.549-34.792,14.731a.687.687,0,1,1-.548-1.261Z" fill="#38a1ff"></path><path d="M60.263,115.577c-1.385.27-34.8-1.022-38.676-1.137-.315,0-.357.281-.548.431-.688.5.075,10.025.125,11.088a.629.629,0,0,0,.573.655c3.651.606,38.294,1.544,39.074,1.195,1.029-.456,6.946-5.552,6.888-6.423S61.1,115.413,60.263,115.577Zm.34,11.469c-.738,0-36.626-1.194-38.285-1.66a83.792,83.792,0,0,1-.4-9.727c10.441.183,27.463.7,38.178,1.071.622.174,5.635,4.216,6.44,4.714Z" fill="#38a1ff"></path><path d="M42.8,130.391c-.867,16.14-.764,44.709-1.129,62.379,0,1.062,1.71,1.137,1.884.075.581-3.594,1.4-56,1.079-62.379C44.577,129.445,42.856,129.353,42.8,130.391Z" fill="#38a1ff"></path></svg>