<svg viewBox="0 0 200 200" xmlns="http://www.w3.org/2000/svg"><path d="M159.741,50.045a6.163,6.163,0,0,0-3.648-5.954c-3.431-1.783-23.323-5.245-24.451-5.447-1.635-.292-35.226-6.224-37.389-6.249-7.159-.081-6.238,8.921-6.471,13.1-.66,12.286-.727,23.94-.783,36.246a.35.35,0,0,0,.131.272C86.615,88.8,89,92.392,94.321,94.8c3.586,1.619,20.175,6.6,24.229,7.766.594,1.42,1.066,2.744,1.734,4.215-3.559.974-5.987,1.9-9.316,2.884a1.551,1.551,0,0,0-.287,2.856c5.333,2.766,11.258,4.952,16.8,7.232a7.455,7.455,0,0,0,5.648.043c8.61-3.484,8.426-3.108,9.249-3.908a3.386,3.386,0,0,0,.672-3.959c-.357-.7-1.5-2.884-1.707-3.27,3.973.995,6.53,1.8,8.905,1.86,3.191.09,5.525-1.166,6.6-4.161a19.032,19.032,0,0,0,.82-4.51.6.6,0,0,0,.184-.4C160.422,58.224,159.586,65.753,159.741,50.045Zm-53.089,4.81c2.785.057,4.319.712,6.712,1.251,4.945,1.173,5.618,1.079,9.927,2.408a.4.4,0,0,1-.178.775c-.709-.109-1.416-.2-2.124-.315-5.981-.97-13.132-3.123-14.42-3.4A.364.364,0,0,1,106.652,54.855Zm-2.113,6.558c.439.141.882.24,1.329.343,10.015,2.306,9.307,1.586,14.288,2.984a.4.4,0,0,1-.158.781c-.755-.095-1.5-.152-2.256-.251a86.466,86.466,0,0,1-11.725-2.381,12.84,12.84,0,0,1-1.767-.808A.364.364,0,0,1,104.539,61.413Zm-6.966,6.851c17.965,5.368,9.609,3.043,22.973,6.53,1.363.357,2.706.778,4.074,1.116a.4.4,0,0,1-.173.777,110.769,110.769,0,0,1-13.749-3.2,88.488,88.488,0,0,1-13.373-4.537A.364.364,0,0,1,97.573,68.264ZM97.2,76.071c.276.008.544.014.82.033a57,57,0,0,1,8.341,2.074c.429.151.837.33,1.26.491a.4.4,0,0,1-.194.771,28.2,28.2,0,0,1-5.443-1.248,46.976,46.976,0,0,1-4.914-1.4A.364.364,0,0,1,97.2,76.071Zm44.937,36.3a2.335,2.335,0,0,1-1.369,3.186c-2.969,1.049-5.166,1.945-8.1,3.118a6.258,6.258,0,0,1-4.729-.043c-5.5-2.268-11.481-4.489-16.7-7.18a.342.342,0,0,1,.068-.627c1-.3,8.685-2.866,9.83-3.221a.513.513,0,0,0,.324-.287c.136-.321,0-.33-.745-1.88-.413-.86-.8-1.728-1.21-2.59,6.966,2,13.773,3.791,20.755,5.548C140.5,108.857,141.75,111.507,142.141,112.366Zm13.814-6.34c-1.989,5.064-7.391,3.221-12.306,1.979q-10.194-2.548-20.334-5.363c-5.984-1.673-24.6-7.2-28.514-8.92-4.887-2.146-7.132-5.213-6.931-11.459,1.929.559,66.844,19.069,68.971,19.667A17.631,17.631,0,0,1,155.955,106.026Z" fill="#191919"></path><path d="M50.453,101.1a18.265,18.265,0,0,0-.249-3.929,4.654,4.654,0,0,0-1.72-2.577,24.9,24.9,0,0,0-2.835-1.941,50.1,50.1,0,0,0-6.424-3.105,2.176,2.176,0,0,0-2.54.7c-.775,1.2-.392,3.851-.377,5.856.039,4.876.37,5.012,8.621,9.028C46.3,105.8,48.015,107,49.059,107a1.465,1.465,0,0,0,1.425-1.145C50.747,104.936,50.479,102.54,50.453,101.1Zm-8.017-1.821c-.281.634-1.665-.078-2.124-.3a7.435,7.435,0,0,1-1.025-.567c-.1-.088-.654-.61-.486-.916s.918-.125,1.019-.095a2.8,2.8,0,0,1,.447.192C40.937,97.908,42.72,98.626,42.436,99.275Zm3.761-1.1c-.354-.137-.709-.225-1.062-.361-.931-.354-3.673-1.725-4.575-2.232a9.863,9.863,0,0,1-1.192-.831.364.364,0,0,1,.311-.659c1.852.466,1.8.66,4.425,1.924A9.323,9.323,0,0,1,46.6,97.485.4.4,0,0,1,46.2,98.172Z" fill="#38a1ff"></path><path d="M44.673,106.846c-.151,3.2,4.428,4.63,7.444,6.51,1.312.818,2.7,1.869,4.18,1.194,1.509-.691,1.4-2.714,1.408-4.279.008-1.442.552-3.722-.391-5.126-1.1-1.641-3.355-2.146-4.79-2.728a.4.4,0,0,0-.314.73c1.369.628,3.378,1.47,4.114,2.64.655,1.041.174,3.183.161,4.474-.006.893.132,2.791-.7,3.17-.911.418-2.185-.594-3.025-1.112-3.427-2.113-7.192-3.137-7.36-5.483A.364.364,0,0,0,44.673,106.846Z" fill="#191919"></path><path d="M59.258,42.816a4.093,4.093,0,0,0-4.415,1.534,5.462,5.462,0,0,0-.362,5.565c.846,1.637,2.5,2.9,4.315,2.552C62.813,51.683,63.444,44.414,59.258,42.816Zm-1.13,5.892a.613.613,0,0,1-1.062-.427,20.508,20.508,0,0,1,.262-4.3c.154-.663.233-1.116.615-1.069.335.041.318.278.371,1.154a26.726,26.726,0,0,1,0,2.788c.347-.292.909-.727,1.233-.94,1.055-.7,1.376-.911,1.629-.613C61.727,45.942,59.415,47.3,58.128,48.708Z" fill="#38a1ff"></path><path d="M65.343,47.876c.312.075.64.113.965.174.513.1,1.752.477,1.957-.065.3-.782-1.743-1.2-2.59-1.27-.463-.039-1.214.136-1.249.461C64.387,47.54,65.069,47.809,65.343,47.876Z" fill="#38a1ff"></path><path d="M64.617,51.909a15.335,15.335,0,0,0,2.075.436c.265.024,1,0,1.072-.383.148-.713-1.877-1.035-2.61-1.147-.459-.071-1.209.018-1.277.347S64.513,51.867,64.617,51.909Z" fill="#38a1ff"></path><path d="M54.775,55.453a15.67,15.67,0,0,0,2.265.82c.114.032,7.279,1.868,7.392,1.9.511.124,1.524.311,1.868.382a.4.4,0,0,0,.247-.756c-.488-.22-1.192-.536-1.791-.741-1.458-.5-5.994-1.631-7.661-1.985-.859-.182-1.511-.234-2.132-.319A.364.364,0,0,0,54.775,55.453Z" fill="#38a1ff"></path><path d="M55.627,60.491a25.322,25.322,0,0,0,3.064.927c1.451.208,1.767-.6.062-1.2-.732-.259-2.457-.773-2.794-.822C54.593,59.194,54.328,59.862,55.627,60.491Z" fill="#38a1ff"></path><path d="M56.743,66.577c.1.028,6.412,1.661,6.67,1.722,1.54.372,2.506.557,2.629.074.129-.5-1-.821-2.115-1.159-1.547-.467-5.59-1.543-6.931-1.767-.673-.109-2.08-.342-2.175.138C54.753,65.935,54.979,66.071,56.743,66.577Z" fill="#38a1ff"></path><path d="M55.736,70.338a25.031,25.031,0,0,0,3.211,1.015c.586.083.989.13,1.107-.211.132-.394-.722-.829-.858-.895a28.9,28.9,0,0,0-3.107-1C54.519,69,54.6,69.788,55.736,70.338Z" fill="#38a1ff"></path><path d="M72.3,41.513a3.279,3.279,0,0,0-1.724-1.183c-17.254-4.865-16.43-4.678-16.461-4.577a3.116,3.116,0,0,0-4.005,2.96c-.035,3.561-.177,34.586-.183,38.523a3.328,3.328,0,0,0,1.95,3.029l16.084,7.322a3.334,3.334,0,0,0,4.3-1.421,3.508,3.508,0,0,0,.56-1.587V43.5A3.177,3.177,0,0,0,72.3,41.513ZM51.2,37.682a2.331,2.331,0,0,1,2.718-1.23c-.03.1-.8-.178,16.354,4.95a2.153,2.153,0,0,1,1.538,2.092L71.477,81.22c-4.717-2.274-17.141-7.238-20.328-8.26C51.162,37.666,50.674,38.761,51.2,37.682Zm19.989,47.89a2.105,2.105,0,0,1-1.693,1.079c-.755.055.427.467-17.106-7.5a2.106,2.106,0,0,1-1.236-1.919c0-.868,0-2.029,0-3.41,3.831,1.9,16.883,7.173,20.319,8.32C71.446,84.669,71.526,84.954,71.185,85.572Z" fill="#191919"></path><path d="M56.907,35.575c2.469.1,3.31.986,13.536,3.585,1.356.344,3.349.9,4.048,2.11,1.161,2.007.414,5.581.315,7.876-.246,5.676-.589,11.613-.625,17.481-.031,5.013-.339,9.292-.282,14.467.029,2.61.584,4.872-1.939,5.932a.4.4,0,0,0,.3.736c3.05-1.212,2.659-3.7,2.714-6.664.025-1.345.907-28.409,1.056-31.9.165-3.816,1.358-8.173-2.238-10.123a13.41,13.41,0,0,0-3.058-1.07c-11.842-2.983-12.1-3.129-13.8-3.159A.364.364,0,0,0,56.907,35.575Z" fill="#191919"></path><path d="M169.988,77.592a7.189,7.189,0,0,0,.86.674,22.746,22.746,0,0,0,2.26,1.091,10.647,10.647,0,0,0,3.405,1.1.4.4,0,0,0,.265-.75c-.336-.182-.645-.388-.993-.555-.669-.322-1.376-.569-2.064-.866-3.357-1.446-1.815-.884-3.393-1.334A.364.364,0,0,0,169.988,77.592Z" fill="#38a1ff"></path><path d="M170.1,83.285c7.326,3.012,1.633.6,7.489,2.951,6.222,2.494,5.162,2.149,8.209,3.079a.4.4,0,0,0,.288-.741c-.641-.3-1.266-.626-1.913-.925-1.805-.837-9.446-4.058-12.613-4.8-.417-.1-.831-.181-1.25-.264A.364.364,0,0,0,170.1,83.285Z" fill="#38a1ff"></path><path d="M169.836,89.463a5.5,5.5,0,0,0,.719.536,36.668,36.668,0,0,0,3.419,1.378,5.311,5.311,0,0,0,1.18.27.4.4,0,0,0,.311-.73,6.1,6.1,0,0,0-2.066-1.06c-2.829-1.123-2.275-.891-3.266-1.06A.365.365,0,0,0,169.836,89.463Z" fill="#38a1ff"></path><path d="M172.575,112.29a62.591,62.591,0,0,1,4.136-7.98.615.615,0,0,1,1.116.105c1.2,3.492,2.524,6.557,3.72,10.135,1-2.942,2.394-6.339,3.013-8.71a.4.4,0,0,1,.773.188c-1,4.474-2.113,7-3.219,10.665a.6.6,0,0,1-1.149,0c-1.043-3.481-2.606-7.141-3.854-10.608a44.57,44.57,0,0,0-3.806,7.745.6.6,0,0,1-1.083.136,32.95,32.95,0,0,1-3.13-5.534l-1.144,2.907a.364.364,0,0,1-.685-.245l1.392-4.369a.516.516,0,0,1,.984.035A24.1,24.1,0,0,0,172.575,112.29Z" fill="#38a1ff"></path><path d="M176.919,99.761A4.964,4.964,0,0,0,174.4,97.6a11.678,11.678,0,0,0-3.384-1.047c-.514,0-1.239.175-1.3.711a4.324,4.324,0,0,0,.179,2.759c.633.943,1.872,1.276,2.827,1.693.831.359,1.892,1.04,2.732.953,1.194-.117,1.472-1.291,1.386-2.483A.361.361,0,0,0,176.919,99.761Z" fill="#38a1ff"></path><path d="M184.869,121.236c.067-1.411.092-5.535.734-11.393.235-2.169.51-4.07.627-4.613a.4.4,0,0,1,.78.153c-.031.2-.062.59-.1,1.112-1.187,16.463-.535,15.925-1.2,16.277-.45.241-.5-.062-2.493-.963-1-.453-2.021-.867-3-1.307-1-.447-9.253-4.469-10.2-4.959-.642-.333-1.261-.7-1.873-1.07a.363.363,0,0,1,.361-.631c1.134.611,3.51,1.494,4.848,2.092,1.735.774,6.621,3.122,7.361,3.454C182.039,119.978,183.568,120.574,184.869,121.236Z" fill="#191919"></path><path d="M98.7,53.877a24.816,24.816,0,0,0,3.309.63c.63.03.985.039,1.075-.288.246-.863-2.971-1.285-3.861-1.421C97.414,52.523,97.409,53.384,98.7,53.877Z" fill="#38a1ff"></path><path d="M98.3,60.717a15.4,15.4,0,0,0,2.851.721c.117.007,1.037.041,1.118-.35.148-.714-1.936-1.06-3.048-1.336a5.108,5.108,0,0,0-.6-.133c-.18-.022-.992-.084-1.1.258S98.2,60.667,98.3,60.717Z" fill="#38a1ff"></path><path d="M99.788,45.39c1.055.1,3.325.586,4.023.725,3.542.7,5.088.742,8.468,1.2,4.436.6,10.057,1.966,15.136,2.9,2.228.409,3.759.561,5.524.8a.4.4,0,0,0,.123-.785s-14.23-3.053-18.147-3.751c-2.679-.474-5.417-.7-8.216-1.063a61.343,61.343,0,0,0-6.858-.755A.364.364,0,0,0,99.788,45.39Z" fill="#38a1ff"></path><path d="M139.73,70.074c8.737,1.953,4.627.925,8.544,1.943.627-3.01.371-6.762-1.422-9.249C143.988,65.82,142,68.111,139.73,70.074Z" fill="#38a1ff"></path><path d="M138.917,69.157c2.633-2.278,3.234-3.408,7.417-7.032a11.2,11.2,0,0,0-8.744-3.272C137.63,59.246,138.509,66.859,138.917,69.157Z" fill="#38a1ff"></path><path d="M146.268,72.7a80.054,80.054,0,0,1-7.972-1.827.617.617,0,0,1-.392-.458c-.357-1.818-.612-3.657-.806-5.505a48.109,48.109,0,0,1-.285-6.016c-5.873.494-8.616,5.765-8.217,11.67A10.738,10.738,0,0,0,142.168,79.9c3.123-.954,5.047-3.9,5.9-7.018C147.964,72.874,146.547,72.741,146.268,72.7Z" fill="#38a1ff"></path><path d="M122.443,107.991c2.559,1.325,3.188,1.473,10.9,3.9,1.685.53,1.762.5,2.951.821a.4.4,0,0,0,.274-.746,25.92,25.92,0,0,0-4.1-1.627c-2.264-.753-7.584-2.46-7.977-2.57-.594-.167-1.188-.3-1.784-.46A.364.364,0,0,0,122.443,107.991Z" fill="#191919"></path><path d="M133.469,148.279a2.25,2.25,0,0,0,.2-3.957c-2.967-1.828-14.2-8.912-15.449-9.576a3.936,3.936,0,0,0-3.92.235c-2.027,1.3-11.2,7.132-11.2,7.132a2.255,2.255,0,0,0-.055,3.619c1.691,1.282,11.22,8.226,12.763,9.327a3.793,3.793,0,0,0,3.935.3C119.746,155.566,131.7,149.114,133.469,148.279ZM117.638,135.83a2.787,2.787,0,0,0-2.678.184c-11.9,7.6-11.25,7.035-11.467,7.446a1.039,1.039,0,0,0-.015.94c.223.465-.063-.038,12.861,9.945a2.971,2.971,0,0,0,3.073.357l0-.029c4.508-2.33,9.029-5.287,13.549-7.464a1.055,1.055,0,0,0,.081-1.862C130.058,143.524,118.857,136.515,117.638,135.83Z" fill="#191919"></path><path d="M134.518,148.4A10.424,10.424,0,0,1,133.1,150.3c-1.175,1.072-3.1,1.393-4.65,1.971-3.358,1.255-3.767,1.107-7.743,2.868a.4.4,0,0,0,.266.747,70.542,70.542,0,0,0,7.9-2.464c2.061-.765,4.6-1.094,5.676-3.254.233-.468.4-.971.6-1.423A.364.364,0,0,0,134.518,148.4Z" fill="#191919"></path><path d="M159.582,45.282c2.9,1.663,3.014,5.508,2.759,8.835-2.926,38.529.172-6.288-2.119,30.983-.221,3.6-.478,7.193-.8,10.783-.243,2.712-.245,6-.954,8.739-1.228,4.736-3.483,4.546-2.891,5.33a.4.4,0,0,0,.557.078c4.168-3.089,4.015-9.187,4.476-14.036.342-3.6.6-7.209.829-10.819,2.6-41.68,1.815-26.762,2.048-30.982.208-3.751-.24-7.746-3.551-9.547A.364.364,0,0,0,159.582,45.282Z" fill="#191919"></path><path d="M189.116,130.764c-.1,0,1.191-13.579,1.756-21.274.269-3.68,1.872-25.952,1.108-29.591-.74-3.527-3.334-4.352-6.537-5.515-3.285-1.192-6.683-2.353-10.046-3.351-1.888-.56-3.876-1.679-5.972-1.153a4.67,4.67,0,0,0-3.231,3.058c-1.155,2.9-.73,7.259-.709,9.6.09,10-.4,20-.2,30.011.076,3.757-.937,8.9,1.9,12.129a16.511,16.511,0,0,0,4.3,3.027C176.716,130.77,188.723,136.853,189.116,130.764Zm-.758-.058h-.034c-.4,4.889-12.083-1.419-16.28-3.951a16.185,16.185,0,0,1-3.992-2.835c-2.466-2.854-1.5-7.69-1.573-11.393-.037-2,.295-22,.229-30-.015-1.924-.343-5.269.263-7.937,1.3-5.723,5.706-3.087,8.077-2.384,3.374,1,6.669,2.125,9.977,3.326,2.852,1.034,5.136,1.64,5.763,4.615C191.8,84.984,188.25,130.706,188.358,130.706Z" fill="#191919"></path><path d="M175.955,69.717c3.184.905,14,4.114,16.077,6.665,2.25,2.768,1.764,7.388,1.568,10.951-.128,2.351-2.885,37.691-3.04,39.266-.181,1.837.013,4.67-1.169,6.134a.4.4,0,0,0,.614.5c1.444-1.738,1.315-4.52,1.572-6.52.916-7.124,3.183-38.21,3.243-39.317.214-3.97.67-8.693-1.858-11.774-2.613-3.185-13.284-5.692-16.815-6.611A.364.364,0,0,0,175.955,69.717Z" fill="#191919"></path><path d="M51.15,114.127c-1.412,1.6-.371,3.529,1.254,4.881,3.318,2.76,18,12.968,23.835,16.5,2.206,1.336,4.684,2.768,7.246,2.423,4.831-.654,10.372-4.368,14.6-6.465,10.249-5.079,14.684-6.672,13.1-9.632-1.846-3.512-34.953-18.71-39.26-18.416a6.557,6.557,0,0,0-2.049.52c-2.892,1.2-9.164,5.548-10.467,6.405a.4.4,0,0,0,.431.67c10.844-6.891,11.282-6.924,13.875-6.2,7.986,2.237,34.971,14.915,36.391,17.6.861,1.605-2.208,2.816-12.568,7.959-4.157,2.062-9.65,5.729-14.224,6.355-2.223.3-4.549-1.1-6.46-2.247-3.661-2.2-20.938-13.775-23.914-16.136-1.284-1.018-2.312-2.492-1.245-3.742A.364.364,0,0,0,51.15,114.127Z" fill="#191919"></path><path d="M111.692,125.654c-.427,4.242-4.8,4.475-8.566,5.613A101.994,101.994,0,0,0,92.032,135.5a.4.4,0,0,0,.27.747c5.662-1.73,7.441-2.686,11.177-3.8,3.929-1.176,9.09-1.559,8.94-6.763A.364.364,0,0,0,111.692,125.654Z" fill="#191919"></path><path d="M80.609,116.268c-1.1-.616-2.2-1.246-3.314-1.875-1.146.77-1.7,1.125-2.82,1.919.931.524,3.132,1.736,3.3,1.825C78.58,117.576,79.831,116.753,80.609,116.268Z" fill="#38a1ff"></path><path d="M85.261,118.752c-1.134-.6-2.272-1.195-3.4-1.8-1.362.853-1.752,1.088-2.867,1.844.894.477,3.159,1.707,3.4,1.842C82.693,120.432,84.6,119.168,85.261,118.752Z" fill="#38a1ff"></path><path d="M76.089,113.712c-.413-.232-3-1.67-3.389-1.881-1.035.594-2.079,1.191-3.1,1.819,1.14.563,2.43,1.285,3.692,1.994C73.863,115.235,75.281,114.239,76.089,113.712Z" fill="#38a1ff"></path><path d="M86.516,119.424c-1.29.818-1.8,1.13-2.938,1.9,1.388.824,2.568,1.568,3.769,2.364.989-.64,1.98-1.256,3.173-1.955C88.844,120.732,88.38,120.434,86.516,119.424Z" fill="#38a1ff"></path><path d="M100.684,120.584c-4.652-2.721-9.195-4.593-13.716-6.8-4.445-2.12-8.458-4.717-13.251-6.161-3.5-1.05-7.217,2.229-9.995,4.277-1.35,1-3.074,2.172-2.429,3.831a5.677,5.677,0,0,0,2.054,2.208c3.906,2.969,5.8,3.79,12.746,7.71,3.438,1.939,7.494,4.766,11.4,4.044,2.5-.459,9.006-3.287,12.077-4.819a6.135,6.135,0,0,0,2.293-1.606C102.389,122.472,102.308,121.5,100.684,120.584Zm-5.939,3.33c-1.525-.691-2.12-1-3-1.483-1.328.8-2.21,1.305-3.29,2,.635.427,1.262.868,1.921,1.256a.4.4,0,0,1-.389.693c-.831-.441-1.674-.859-2.5-1.32-3.5,2.321-2.838,1.844-3.467,2.258a.364.364,0,0,1-.47-.556,13.568,13.568,0,0,1,2.748-2.384c-1.335-.788-2.148-1.33-3.836-2.3a40.623,40.623,0,0,1-4.038,2.653.364.364,0,0,1-.449-.573,19.015,19.015,0,0,1,3.3-2.747c-.065-.036-2.341-1.26-3.416-1.834-.361.253-1.8,1.3-2.165,1.56-.511.358-1.322.862-1.623,1.06a.365.365,0,0,1-.474-.555,16.207,16.207,0,0,1,3.064-2.712q-1.647-.907-3.282-1.833a26.386,26.386,0,0,1-3.756,2.477.364.364,0,0,1-.441-.579,19.126,19.126,0,0,1,3.025-2.566c-.716-.411-2.5-1.449-3.622-2.145-1.37.885-1.563,1.081-3.038,1.977-.293.179-.584.342-.875.523a.365.365,0,0,1-.456-.569,15.56,15.56,0,0,1,3.224-2.644c-.319-.2-.638-.395-.961-.589a.364.364,0,0,1,.34-.643c.492.226.982.452,1.469.682,1.025-.656,2.072-1.29,3.134-1.88-.388-.206-.778-.407-1.173-.6a.365.365,0,0,1,.283-.672c.728.275,1.14.407,1.9.724a20.492,20.492,0,0,1,2.655-1.181.4.4,0,0,1,.365.707c-.587.381-1.066.721-1.655,1.074,1.187.548,2.319,1.151,3.468,1.789a19.572,19.572,0,0,1,2.01-.993.4.4,0,0,1,.4.685c-.262.194-1.1.831-1.268.95.956.541,3.229,1.814,3.415,1.916a22.259,22.259,0,0,1,2.544-1.233.4.4,0,0,1,.389.693c-.533.365-1.045.758-1.593,1.117-.206.135-.488-.142,3.3,1.9a24.823,24.823,0,0,1,2.656-1.344.4.4,0,1,1,.4.685c-.126.092-1.21.9-1.741,1.249-.252.167-.21-.17,3.878,2.466a30.63,30.63,0,0,1,2.775-1.41.4.4,0,1,1,.416.678,22.043,22.043,0,0,1-2.071,1.461c.758.492,1.523.967,2.309,1.4A.4.4,0,0,1,94.745,123.914Z" fill="#38a1ff"></path><path d="M47.688,128.151c1.564,1.475.882.767,5.512,4.085,1.34.96,1.715,1.007,2.38,1.462a.4.4,0,0,0,.53-.592,10.6,10.6,0,0,0-2.2-1.847c-1.194-.882-3.655-2.637-4.687-3.186-.373-.2-.754-.351-1.136-.53A.364.364,0,0,0,47.688,128.151Z" fill="#38a1ff"></path><path d="M45.253,129.879c.89.93.769.96,6.054,4.568a16.754,16.754,0,0,0,1.722,1.033.4.4,0,1,0,.484-.629c-.358-.365-.734-.744-1.128-1.074-.795-.652-4.256-3.058-5.177-3.654a15.872,15.872,0,0,0-1.52-.827A.364.364,0,0,0,45.253,129.879Z" fill="#38a1ff"></path><path d="M34.844,129.457a4.75,4.75,0,0,1,4.54,2.163c.883,1.407,1.2,3.843,4.813,5.5,2.361,1.074,5.283.164,7.071,1.712,1.191,1.032.413,3.64,2.313,4.819a5.785,5.785,0,0,0,3.341.569,5.682,5.682,0,0,1,3.825,1.076.4.4,0,0,0,.559-.567,6.315,6.315,0,0,0-4.363-1.627,5.58,5.58,0,0,1-2.726-.46c-1.742-1.106.188-4.8-4.438-5.833-1.665-.371-3.663-.16-5.073-.8-3.249-1.478-3.325-3.527-4.34-5.024a5.428,5.428,0,0,0-5.646-2.241A.364.364,0,0,0,34.844,129.457Z" fill="#38a1ff"></path><path d="M56.209,149.388c1.661-.564,3.288-1.635,11.963-4.629a.4.4,0,0,1,.27.748c-2.264.85-10.676,4.662-12.165,5.127a.6.6,0,0,1-.541-.093c-13.626-10.226-10.347-7.98-20.519-16.674-2.645-2.261-3.119-2.4-6.064-5.062a.364.364,0,0,1,.48-.548c1.6,1.356,3.386,2.48,5.071,3.734,2.309,1.721,9.983,8.482,11.757,9.92C49.6,144.458,52.645,146.7,56.209,149.388Z" fill="#191919"></path><path d="M25.8,131.8c.252.281,1.769,1.548,2.192,1.883,1.4,1.127,1.922.434.983-.691a22.136,22.136,0,0,0-2.058-1.792c-.405-.311-1.3-.813-1.556-.511S25.694,131.68,25.8,131.8Z" fill="#38a1ff"></path><path d="M24.272,133.892c.228.226,1.358,1.565,1.851,1.157.691-.572-1.528-2.652-2.025-2.934-.1-.054-.861-.4-1.074-.136C22.637,132.469,23.932,133.551,24.272,133.892Z" fill="#191919"></path><path d="M21.152,133.735a20.639,20.639,0,0,0,1.614,1.534c.308.259.906.668,1.2.394.517-.48-.727-1.614-1.106-1.969a10.607,10.607,0,0,0-.93-.8c-.1-.06-.811-.426-1.035-.192C20.656,132.953,21.077,133.632,21.152,133.735Z" fill="#191919"></path><path d="M33.825,139.5a17.968,17.968,0,0,0,1.973,2.214c1.092.858,1.769.329.683-.981-.362-.441-1.569-1.791-1.784-1.974-.1-.087-.792-.628-1.076-.391S33.756,139.384,33.825,139.5Z" fill="#38a1ff"></path><path d="M32.275,140.981c.245.26.519.487.779.728.216.2,1.349,1.447,1.833,1.009.6-.539-1.092-2.045-1.685-2.514-.37-.294-1.1-.629-1.336-.347S32.031,140.721,32.275,140.981Z" fill="#191919"></path><path d="M30.478,143.132a11.811,11.811,0,0,0,.955.916c1.183.915,1.723.292.784-.871a14.828,14.828,0,0,0-2.048-1.948c-.208-.136-.942-.512-1.177-.219C28.6,141.5,30.022,142.694,30.478,143.132Z" fill="#191919"></path><path d="M47.8,150.687c-.165-1.626-2.316-3.407-3.166-3.9a5.254,5.254,0,0,0-6.7,1.344c-1.347,2.1.124,5.435,4.113,5.937C44.71,154.4,48.078,153.38,47.8,150.687Zm-8.481.747c-2.313-2.985,2.087-5.261,5.2-3.511a14.243,14.243,0,0,0-2.568,1,.612.612,0,0,0-.132,1,30.779,30.779,0,0,0,3.331,2.661C43.328,153.224,40.509,152.972,39.321,151.434Zm6.826.626a36.231,36.231,0,0,0-2.81-2.433,10.6,10.6,0,0,0,2.117-1.034,5.791,5.791,0,0,1,.787.855.364.364,0,0,0,.148.128A1.888,1.888,0,0,1,46.147,152.06Z" fill="#38a1ff"></path><path d="M155.555,127.657c-3.821-4.084-3.119-10.4-3.008-15.938a.364.364,0,0,0-.728-.023c-.258,5.921-1.106,12.231,2.926,16.7,3.217,3.548,16.2,7.564,9.6,13.055-2.126,1.769-7.848,4.767-11.252,6.3-13.325,6.016-22.409,7.853-31.491,10.921-17.986,6.095-33.688,12.034-50.666,3.516,1.59-1.073,1.622-2.55-.865-3.8.985-.459,1.91-.886,2.757-1.255,3.656-1.6,12.466-3.7,8.143-9.671a12.889,12.889,0,0,0-2.113-2.128.4.4,0,0,0-.561.035c-1.392-1.066-2.8-2.1-4.227-3.126-19.927-14.341-24.364-17.776-30.51-21.426-3.071-1.823-7.081-.725-10.541.161-1.868.48-14.416,3.416-18.8,4.464a20.421,20.421,0,0,0-6.064,2.105c-3.7,2.4-1.873,5.662,1.2,8.851,4.451,4.626,11.766,9.542,13.413,10.774,4.947,3.689,12.843,11.421,21.138,16.213,5.257,3.04,12.818.723,18.444-1.546,1.738,1.97,4.02,2.647,7.752.825,17.508,9.451,33.189,3.462,51.891-2.831,7.011-2.365,26.261-7.2,39.07-14.818,2.182-1.3,5.315-2.939,6.147-5.384C169.083,134.106,158.183,130.485,155.555,127.657ZM44.5,162.348C37.692,158.4,31.465,152.679,25.3,147.6c-3.09-2.531-6.056-4.295-9.047-6.745-2.327-1.9-8.15-6.5-8.85-9.455-.711-3,4.108-4.056,7.1-4.771,4.382-1.048,16.943-3.994,18.816-4.477,3.041-.781,6.922-1.9,9.629-.3,6.575,3.887,12.953,8.817,19.414,13.393,3.71,2.608,14.4,9.908,15.953,11.065a.365.365,0,0,0,.439,0c.284.257.565.519.83.794.933.969,1.857,2.44,1.6,3.767-.545,2.82-6.155,4.2-8.77,5.3C64.869,159.36,51.856,166.608,44.5,162.348Zm24.215-2.343c-.355.147-.732.252-1.1.373-.5.165-1.928.79-2.192.229-.361-.767,1.923-1.465,2.742-1.684.476-.124,1.3-.169,1.419.183S69.066,159.86,68.719,160.005Z" fill="#191919"></path><path d="M5.016,133.676c.769,2.7,2.585,4.423,4.508,6.445,8,8.412,25.965,22.361,30.263,24.636,5.883,3.113,9.288,2.333,15.092,1.6a25.268,25.268,0,0,0,7.285-2.132.4.4,0,0,0-.312-.73,25.338,25.338,0,0,1-7.091,1.8c-12.015,1.2-11.779,1.749-34.217-16.693-3.246-2.669-5.762-4.928-8.273-7.312a65.46,65.46,0,0,1-5.151-5.225,8.284,8.284,0,0,1-1.407-2.592A.364.364,0,0,0,5.016,133.676Z" fill="#191919"></path><path d="M82.089,153.046c-.319.287-1.071.881-1.272,1.048-2.988,2.5-3.933,2.331-7.51,4.338a.4.4,0,0,0,.3.734c.606-.171,1.261-.331,1.841-.558a18.16,18.16,0,0,0,6.156-3.671,7.608,7.608,0,0,0,1.043-1.431A.364.364,0,0,0,82.089,153.046Z" fill="#191919"></path></svg>