<svg viewBox="0 0 200 200" xmlns="http://www.w3.org/2000/svg"><path d="M79.544,103.007c-2.544,1.818-5.81,2.2-8.279,3.877a4.343,4.343,0,0,0-1.938,2.358c-.053.419,5.3,5.248,5.816,4.768,3.635-3.38,4.567-5.456,5.973-9.746A1.082,1.082,0,0,0,79.544,103.007Zm-6.969,5.92c-.052-.052-.105-.052,0,0Z" fill="#38a1ff"></path><path d="M131.26,80.319a.9.9,0,0,0-1.729.471c3.413,12.2,4.063,25.668-3.721,35.787a23.109,23.109,0,0,0-4.4-5.973c-4.545-4.365-10.119-5.222-16.348-4.768A49.51,49.51,0,0,0,82.793,112.7c-.524.262-.053,1.048.471.786l1.886-.943a8.108,8.108,0,0,0-.524,1.415c-.711,3.1.05,8.394,3.721,9.221a5.845,5.845,0,0,0,4.191-.681,12.556,12.556,0,0,0,3.092-2.934c5.244-6.143,12.14-1.081,16.767-4.087a6.966,6.966,0,0,0,3.091-6.759c10.461,3.8,15.616,23.291,10.794,33.429-3.3,6.948-11.6,11.119-18.758,13.885a58.486,58.486,0,0,1-13.2,3.616c-.786.108-2.965.671-3.406-.262-.45-.954.466-1.948,1.2-2.411,2.075-1.3,3.484-1.34,7.493-4.191,2.245-1.6,4.844-3.629,4.139-6.34-.833-3.2-5.832-3.988-8.645-6.183a5.51,5.51,0,0,1-1.782-6.288c1.264-4.139,5.3-6.03,8.279-8.017a.705.705,0,0,0-.733-1.2c-4.828,2.132-10.513,6.181-9.8,12.209.323,2.723,2.1,4.608,4.4,5.921,3.483,1.984,9.415,3.236,4.349,7.178-7.447,5.794-8.831,3.723-10.847,7.755a44.421,44.421,0,0,1-13.832,4.768c.262-.734.466-1.521.681-2.253a.486.486,0,0,0-.891-.367c-2.169,4.26-4.448,9.074-8.593,11.789-2.737,1.794-6.275,2.439-9.536,3.092.145-2.47-2.728-6.831-7.179-7.755a37.7,37.7,0,0,0,6.026-2.672c.84-.522.267-2.033-.681-1.625a138.714,138.714,0,0,1-13.257,5.135,25.5,25.5,0,0,0-7.545,3.3c-5.08,3.652-4.087,6.931-1.1,7.965-.946-2.049-.424-4.476,3.039-6.236.418-.212.891.315.524.629a7.525,7.525,0,0,0-1.939,2.149,2.8,2.8,0,0,0,2.934,4.139,5.488,5.488,0,0,1,.158-4.663,3.479,3.479,0,0,1,2.095-1.782.489.489,0,0,1,.367.891c-1.323.728-1.592,4.422-.681,5.03,4.065,0,20.435-2.307,25.989-4.873,4.555-2.1,7.545-6.445,9.327-11.056a32.664,32.664,0,0,0,7.807-1.414,32.191,32.191,0,0,0,6.183-2.62c.431,2.375,2.3,2.614,4.506,2.358a54.189,54.189,0,0,0,9.536-1.992,70.915,70.915,0,0,0,16.819-7.7c4.671-3.166,8.058-6.984,9.484-12.418a28.87,28.87,0,0,0,.472-11.58c3.573-4.3,7.438-13.025,8.069-19.7C139.011,95.074,133.505,87.869,131.26,80.319Z" fill="#191919"></path><path d="M81.587,144.924c1.811.5,3.9.154,8.07,1.153,10.227,2.45,23.233,12.033,31.438,10.479a1.419,1.419,0,0,0,0-2.724c-2.25-.433-3.732-.174-8.174-1.625-6.917-2.259-14.391-7.052-22.216-8.7-2.637-.554-6.893-1.029-9.327.053A.763.763,0,0,0,81.587,144.924Z" fill="#38a1ff"></path><path d="M84.155,96.614a4.343,4.343,0,0,0-3.144.419c-4.907,1.852-10.445,3.951-13.728,8.017a.519.519,0,0,0,.734.734c4.231-3.464,9.394-5.612,14.566-7.284a1.255,1.255,0,0,1,1.781,1.31,18.408,18.408,0,0,1-.576,2.516c-.216.836-.408,1.679-.629,2.514a18.3,18.3,0,0,1-7.23,10.218c-3.709-5.638-8.263-8.305-14.776-9.17a17.929,17.929,0,0,0-11.423,1.887c-.364.213-.1.943.315.733a21.631,21.631,0,0,1,18.6,1.624c4.633,3.018,7.946,8.826,8.436,12.628.372,2.881-1.412,5.4-1.781,8.227-.417,3.2,1.528,5.915,3.039,8.54,1.264,2.2,3.129,5.284,1.729,7.807-1.536,2.768-5.447,3.549-8.331,3.039-7.692-1.36-12.086-9.463-17.448-10.531a.758.758,0,0,0-.732,1.255c.644,1.555,3.151,6.135,5.709,6.395a5.1,5.1,0,0,0,2.255-.354c.5.444.887.786,1.643,1.375a8.407,8.407,0,0,1-4.683.026c-2.461-.481-4.3-1.991-6.183-3.458-.21-.209-.42.105-.315.262a10.621,10.621,0,0,0,6.393,4.664c2.087.472,4.5.717,6.42-.329,6.15,4.041,11.67,3.468,15.22.748,2.728-2.091,3.009-5.459,1.781-8.488-1.363-3.365-3.646-6.034-4.349-8.384-1.007-3.366,1.624-6.393,1.624-9.694a15.488,15.488,0,0,0-2.148-7.125c3.632-1.863,6.823-7.059,7.965-11.056A38.488,38.488,0,0,0,86.2,100.02,3.182,3.182,0,0,0,84.155,96.614Z" fill="#191919"></path><path d="M57.59,130.41c-1.164,1.511,1.152,3.406,2.3,1.834C61.033,130.879,58.814,128.821,57.59,130.41Z" fill="#191919"></path><path d="M71,128.419c-1.164,1.511,1.153,3.406,2.306,1.834C74.453,128.88,72.227,126.83,71,128.419Z" fill="#191919"></path><path d="M57.013,143.719a24.976,24.976,0,0,0-3.2.419c-4.821.817-9.877,2.652-16.557,7.336-5.571,3.906-11.947,9.225-19.23,8.226a11.995,11.995,0,0,1-7.7-19.649c5.2-5.988,13.7-3.572,18.234-18.234.211-.681-.8-.895-1.048-.262-1.87,4.734-4.667,9.006-9.327,11.213-3.2,1.515-6.656,2.776-9.169,5.344a14.341,14.341,0,0,0,5.449,23.422c7.24,2.859,14.733-.877,20.644-4.978,7.451-5.168,11.918-8.91,22.374-9.955C59,146.45,58.4,143.873,57.013,143.719Z" fill="#38a1ff"></path><path d="M123.3,154.565a10.792,10.792,0,0,0,3.144-.629,13.479,13.479,0,0,0,2.83-.943c.528-.307.314-1.262-.315-1.2a13.415,13.415,0,0,0-3.091.891,11.321,11.321,0,0,0-2.777,1.153A.387.387,0,0,0,123.3,154.565Z" fill="#191919"></path><path d="M124.134,156.818c3.879,1.253,3.88,1.406,4.349,1.258.685-.217.387-.948-.053-1.1-1.315-.456-2.734-.7-4.034-1.1A.489.489,0,1,0,124.134,156.818Z" fill="#191919"></path><path d="M123.191,157.866c.471.629.933,1.266,1.467,1.886a6.2,6.2,0,0,0,1.519,1.572.549.549,0,0,0,.734-.733c-.629-1.258-2.1-2.148-2.987-3.3a.468.468,0,0,0-.733.576Z" fill="#191919"></path><path d="M48.315,42.7c-9.717-.533-19.794.247-22.792.838-.262.052-.577.314-.577.576-.257,1.543-1.781,9.168-1.781,12.156,0,.577.738.579.943.1,1.248-2.884,1.393-8.048,2.358-11.265a126.716,126.716,0,0,1,20.906-.681,165.712,165.712,0,0,1-4.4,26.355c.262.066-14.512-1.447-19.963-2.095a1,1,0,0,0,0,1.991c5.763.733,11.558,1.207,17.366,1.9,1.207.144,2.989.591,3.959-.432.464-.489.565-1.039,1.415-4.821a180.141,180.141,0,0,0,3.511-23.736A.967.967,0,0,0,48.315,42.7Z" fill="#191919"></path><path d="M116.484,36.62c-.1,7.914-1.2,57.689-1.2,58.737a14.48,14.48,0,0,0,.157,3.2.855.855,0,0,0,1.624,0,23.767,23.767,0,0,0,.315-5.449c.632-22.679-.1-56.332-.105-56.432C117.165,36.2,116.489,36.2,116.484,36.62Z" fill="#191919"></path><path d="M174.644,29.127c-.351.106-21.938,9.274-23.316,9.274-9.045-2.986-22.028-6.283-31.176-7.178,27.216-9.073,30.622-8.356,33.534-9.327.252-.084,2.779-2.334-3.668-1.048a189.258,189.258,0,0,0-32.643,10.06c-.682-.052-.784,1.034-.158,1.153,12.666,2.4,20.761,4,32.906,7.964,1.018,43.529-1.973,63.428-1.625,69.112.052.838,1.321,1.1,1.52.21a46.207,46.207,0,0,0,.733-6.864c1.683-24.4,1.8-41.853,1.363-62.929.1-.041,20.443-7.467,23.159-9.065A.757.757,0,0,0,174.644,29.127Z" fill="#191919"></path><path d="M183.342,22.42a.9.9,0,0,0-.89-.891c-4.824-.095-1.722-.232-24-1.414-.787-.042-.736,1.118,0,1.205,3.971.466,19.387,1.624,23.107,1.991-1.153,31.906.395,20.79-5.554,69.216a.979.979,0,0,0,1.886.524C180.621,78.166,183.72,47.383,183.342,22.42Z" fill="#191919"></path><path d="M153.371,111.128A106.375,106.375,0,0,0,171.605,100.6c4.171-3.012,4.973-3.432,5.4-4.4.254-.58-.417-.986-.89-.891a3.983,3.983,0,0,0-1.468.891c-11.814,8.861-12.928,8.731-21.692,13.99C152.428,110.447,152.79,111.379,153.371,111.128Z" fill="#191919"></path><path d="M136.814,150.426c2.784,2.115,2.977,3.132,3.72,2.829,1.567-.64-2.725-3.3-3.144-3.51C136.907,149.5,136.435,150.138,136.814,150.426Z" fill="#191919"></path><path d="M135.294,155.351c.737.254,4.156,1.1,4.454-.157.222-.94-3.668-.838-4.139-.891A.547.547,0,1,0,135.294,155.351Z" fill="#191919"></path><path d="M137.338,161.429c.643-.475,3.674-2.476,4.034-3.2.315-.786-.624-.623-1-.367-1.244.859-2.361,1.777-3.563,2.672a.581.581,0,0,0-.21.734C136.761,161.482,137.128,161.639,137.338,161.429Z" fill="#191919"></path><path d="M73.78,140.366a3.6,3.6,0,0,0-2.41,2.3c-2.21,4.677,1.268,6.715,5.345,4.768a5.943,5.943,0,0,0,2.253-1.886C80.565,143.3,77.95,139.442,73.78,140.366Zm3.93,3.667a.82.82,0,0,1-1.153,0c-.366-.262-.524-.786-.943-.995-.666-.222-1.558.022-2.043-.21-.932-.444,1.122-2.194,3.144-1.362C77.8,142.008,78.471,143.133,77.71,144.033Z" fill="#191919"></path><path d="M45.958,110.447c-.524-.472-4.245-2.725-4.821-2.62-.524.157-2.888,3.247-2.987,3.615-.167.627,3.556,4.361,4.3,4.821a1.678,1.678,0,0,0,1.624-.314c.577-.472,3.092-2.62,3.092-3.563C47.215,111.6,46.534,111.023,45.958,110.447Z" fill="#38a1ff"></path><path d="M50.359,111.285a37.531,37.531,0,0,0-4.454-6.078c-6.213-7.015-8.059-1.381-20.7,1.625a1,1,0,0,0-.576,1.467A57.519,57.519,0,0,1,28.2,118.464a1,1,0,0,0,1.467.576,26.294,26.294,0,0,0,6.235-4.349,17.339,17.339,0,0,1,3.249,3.249c.257.63-.208,1.625-.419,2.2-1.509,4.1-3.626,4.694-3.668,12.942-.026,5.188.472,11-1.991,15.824a17.826,17.826,0,0,0-1.1,2.149c-.422,1.221,1.01,2.812,2.986-1.52,3.849-8.436.421-17.525,2.987-23.683,1.274-3.058,3.664-6.848,2.253-8.646a23.07,23.07,0,0,0-3.458-3.039A47.139,47.139,0,0,0,42.29,108.4c.789-.993-.582-2.414-1.415-1.414-2.918,3.5-7.239,7.714-11,9.85a67.562,67.562,0,0,0-2.935-8.278,61.679,61.679,0,0,0,5.974-1.887c3.069-1.15,4.718-2.206,6.5-2.62,2.611-.607,3.71.659,5.606,2.463a40.2,40.2,0,0,1,4.716,5.449C49.835,112.333,50.687,111.854,50.359,111.285Z" fill="#191919"></path><path d="M177.579,128.262a18.325,18.325,0,0,0-6.707,8.75,45.2,45.2,0,0,0-1.939,6.655c.033-.1-9.149-8.55-2.1-21.064,1.567-2.78,3.891-4.965,6.026-7.283,2.689-2.919,4.963-6.651,4.034-10.794-1.94-8.658-18.065-13.444-26.46-16.61-3.661-1.38-7.4-2.923-10.008-6.025a8.394,8.394,0,0,1-1.362-9.065,12.117,12.117,0,0,1,.891-1.415c2.619.472,4.965-1.17,7.021-2.567a1.19,1.19,0,0,0-.262-2.149c-1.993-.409-4.05-1.089-6.026-.314a5.89,5.89,0,0,0-1.834,1,2.438,2.438,0,0,0-.314,3.248c-3.4,3.961-3,10.4,2.567,14.933,5.514,4.5,14.466,6.035,23.684,10.951,18.063,9.634,5.26,16.542,1.519,21.431-7.506,9.809-6.357,22.232,1.939,29.028-.943,4.087-2.105,8.113-4.925,11.317-2.208,2.509-6.081,4.47-9.484,3.983-4.614-.661-4.53-6.418-8.593-7.86-2.2-.781-3.113.67-2.777,1.519a10.346,10.346,0,0,1,3.877,3.563c2.551,4.778,6.915,6.807,12.313,5.345,3.994-1.082,8.191-4.6,10.48-10.322.209-.524,2.148-5.5,1.781-5.711,7.6,4.244,17.811,1.7,21.955-6.079C199.823,129.684,188.407,121.228,177.579,128.262Zm-31.648-60.99c.157.314.1.786-.262.891a14.308,14.308,0,0,1-3.825,1.2,4.435,4.435,0,0,1-1.991.052c-.522-.165-1.048-.891-.524-1.31a.276.276,0,0,1,.419.053c.21.366.628.2,1,.157a18.537,18.537,0,0,0,4.3-1.31A.765.765,0,0,1,145.931,67.272Zm41.6,77.39a13.334,13.334,0,0,1-15.981,1.048,39.752,39.752,0,0,1,2.672-8.855c3.889-7.982,11.5-9.19,14.933-7.231C193.949,132.019,192.026,140.557,187.534,144.662Z" fill="#38a1ff"></path><path d="M41.713,49.928c-.566-3.22-3.523-3.025-6.759-2.41a11.087,11.087,0,0,0-7.912,5.449,12.345,12.345,0,0,0-1.048,4.3A26.993,26.993,0,0,0,18.5,61.246,13.91,13.91,0,0,0,13,70.625c-.377,3.981,1.511,7.814,3.825,10.9,2.4,3.2,5.518,5.855,7.964,9.012,2.427,3.131,4.349,7.686,3.092,11.685a.485.485,0,0,0,.89.366,10.742,10.742,0,0,0,1.31-5.03c-.3-10.393-12.274-15.135-14.042-24.26a9.783,9.783,0,0,1,3.039-8.75,19.323,19.323,0,0,1,7.283-4.3c-.2.1,1.423,3.5,6.6,4.768,3.162.777,3.826.935,6.183-2.515A17.421,17.421,0,0,0,41.713,49.928Zm-9.379.734a18.557,18.557,0,0,1,2.882-1.1c.839-.21,2.463-.734,3.039.157a.824.824,0,0,1,0,.786c-.3.582-1.045.537-1.624.629-4.781.753-6.612,3.576-7.6,4.139-.262.1-.676,0-.628-.367C28.64,53.075,30.411,51.636,32.334,50.662Z" fill="#38a1ff"></path><path d="M141.058,55.273a7.236,7.236,0,0,0,3.3.943c.734.157,1.944.368,2.1-.733.176-1.279-1.666-1.3-2.987-1.415C140.635,53.821,140.585,54.9,141.058,55.273Z" fill="#191919"></path><path d="M122.929,59.779c.825.7,2.253.786,3.3.943.733.157,1.943.368,2.1-.733.176-1.278-1.667-1.3-2.987-1.415C122.544,58.33,122.49,59.409,122.929,59.779Z" fill="#191919"></path><path d="M141.006,48.147a29.082,29.082,0,0,0,4.3.786,1.015,1.015,0,0,0,.891-.681.921.921,0,0,0-.419-1.048c-.734-.315-5.013-1.255-5.24.209A.649.649,0,0,0,141.006,48.147Z" fill="#191919"></path><path d="M122.824,64.285a8.912,8.912,0,0,0,4.244,1c.629.049,1.259-.105,1.362-.839.266-1.885-4.4-1.571-5.449-1.257A.613.613,0,0,0,122.824,64.285Z" fill="#191919"></path><path d="M122.719,45.16c.151.655,4.178,1.56,4.925,1.363a.862.862,0,0,0,.367-1.415C127.362,44.339,122.405,43.326,122.719,45.16Z" fill="#191919"></path><path d="M27.828,172.9c-2.623.669-5.5,1.834-8.017,2.515a2.328,2.328,0,0,1,.315-2.567c.622-.792.152-1.269-.315-1.048a3.208,3.208,0,0,0-1.362,3.982,15.436,15.436,0,0,1-2.567.262,3.4,3.4,0,0,1,1.414-3.982c.367-.472,0-.681-.209-.681-.472.052-2.934.628-2.62,4.349-1,0-1.46-1.2-1.258-2.044.868-3.611,9.686-6.375,13.152-10.584.262-.367-.1-.994-.524-.681-3.267,2.426-8.388,4.136-11.894,7.126-1.781,1.519-3.8,4.124-2.3,6.444,2.161,3.353,7.952,1.763,11.736.524a22.149,22.149,0,0,0,5.031-2.148A.8.8,0,0,0,27.828,172.9Z" fill="#191919"></path></svg>