<svg viewBox="0 0 200 200" xmlns="http://www.w3.org/2000/svg"><path d="M194.405,175.736c-37.71.305-161.092.747-186.026.35a.609.609,0,0,0,0,1.218c24.9.43,148.958.158,186.026-.311A.629.629,0,0,0,194.405,175.736Z" fill="#38a1ff"></path><path d="M146.554,108.315c-.033-7.019-3.646-8.772-8.409-8.944L135,99.312c-.04,2.513,0,5.815,0,9.222C139.713,108.461,143.709,108.4,146.554,108.315Z" fill="#38a1ff"></path><path d="M25.487,139.693a123.914,123.914,0,0,0-3.374,13.358c-.291,1.462.953,1.535,2.084,1.535,15.428,0,42.016.1,57.867.045.741,0,1.442.18,1.654-.741.854-3.638,1.985-10.114,1.879-13.76,0-.4-.093-.84-.6-.854-19.073-.588-40.812-.35-58.35-.529C25.7,138.741,25.766,138.79,25.487,139.693Zm37.57.662c3.97-.1,8.2.153,12.4.067-2.269,4.008-5.292,8.639-7.178,12.755H55.84C58.693,147.665,62.957,140.3,63.057,140.355Zm-24.841-.387H49.608c-.814,1.27-7.244,11.859-7.82,13.162-3.969,0-7.978-.033-11.908,0C30.493,152.159,38.12,139.751,38.216,139.968Z" fill="#38a1ff"></path><path d="M38.513,129.459a3.063,3.063,0,1,0-4.7-2.745A3.049,3.049,0,0,0,38.513,129.459Zm-2.348-1c-2.276-.86-.291-4.671,1.945-2.712A1.7,1.7,0,0,1,36.165,128.46Z" fill="#38a1ff"></path><path d="M87.853,126.257a3.543,3.543,0,0,0-6.675,1.4,3.288,3.288,0,0,0,3.307,3.579A3.484,3.484,0,0,0,87.853,126.257Zm-1.5,2.772c-1.26,1.627-5.173.364-3.539-2.176a2.142,2.142,0,0,1,3.605-.218A2.052,2.052,0,0,1,86.351,129.029Z" fill="#38a1ff"></path><path d="M154.6,174.009c3.892.205,23.6.538,27.891.311.662-.04.808-1.859.067-1.919-2.931-.238-11.565-.079-13.893-.065-4.631,0-9.342-.094-14,.072C153.712,172.441,153.6,173.956,154.6,174.009Z" fill="#38a1ff"></path><path d="M175.345,170.9c2.811-.127,2.044-1.41,1.455-3.917-1.409-5.987-2.646-12.378-4.432-18.245-1.906-6.319-5.808-5.062-7.231-.047-1.152,4.029-4.723,17.6-4.942,21.084-.059.972.615.919,1.462,1.012A129.02,129.02,0,0,0,175.345,170.9Zm-10.969-13.649a85.651,85.651,0,0,0,8.68,0l1.488,6.266h-11.6C163.417,161.433,163.9,159.335,164.376,157.251Z" fill="#38a1ff"></path><path d="M62.164,26.506c15.752,6.153,36.082,12.57,52.429,18.227a.663.663,0,0,0,.4-1.171C98.716,37.945,78.339,30.7,62.488,25.58A.51.51,0,0,0,62.164,26.506Z" fill="#38a1ff"></path><path d="M59.65,24.813a1.4,1.4,0,1,0-1.984-1.985A1.4,1.4,0,1,0,59.65,24.813Z" fill="#38a1ff"></path><path d="M22.55,46.1C33.858,40.021,44.983,33.314,56.1,26.857c.662-.384.186-1.5-.5-1.112-11.16,6.4-22.652,12.722-33.574,19.49C21.551,45.546,22.046,46.366,22.55,46.1Z" fill="#38a1ff"></path><path d="M124.021,86.808a.454.454,0,1,0-.662.622c2.217,2.454,4.492,4.843,6.913,7.079.345.317,1.172-.272.662-.834C128.692,91.227,126.363,89,124.021,86.808Z" fill="#38a1ff"></path><path d="M109.506,60.656c.52,1.758,5.034,13.893,5.914,14.641a.6.6,0,0,0,1-.43c.1-1.132-5.2-13.007-6-14.614C110.167,59.737,109.342,60.1,109.506,60.656Z" fill="#38a1ff"></path><path d="M109.651,94.588c2.03-2.073,4.082-4.175,6.1-6.258,1.057-1.1.323-1.82-.794-.88a46.523,46.523,0,0,0-6.034,6.49C108.606,94.383,109.255,94.992,109.651,94.588Z" fill="#38a1ff"></path><path d="M122.737,75.151a141.311,141.311,0,0,0,5.657-13.946c.125-.661-.854-.913-1.178-.4-.695,1.085-5.213,11.987-5.544,13.979C121.586,75.383,122.431,75.6,122.737,75.151Z" fill="#38a1ff"></path><path d="M113.912,104.617c-.88-.069-4.631,4.631-5.293,5.67-.337.483.371,1.092.781.662,1.575-1.608,3.076-3.308,4.631-4.936,1.588,1.462,3.229,2.878,4.77,4.4.555.549,1.4-.2.662-.874C115.917,106.232,114.8,104.687,113.912,104.617Z" fill="#38a1ff"></path><path d="M129.445,114.349a58.422,58.422,0,0,0-5.881-4.982.662.662,0,0,0-.919.166c-1.733,1.984-7.212,8.157-8.317,9.844a.446.446,0,0,0,.662.595c1.548-1.323,6.577-7.2,8.317-9.169.575.443,5.06,3.969,5.629,4.168C129.353,115.077,129.719,114.755,129.445,114.349Z" fill="#38a1ff"></path><path d="M133.322,134.494a55.845,55.845,0,0,0,.166-5.683c0-1.575-1.323-1.508-1.323-.046,0,5.524.014,6.145.615,6.192A.5.5,0,0,0,133.322,134.494Z" fill="#38a1ff"></path><path d="M106.86,128.467a.536.536,0,0,0-1.019,0c-.185.959,0,4.459,0,5.656a.662.662,0,0,0,1.25-.04A34.864,34.864,0,0,0,106.86,128.467Z" fill="#38a1ff"></path><path d="M123.115,145.244c-1.29.031-1.264.76-.735,1.026a24.59,24.59,0,0,0,6.146.125c.509-.225.43-1.065-.059-1.111C126.684,145.171,124.9,145.2,123.115,145.244Z" fill="#38a1ff"></path><path d="M110.28,145.4c-.562-.007-.576.92,0,.993a51.727,51.727,0,0,0,5.411.224c1.125.034,1.773-1.243-.721-1.243C113.4,145.377,111.762,145.423,110.28,145.4Z" fill="#38a1ff"></path><path d="M105.682,139.138a63.573,63.573,0,0,0,.086,6.517.622.622,0,0,0,1.237.039c-.086-2.216-.1-4.452-.4-6.616C106.535,138.5,105.714,138.628,105.682,139.138Z" fill="#38a1ff"></path><path d="M133.521,145.773a33.139,33.139,0,0,0-.086-4.961c-.053-1.165-1.324-1.092-1.277.053.046,1.819.225,3.393.4,5.08A.5.5,0,0,0,133.521,145.773Z" fill="#38a1ff"></path><path d="M149.2,84.962c10.3.264,22.176-.04,32.463-.608,5.048-.272,7.323-.179,4.532-5.723-3.718-7.39-11.068-21.918-15.984-27.6-3.546-4.1-5-4.551-8.018,0a234.037,234.037,0,0,0-15.216,26.662C145.482,80.86,144.787,84.849,149.2,84.962Zm14.336-33.693c2.375-3.579,3.414-2.151,5.828.721,5.71,6.768,11.71,19.5,15.752,27.508,1.6,3.169.5,3.307-3.142,3.473-11.081.456-22.044,1.2-33.118.6-.715-.04-2.792-1.052-.946-4.849C147.74,78.724,154.42,65.007,163.536,51.269Z" fill="#38a1ff"></path><path d="M72.22,61.351c1.411-1.507-3.572-15.322-4.267-15.765-1.634-1.032-17.743-.324-18.954.622-.754.582-1.065,15.308.4,16.1S70.813,62.854,72.22,61.351ZM61.265,48.966c.125-.456,4.445-.536,4.8-.3s1.985,3.969,1.66,4.148a33.457,33.457,0,0,1-6.4.119C60.954,52.7,61.165,49.33,61.265,48.966Z" fill="#38a1ff"></path><path d="M25.328,63.064c.794-.582-.251-15.083-.794-15.374s-18.676.092-19.258.873-.126,14.554.291,15.13S24.534,63.647,25.328,63.064Z" fill="#38a1ff"></path><path d="M103.883,99.093c-16.189-.053-32.682,0-36.129.278-6.887.589-7.323,6.1-7.2,9.686,7.39.086,25.358,0,43.366-.172C103.935,105.134,103.916,101.554,103.883,99.093Zm-35.024,7.046a1.927,1.927,0,0,1-2.646-2.646,2.257,2.257,0,0,1,2.448-.821A1.955,1.955,0,0,1,68.859,106.139ZM74.1,103a1.985,1.985,0,1,1,1.25,3.48A1.984,1.984,0,0,1,74.1,103Zm10.558,1.722a1.985,1.985,0,0,1-3.44,1.118,2.1,2.1,0,0,1,.43-3.129A2.08,2.08,0,0,1,84.657,104.723Z" fill="#38a1ff"></path><path d="M37.594,131.629a.662.662,0,0,0-1.251-.132,43.627,43.627,0,0,0-2.209,5.722c-.053.477.661.722.959.371a28.021,28.021,0,0,0,1.832-3.97,30.87,30.87,0,0,0,1.74,4.129c.252.258,1.489.41.834-1.251Z" fill="#191919"></path><path d="M27.915,155.988c-.63,1.417-5.994,15.382-6.616,17.863-.132.535.7.952.92.39.542-1.37,6.192-15.667,6.88-17.942C29.337,155.657,28.145,155.471,27.915,155.988Z" fill="#191919"></path><path d="M43.845,155.73c-.245-.556-1.045-.132-.919.39,1.363,5.77,4.1,12.252,5.808,18.206.258.894,1.76.544,1.423-.383C48.238,168.7,45.993,160.6,43.845,155.73Z" fill="#191919"></path><path d="M76.9,155.975c-.974,2.407-5.081,15.613-5.954,18.629-.159.543.728,1.032.992.431,2.375-5.419,4.287-12.749,6.186-18.524C78.359,155.829,77.215,155.207,76.9,155.975Z" fill="#191919"></path><path d="M86.073,134.421c-.185-.5-1.4-3.169-2.13-1.786a15.88,15.88,0,0,0-1.9,5.391c-.092.662.887.7,1.079.152.443-1.243.866-2.474,1.409-3.664,3.837,10.075,7.939,27.786,12.285,39.892.3.827,1.628.483,1.323-.357C94.455,163.4,89.765,144.329,86.073,134.421Z" fill="#191919"></path><path d="M145.8,110.75c.3,12.781.086,27.084.35,38.232.277,11.419-3.413,11.035-12.914,11.4-12.49.476-24.927-.133-37.173.357-.609,0-.662,1.072-.04,1.085,7.992.132,29.407.2,37.928-.152,10.413-.43,13.231-.9,13.364-12.279.125-11.067,0-26.264-.53-38.628C146.758,110.214,145.786,110.175,145.8,110.75Z" fill="#191919"></path><path d="M61.78,136.763c.322-2.263.245-23.724.192-24.981,0-.576-1.071-.49-1.091.047-.073,1.786-.3,22.307-.159,24.974C60.755,137.378,61.707,137.279,61.78,136.763Z" fill="#191919"></path><path d="M90.512,160.89c-1.078-.423-11.193-.3-12.569.1a.47.47,0,0,0,0,.907c.661.159,11.465.437,12.569.059A.556.556,0,0,0,90.512,160.89Z" fill="#191919"></path><path d="M72.848,161.029c-.84-.3-5.213-.152-6.681-.278-2.647-.218-3.1-.88-3.368-3.612s-1.237-1.767-1.23-1.575a18.63,18.63,0,0,0,.218,3.9c.456,2.037,2.256,2.54,4.241,2.7a47.2,47.2,0,0,0,6.913-.059C73.477,162.048,73.278,161.181,72.848,161.029Z" fill="#191919"></path><path d="M78.121,56.793l4.922-4.909c5.6,6.02,3.526,6.126,10.8-1.026,1.885,1.7,4.73,3.705,6.814,5.293a.66.66,0,0,0,.78.073c2.534-1.786,4.935-3.811,7.483-5.6.661-.469.1-1.323-.576-.86q-3.631,2.553-7.244,5.127a72.668,72.668,0,0,0-7.013-5.14,1.233,1.233,0,0,0-.707,0A53.989,53.989,0,0,0,87.8,55.126c-5.345-5.491-4.373-5.485-6.616-3.249l-3.433,3.335a29.7,29.7,0,0,0-3.52-4.36c-.45-.351-.966.218-.78.661a42.214,42.214,0,0,0,3.691,5.22A.713.713,0,0,0,78.121,56.793Z" fill="#191919"></path><path d="M27.121,59.618c-.5.012-.43.966.086,1,4.565.331,14.085-.562,19.331-.741.748,0,.82-1.323.053-1.323C43.515,58.387,31.445,59.508,27.121,59.618Z" fill="#191919"></path><path d="M71.135,48.3c11.564.1,32.589,0,51.007.516.853,0,1.012-1.323.159-1.323-11.393,0-39.694-.364-51.186-.251A.531.531,0,0,0,71.135,48.3Z" fill="#191919"></path><path d="M71.922,94.879c-1.058-12.7-1.839-20.581-3.182-30.717a.5.5,0,0,0-.986.093c.325,4.724,1.363,17.862,2.971,30.736C70.8,95.613,71.975,95.514,71.922,94.879Z" fill="#191919"></path><path d="M116.307,56.019c1.112-1.078,4.591-4.195,5.338-5.147.391-.51,0-1.244-.661-.754-1.124.84-3.923,3.413-5.167,4.531-2.236-1.786-3.453-3.308-4.836-4.419-.444-.364-3.083-.364,4.4,5.8A.664.664,0,0,0,116.307,56.019Z" fill="#191919"></path><path d="M28.8,57.375A41.731,41.731,0,0,0,32.46,53.28c.754.82,4.9,4.426,6.119,3.764a23.337,23.337,0,0,0,5.65-4.962c.5-.549-.311-1.21-.8-.608a16.442,16.442,0,0,1-5.372,4.392c-4.327-2.183-5.24-4.875-6.054-3.923a51.883,51.883,0,0,0-4.042,4.85C27.63,57.282,28.358,57.739,28.8,57.375Z" fill="#191919"></path><path d="M68.1,95.349c-.414-.72-7.833-5.1-9.11-5.882a38.457,38.457,0,0,0,7.733-6.82.88.88,0,0,0-.112-1.376c-2.54-1.906-5-3.91-7.509-5.862a75.253,75.253,0,0,0,5.954-4.631c1.866-1.594,1.145-1.667-.893-2.891s-4.075-2.494-6.139-3.7a.43.43,0,0,0-.47.721,60.763,60.763,0,0,0,6.616,4.631c-7.277,7.548-10.585,3.2,1.2,12.57-7.451,7.961-10.134,6.469-5.286,9.645.906.6,6.688,4.089,7.4,4.195C67.979,95.99,68.335,95.76,68.1,95.349Z" fill="#191919"></path><path d="M27.161,49.641c2.249.308,15.07-.3,18.3-.417.873-.033.9-1.389,0-1.362-2.561.079-16.163.37-18.425.846C26.479,48.854,26.671,49.574,27.161,49.641Z" fill="#191919"></path><path d="M53.683,64.209c-.079,22.394.463,49.8.2,72.58,0,.88,1.323.549,1.37-.463.3-24.213.244-48.129-.536-72.11A.523.523,0,0,0,53.683,64.209Z" fill="#191919"></path><path d="M130.246,57.408c-15.024-.337-37.425.3-54.843.662-.729,0-.927,1.005-.344,1,16.637-.2,38.012-.755,55.643-.364,1.708.033,2.263,0,.881-1.826a78.253,78.253,0,0,0-7.166-7.277c-.4-.3-1.031.139-.708.608A82.379,82.379,0,0,0,130.246,57.408Z" fill="#191919"></path><path d="M54.186,43.839c1.379-3.792,3.393-11.2,4.631-15.474a132.875,132.875,0,0,1,6.033,14.66c.285.814,1.469.225,1.211-.582a111.523,111.523,0,0,0-6.834-16.082.662.662,0,0,0-1.151,0c-1.323,4.631-3.97,12.946-4.883,17.2A.519.519,0,0,0,54.186,43.839Z" fill="#191919"></path><path d="M122.307,77.87a.662.662,0,0,0-.3-1.224c-1.72-.039-3.619-.106-5.432-.039-.707,0-.747,1.124-.112,1.177,1.131.093,2.27.126,3.4.159-6.947,5.775-1.608,10.307,1.613,7.826a3.969,3.969,0,0,0,1.5-3.711c-.133-.582-.841-.5-.986.231a2.71,2.71,0,0,1-1.483,2.349c-1.692.781-4.312-.5-1.323-4.1A13.09,13.09,0,0,1,122.307,77.87Z" fill="#191919"></path><path d="M97.333,117.73c-7.409-.391-25.748-.285-28.99.072a.557.557,0,0,0,0,1.1c4.155.469,21.62.257,28.99.152a.662.662,0,1,0,0-1.323Z" fill="#191919"></path><path d="M97.36,125.43c-.589-.814-5.187-.522-6.173-.331a.556.556,0,0,0,.179,1.092c.86.04,5.425.417,5.921-.066A.57.57,0,0,0,97.36,125.43Z" fill="#191919"></path><path d="M89.54,132.271c-.53.1-.662.972,0,1.006,1.045.053,6.483.449,7.2.257.582-.158.5-.979,0-1.2C95.864,131.9,90.908,132.02,89.54,132.271Z" fill="#191919"></path><path d="M68.529,126.257a61.7,61.7,0,0,0,9.566.159.663.663,0,0,0,0-1.2c-.483-.146-8.475-.357-9.573,0A.536.536,0,0,0,68.529,126.257Z" fill="#191919"></path><path d="M68.429,133.356c.351.152,10.083.278,11.055.172a.662.662,0,0,0,.093-1.277c-1.072-.232-10.023-.424-11.207.225A.51.51,0,0,0,68.429,133.356Z" fill="#191919"></path><path d="M166.956,74.5c.159-4.459-.072-13.893-.423-17.2-.093-.846-1.442-.661-1.468.133-.107,3.308.475,13.119.892,16.909C166.063,75.316,166.929,75.27,166.956,74.5Z" fill="#191919"></path><path d="M167.8,77.738a1.342,1.342,0,1,0-2.375,1.25C165.977,80.126,168.642,79.439,167.8,77.738Z" fill="#191919"></path><path d="M107.991,96.487c-.662,0-.576.979.04.966,7.35-.159,16.539.053,24.206,0,.086,8.64.146,18.418.246,26.919-8.059,0-18.161.218-25.537-.073,0-8.422.046-17.1-.113-26.119,0-.529-.9-.469-.913.04-.317,8.746-.139,18.008-.192,26.6,0,.271.146.608.477.615,8.977.079,17.961.106,26.939.145.721,0,.662-.721.622-1.144-.146-9.143-.2-18.312-.53-27.449,0-.41-.165-.74-.933-.734C124.557,96.288,115.367,96.487,107.991,96.487Z" fill="#191919"></path></svg>