<svg viewBox="0 0 200 200" xmlns="http://www.w3.org/2000/svg"><path d="M87.789,120.39c-2.336-3.115-2.539-7.07-2.347-11.121a42.823,42.823,0,0,1,.758-6.4,10.827,10.827,0,0,1-4.168-3.337C79,95.448,79.581,89.216,82.674,85.21c3.31-4.287,9.519-5,14.455-1.035a22.51,22.51,0,0,1,4.212,5.261c1.291,1.877,1.054,2.4,3.657,3.1a6.442,6.442,0,0,1,3.978,2.419,6.858,6.858,0,0,1,1.152,3.7c.111,2.46-.946,4.545-1.05,6.485,3.257,3.053,1.2,9-2.9,10.1a19.816,19.816,0,0,0-.12,7.451.285.285,0,0,0,.5.131c.323-.413.782-.914,1.131-1.286a23.7,23.7,0,0,1,7.563-5.654c7.081-3.149,15.216-1.249,18.988,5.756,2.04,3.788,2.416,8.028,2.579,11.7.078,1.763.131,3.541.131,5.3,3.834-6.595,5.275-9.432,7.286-9.107,2.539-5.395,2.594-10.286,11.031-15.753a39.751,39.751,0,0,0-3.045-14.368,24.2,24.2,0,0,1-4.182,1.384c-8.751,2.316-17.7,4.433-26.726,3.833-1.326-.088-1.543-.562-1.53-1.545.072-5.531-.077-14.977-1.3-20.357-.917-4.046-3.724-10.3-5.61-13.99-9.227-1.716-21.656-1.195-33.2,2.157a37.8,37.8,0,0,0-.466,5.64,40.207,40.207,0,0,1-8.641,23.082c-.61.751-.881.805-1.632.641a163.655,163.655,0,0,1-21.48-6.543c2.885,9.326,2.116,19.946,6.31,28.868a61.308,61.308,0,0,0,4.459,7.475,52.5,52.5,0,0,1-6.441,3.119,20.546,20.546,0,0,1,1.909,1.836,85.314,85.314,0,0,1,8.2,9.953c.7-5.13,2.863-13.4,5.538-18.347,2.726-5.042,6.8-7.81,12.721-7.81a13.743,13.743,0,0,1,7.232,1.891C87.641,120.854,87.956,120.613,87.789,120.39Z" fill="#38a1ff"></path><path d="M36.742,137.145c-4.016,2.049-8.189,4.368-11.993,6.82a17.613,17.613,0,0,0-2.463,1.661,34.327,34.327,0,0,1-4.969-10.375,12.991,12.991,0,0,1-1.37.219c.044.131.073.277.132.422a34.344,34.344,0,0,0,4.983,10.332.711.711,0,0,0,.539.291.315.315,0,0,0,.379.277,10.666,10.666,0,0,0,3.133-1.6c3.369-2,8.773-5.118,12.2-6.805C37.106,137.976,36.917,137.568,36.742,137.145Z" fill="#191919"></path><path d="M9.987,104.4a85.736,85.736,0,0,1,2.755,13.668c.451-.014.9-.029,1.355-.029-.894-6.508-1.989-13.276-4.853-19.177a8.991,8.991,0,0,0-3.526-4.226c-.015,0-.015-.014-.029-.014,5.565-2.327,12.907-6.5,28.08-11.585,2.863-.96,2.865-1.138,3.789-.16a36.177,36.177,0,0,1,7.913,13.6c3.523,10.916,1.593,21.647,8.612,33.152a43.616,43.616,0,0,0-4.576,1.7c.029.044.044.088.073.131a1.9,1.9,0,0,1,1.661.627c2.3-.943,2.958-1.02,3.512-1.574.51.233,1.238-.32.86-.918-9.967-15.787-2.491-30.711-16.35-46.777-.857-.993-1.735-2.076-3.191-1.85-1.8.279-22.434,7.694-30.893,13.042a.429.429,0,0,0,.029.714.407.407,0,0,0-.015.626C7.8,97.667,8.972,101.165,9.987,104.4Z" fill="#191919"></path><path d="M71.336,150.45c.059,0,.059-.073,0-.073C71.278,150.362,71.278,150.45,71.336,150.45Z" fill="#191919"></path><path d="M69.311,64.168a2.949,2.949,0,0,0-1.457-.627c-.862-.194-3.556-.737-5.042-.991a37.338,37.338,0,0,0-6.776-.845.373.373,0,0,0-.1.729,48.424,48.424,0,0,0,6.6,1.559c.182.036,4.766.934,4.94.962a3.107,3.107,0,0,0,1.632.029A.514.514,0,0,0,69.311,64.168Z" fill="#191919"></path><path d="M68.509,71.075c-.832-.618-1.865-.314-9.938-1.822a10.779,10.779,0,0,0-3.322-.378c-.335.058-.321.524-.088.684,1.262.855,8.346,1.948,9.837,2.186,1.02.146,2.4.569,3.395.175A.475.475,0,0,0,68.509,71.075Z" fill="#191919"></path><path d="M67.519,78.988a3.073,3.073,0,0,0-1.414-.6c-.947-.248-7.865-1.413-9.049-1.588a15.283,15.283,0,0,0-3.7-.379c-.35.037-.583.525-.218.685a16.12,16.12,0,0,0,3.439.9c1.095.225,8.094,1.522,9.02,1.632a3.6,3.6,0,0,0,1.763-.029A.386.386,0,0,0,67.519,78.988Z" fill="#191919"></path><path d="M38.826,97.7a3.156,3.156,0,0,0-2.011.321c-10.651,3.76-12.908,4.237-14.572,5.654-.292.262.029.845.408.685,3.279-1.337,9.238-3.041,14.645-5.027.626-.219,1.428-.408,1.777-1.006A.433.433,0,0,0,38.826,97.7Z" fill="#191919"></path><path d="M39.044,105.363c-1.209-.131-2.477.525-3.614.875-7.515,2.359-9.115,1.916-9.821,3.555-.131.336.291.554.539.423a11.373,11.373,0,0,1,2.871-.8c1.506-.308,4.241-1,7.1-1.908a7.261,7.261,0,0,0,3.206-1.458A.406.406,0,0,0,39.044,105.363Z" fill="#191919"></path><path d="M180.5,67.753a1.846,1.846,0,0,0-1.253-.642,38.772,38.772,0,0,1-7.826-2.8c-.845-.378-1.85-1.107-2.812-.918-.248.044-.311.413-.131.6a9.642,9.642,0,0,0,2.579,1.574,35.906,35.906,0,0,0,7.723,2.856,1.961,1.961,0,0,0,1.545.014A.5.5,0,0,0,180.5,67.753Z" fill="#191919"></path><path d="M176.577,72.838c-.539-.685-1.7-.728-2.506-.845-5.369-.868-7.3-2.457-8.292-2.3a.307.307,0,0,0-.219.466,2.231,2.231,0,0,0,1.035.816,23.165,23.165,0,0,0,6.907,2.3,8.432,8.432,0,0,0,2.871.336A.464.464,0,0,0,176.577,72.838Z" fill="#191919"></path><path d="M173.677,76.54c-1.215-.8-2.381-.1-8.335-2.084a13.681,13.681,0,0,0-2.754-.875c-.306-.035-.656.365-.35.642,1.608,1.415,6.092,2.595,8.364,3a5.572,5.572,0,0,0,2.973.1A.437.437,0,0,0,173.677,76.54Z" fill="#191919"></path><path d="M156.132,94.682c-.058-.879-2.953-15.891-3.206-17.151-1.869-9.331-3.1-14.928-7.825-21.946-.528-.785-1.149-1.477-1.705-2.23a.322.322,0,0,0-.277-.131.412.412,0,0,0-.131-.029,32.111,32.111,0,0,0-6.732.452c-6.155.754-12.8,2.112-18.4,4.881a24.85,24.85,0,0,0-5.421,3.41.471.471,0,0,0-.568.671c1.224,2.448,2.471,4.9,3.555,7.417A69.671,69.671,0,0,1,121.1,98.267a25.107,25.107,0,0,0,.073,4.663c.078.465.714.379.859.014a9.065,9.065,0,0,0,1.253.277,43.267,43.267,0,0,0,12.168-.772,90.692,90.692,0,0,0,16.919-5.435,23.912,23.912,0,0,0,3.6-1.662A.533.533,0,0,0,156.132,94.682Zm-32.423,7.446c-.5-.018-.991.044-1.472.073a16.841,16.841,0,0,0,.277-3.337,68.827,68.827,0,0,0-5.45-28.43A47.187,47.187,0,0,0,113,62.623c1.6-.874,3.162-1.794,4.809-2.579,10.981-5.236,21.977-4.945,25.239-5.771a18.837,18.837,0,0,0,.947,1.763A36.107,36.107,0,0,1,149.575,68.7c2.379,8.944,4.509,23.014,5.493,25.836C151.549,95.524,138.137,102.661,123.709,102.128Z" fill="#191919"></path><path d="M150.944,16.793a.37.37,0,0,0-.437-.291.573.573,0,0,0-.481-.321c-.863-.046-1.748.242-4.226.919-2.958.808-4.486,1.265-8.349,2.418A13.92,13.92,0,0,0,134.1,20.7c-.985-.311-.666,1.13-.976,3.468-.047.349-.117.7-.175,1.049a.511.511,0,0,0-.335-.277c-3.214-.918-5.591-.659-9.531-4.357-4.061-3.811-6.088-7.091-6.863-7.767a.548.548,0,0,0-.743-.349,5.323,5.323,0,0,0-1.487.772C99.419,23.351,92.525,25.07,92.029,26.061c-.277-.029-.582.233-.481.525a25.654,25.654,0,0,0,2.332,4.649c6.831,11.534,17.294,16.012,29.96,14.324a29.123,29.123,0,0,0,12.547-4.386C142.78,36.831,151.922,24.045,150.944,16.793Zm-7.125,14.675a41.716,41.716,0,0,1-4.838,5.741c-8.165,7.939-22.326,9.2-31.709,4.838-6.939-3.223-9.727-7.393-13.626-13.8-.319-.525-.641-1-.99-1.486,4.626-1.31,19.169-10.112,23.038-13.013a51.246,51.246,0,0,0,6.776,8.058,15.556,15.556,0,0,0,10,4.255.48.48,0,0,0,.306-.087c-2.218,8.237-10.378,15.324-16.6,16.015a35.751,35.751,0,0,0-3.964.291c-.2.046-.276.394-.072.481a8.939,8.939,0,0,0,3.6.466c3.752-.067,6.643-1.793,9.647-4.153a26.021,26.021,0,0,0,8.087-10.768,12.9,12.9,0,0,0,1.05-6.777c1.4-.018,2.207-.455,11.541-3.045a32.706,32.706,0,0,0,3.949-1.108A32.512,32.512,0,0,1,143.819,31.468Z" fill="#191919"></path><path d="M66.659,26.236a4.573,4.573,0,0,0-4.576-.481,3.109,3.109,0,0,0-1.865,3.789.394.394,0,0,0,.772-.1,2.852,2.852,0,0,1,2.332-2.579,3.255,3.255,0,0,1,2.317.466c1.152.843.575,2.292-.044,3.454-.629,1.181-1.113,2.233-.248,3.337.209.266.59.527.8.816.634.867,1.524.475,1.515-.19a1.4,1.4,0,0,0-.67-1.107c-.928-.776-.671-.885-.088-2.1C67.817,29.647,68.41,27.62,66.659,26.236Z" fill="#38a1ff"></path><path d="M69.5,37.355a1.7,1.7,0,0,0-.976.67.668.668,0,0,0,.146.671,1.539,1.539,0,0,0,1.428.32C70.826,38.577,70.346,37.3,69.5,37.355Z" fill="#38a1ff"></path><path d="M101.967,47.41c-.756-.182-3.331-.652-4.4.889-.247.356.253.724.583.451a2.57,2.57,0,0,1,1.749-.233,6.027,6.027,0,0,1,2.375.481c1.416.761,1.236,2.315.161,3.5-1.584,1.742-2.317,1.589-3.5,2.2a3.066,3.066,0,0,0-1.544,3.366.651.651,0,0,0,.786.525.811.811,0,0,0,.656-.918,1.566,1.566,0,0,1,.933-1.7,12.492,12.492,0,0,0,2.244-1.108c1.8-1.369,2.717-2.7,2.783-4.168A3.394,3.394,0,0,0,101.967,47.41Z" fill="#38a1ff"></path><path d="M97.639,61.078a.954.954,0,0,0-.772,1.137.875.875,0,0,0,1.064.612C98.8,62.623,99.063,60.965,97.639,61.078Z" fill="#38a1ff"></path><path d="M85.442,53.515A5.634,5.634,0,0,0,83.111,51.9c-3.164-1.527-19.307-6.6-26.711-7.49-.655-.079-1.3-.058-1.938-.073a.171.171,0,0,0-.088.015.351.351,0,0,0-.539-.146,12.193,12.193,0,0,0-3.322,3.162c-2.607,3.433-3.9,8.159-4.474,12.43C45,67.578,45.718,76.458,41.551,83.432c.335.379.641.787.962,1.195,6.962-11.14,1.661-24.714,8.568-35.789a28.3,28.3,0,0,1,3.148-3.906.278.278,0,0,0,.131.073c.482.126.962.319,1.457.437.1.024,18.176,3.926,26.055,7.432,1.789.8,2.075,1.131,2.565,1.326a18.37,18.37,0,0,0-5.13,6.514c-4.618,9.084-1.222,17.415-5.726,27.571a29.578,29.578,0,0,1-5.188,7.971q-11.278-3.1-22.573-6.091c.248.539.481,1.093.685,1.646,1.239.335,19.938,5.374,21.932,5.946a.729.729,0,0,0,.7-.175C81.429,84.715,75.558,73.29,79.8,62.929c1.571-3.836,3.7-5.941,5.508-8.073a.571.571,0,0,0,.029-.685A.481.481,0,0,0,85.442,53.515Z" fill="#191919"></path><path d="M194.821,55.381a.53.53,0,0,0-.262-.321.7.7,0,0,0-.481-.685c-.892-.28-.844-.211-6.586-1.442-14.315-3.071-19.317-4.564-20.11-4.168a.454.454,0,0,0-.51.393c-.432,4.4-1.073,7.676-8.365,13.757-2.241,1.868-4.546,3.715-6.645,5.741.1.554.219,1.093.321,1.647,2.573-2.573,4.582-4.109,7.49-6.543,4.2-3.513,9.058-8.747,8.146-14.164a18.9,18.9,0,0,0,2.885.874c4.8,1.19,13.091,3.063,16.438,3.789,2.173.471,4.371,1.093,6.586,1.369a10.429,10.429,0,0,0-.145,1.822c-.332,7.939-3.826,16.863-9.793,22.077a23.927,23.927,0,0,0-5.727,6.339,15.54,15.54,0,0,0-2.506,8.219c-2.07-2.071-16.984-6.788-19.76-7.695.131.54.277,1.093.423,1.647,17.339,5.418,17.4,6.84,18.943,7.111a.567.567,0,0,0,.583-.233.276.276,0,0,0,.438-.146,32.439,32.439,0,0,1,2.8-7.839c1.774-3.1,3.408-4.388,5.756-6.456,6.282-5.532,9.816-14.74,10.23-22.631A7.149,7.149,0,0,0,194.821,55.381Z" fill="#191919"></path><path d="M90.98,106.311a.55.55,0,0,0-.671.335.906.906,0,0,0-.233.233.952.952,0,0,0,.729,1.545C91.706,108.386,92.041,106.729,90.98,106.311Z" fill="#191919"></path><path d="M96.211,107.039a1.1,1.1,0,0,0-.437.889.936.936,0,0,0,.933.889c.539-.022.794-.554.83-1.035a.984.984,0,0,0-.641-1.063A.559.559,0,0,0,96.211,107.039Z" fill="#191919"></path><path d="M93.4,110.274c.236-1.258.77-2.477.889-3.745.028-.306-.379-.335-.539-.146-.791,1.062-1.338,3.649-1.531,4.955-.09.612-.233,1.4.612,1.5a3.023,3.023,0,0,0,2.215-.743.378.378,0,0,0-.276-.641,14.213,14.213,0,0,0-1.633.349C93.136,111.7,93.379,110.379,93.4,110.274Z" fill="#191919"></path><path d="M91.4,116.744a2.169,2.169,0,0,1,1.6-1.02,1.023,1.023,0,0,1,1.049.5c.153.31.132.626.379.889a.374.374,0,0,0,.583-.073,1.518,1.518,0,0,0-.277-1.559,1.954,1.954,0,0,0-1.588-.685c-.918,0-2.288.685-2.186,1.763C90.994,116.744,91.256,116.919,91.4,116.744Z" fill="#191919"></path><path d="M105.887,126.085a4.254,4.254,0,0,0-1.064.656,19.985,19.985,0,0,1-7.315,2.492,11.47,11.47,0,0,1-4.9-.816,4.46,4.46,0,0,1-.787-.481,13.076,13.076,0,0,0,1.224-5.9,5.848,5.848,0,0,0,1.865.029,9.1,9.1,0,0,0,4.751-2.346,5.125,5.125,0,0,0,.422-.67c.234-.35-.23-.841-.582-.583a11.178,11.178,0,0,1-4.314,2.317,4.988,4.988,0,0,1-4.415-1.093c-2.885-2.507-2.867-6.791-2.8-10.288.046-2.332.26-4.678.437-7.009a.335.335,0,0,0-.656-.088c-.849,3.93-1.35,9.609-.5,13.436a8.249,8.249,0,0,0,4.721,6.018c-.16.991-.213,2.012-.437,2.987a24.844,24.844,0,0,1-.729,2.478.4.4,0,0,0-.524.379c.195,2.082,4.242,2.926,6.659,2.958a20.046,20.046,0,0,0,8.307-2.623c.482-.318,1.02-.656,1.151-1.253A.45.45,0,0,0,105.887,126.085Z" fill="#191919"></path><path d="M161,117.473c2.355-.725,6.894-3.852,15.491-4.022a5.967,5.967,0,0,0,2.244-.189.45.45,0,0,0,0-.773,4.458,4.458,0,0,0-2.244-.277,31.163,31.163,0,0,0-11.658,2.434,12.713,12.713,0,0,0-4.095,2.39A.264.264,0,0,0,161,117.473Z" fill="#191919"></path><path d="M181.677,115.71a4.111,4.111,0,0,0-2.025-.131A64.535,64.535,0,0,0,169,117.4a14.866,14.866,0,0,0-4.065,1.457.317.317,0,0,0,.16.583c1.749-.093,3.384-.837,8.248-1.719,6.311-1.145,7.394-.683,8.335-1.254C181.923,116.318,181.983,115.841,181.677,115.71Z" fill="#191919"></path><path d="M179.7,120.927a4.118,4.118,0,0,0-2.681-.438c-2.525.056-6.83.36-9.18,1.341a.313.313,0,0,0,.073.612c2.728.065,3.664-.487,8.889-.612.889-.021,2.069.175,2.827-.379A.331.331,0,0,0,179.7,120.927Z" fill="#191919"></path><path d="M177.131,125.575c-3.186-1.112-8.263-.125-11.833.554-3.656.695-6.834,1.351-9.268,4.284a10.9,10.9,0,0,0-1.413,2.171,6.608,6.608,0,0,0-.627,1.6,71.713,71.713,0,0,0-8.029-2.987c1.616-1.486,2.564-6.206,4.357-9.093,2.727-4.394,7.412-7.02,12.051-9.341a2.614,2.614,0,0,0,1.268-.918.452.452,0,0,0-.379-.67,2.27,2.27,0,0,0-1.253.379c-1.272.647-1.726.8-3.92,2.04-9.123,5.158-9.826,9.943-11.629,14.557a19.906,19.906,0,0,0-1.209,2.929,4.228,4.228,0,0,0-.744-.014.568.568,0,0,0-.757-.233c-1.227.743-5.666,8.65-6.368,9.909q-1.074,1.922-2.055,3.891a87.136,87.136,0,0,0,.1-11.454c-.179-3.789-.576-7.684-2.4-11.075-3.476-6.446-10.878-7.885-17.094-5.1a23.443,23.443,0,0,0-8.073,6.426,6.8,6.8,0,0,0-.772,1.253.242.242,0,0,0,.379.292c.289-.265.641-.5.918-.787a31.747,31.747,0,0,1,2.681-2.667,23.793,23.793,0,0,1,4.11-2.944c5.729-3.15,13.006-2.3,16.423,3.483,1.833,3.106,2.313,6.776,2.521,10.332.418,7.174-.077,9.987.145,13.275a.5.5,0,0,0,.379.437,42.371,42.371,0,0,0-3,8.5,10.619,10.619,0,0,0-.379,3.235.291.291,0,0,0,.569.073c.678-1.62.974-4.844,3.7-10.8a115.456,115.456,0,0,1,8.845-15.3c1.215.682,1.371.358,5.625,2.1,4.045,1.656,4.721,1.976,5.115,2.055a264.762,264.762,0,0,1-4.415,27.542c-1.369,6.225-2.741,13.01-7.724,17.239a6.988,6.988,0,0,1-5.362,1.967c-4.211-.559-7.539-5.211-8.889-9.414a.585.585,0,0,0-.525-.437c.088-.772.17-1.545.233-2.317.579-7.032.475-21.124-.932-24.54a.343.343,0,0,0-.671.088c-.206,1.761.793,6.389.729,15.636a109.44,109.44,0,0,1-2.477,22.048c-.167.741-.2,1.472-.292,2.229-.068.554.742.582.9.131a15.448,15.448,0,0,0,.641-1.909c.668-3.038,1.222-6.157,1.617-9.239,1.4,3.527,3.883,6.952,7.4,8.467a7.23,7.23,0,0,0,5.9.029c5.865-2.609,8.5-10.1,9.967-16.321,1.149-4.882,2.131-9.821,2.944-14.761.64-3.888,1.979-12.68,2.011-16.759a.483.483,0,0,0-.379-.466,1.446,1.446,0,0,0-.656-.452,10.413,10.413,0,0,1,1.618-3.1c2.248-2.834,4.96-3.385,8.422-4.052,7.613-1.465,6.678-.955,11.906-1.282A.375.375,0,0,0,177.131,125.575Z" fill="#191919"></path><path d="M75.519,120.868a12.643,12.643,0,0,0-6.762,6.266c-3.581,6.592-5.959,18.831-5.712,21.888A89.771,89.771,0,0,0,52.917,136.1a14.4,14.4,0,0,0-2.594-2.39.46.46,0,0,0-.495-.393,3.545,3.545,0,0,0-1.049.291,28.087,28.087,0,0,0-3.206-5.537c-6.579-9.779-8.754-9.109-19.658-11.774a6.54,6.54,0,0,0-2-.306.5.5,0,0,0-.247.932,11.583,11.583,0,0,0,3.308.991c5.231,1.308,7.332,1.558,9.53,2.623,5.216,2.551,8,8.662,11.614,13.407a31.551,31.551,0,0,0-7.374,6c-.787-1.923-1.661-3.818-2.506-5.727-.758-1.69-1.472-3.5-3.512-3.861a9.031,9.031,0,0,0-2.725.043c-2.692.364-15.31,2.315-17.253,3.338a.388.388,0,0,0,.189.714,13.178,13.178,0,0,0,3.089-.423c2.311-.429,12.958-2.387,15.3-2.492a3.211,3.211,0,0,1,2.273.568,6.079,6.079,0,0,1,1.3,2.172c.15.33,2.83,6.356,3.1,6.63-.043.073-.087.131-.131.2-.014.015-.014.029-.029.044a.418.418,0,0,0-.437.481c.335,1.136.684,2.244.947,3.4,1.221,5.559,2.6,15.237,7.2,24.336,3.77,7.513,11.07,16.725,19.235,14.572,4.372-1.166,7.315-4.853,9.5-8.641.7,2.912,1.539,5.963,2.361,8.757a9.644,9.644,0,0,0,1.384,3.4c.262.306.7.029.729-.306a8.956,8.956,0,0,0-.685-3.177c-4.756-15.783-5.443-25.779-6.747-30a.268.268,0,0,0-.525.073c-.228,4.42,2.036,15.181,3.046,19.5-2.055,3.556-4.43,7.359-8.452,8.875-7.719,2.946-14.8-5.976-18.565-13.275-4.792-9.316-6.189-19.713-7.373-24.511a9.785,9.785,0,0,0-1.2-3.06c.014-.015.029-.015.043-.029,1.65-1.035,4.971-4.786,8.554-6.631.325-.167.641-.306.947-.481a19.978,19.978,0,0,0,1.851,2.143c11.415,12.493,14.993,21.915,17.487,26.026.247.408.947.145.787-.336-1.087-3.589-4.6-9.789-6.441-12.561a.5.5,0,0,0,.379-.277c.608-1.617,1.041-10.894,5.158-20.08,2.715-6.074,6.993-9.1,13.771-7.84,3.361.614,4.859,2.239,6.82,4.721.218.263.67-.029.568-.335C88.417,121.006,81.476,118.8,75.519,120.868Z" fill="#191919"></path><path d="M28.7,121.393a12.687,12.687,0,0,0-4.444-.947,77.784,77.784,0,0,0-12.751-.365,2.444,2.444,0,0,0-1.02.365c-.335.131-.206.588.087.7a2.848,2.848,0,0,0,1.137.233,88.1,88.1,0,0,1,12.445.365,17.786,17.786,0,0,0,4.473.233A.32.32,0,0,0,28.7,121.393Z" fill="#191919"></path><path d="M22.52,124.6c-3.329-.683-9.244.03-12.6.51a3.7,3.7,0,0,0-1.778.51.475.475,0,0,0,.116.86c.994.273,1.421-.216,7.126-.685,2.375-.2,4.794-.161,7.141-.554A.334.334,0,0,0,22.52,124.6Z" fill="#191919"></path><path d="M23.175,128.125a6.167,6.167,0,0,0-3.133-.029,60.794,60.794,0,0,0-8.233,1.4,2.865,2.865,0,0,0-1.414.641.269.269,0,0,0,.117.437,2.718,2.718,0,0,0,1.4.015c.437-.059,4.942-.84,8.131-1.18,1.846-.2,2.538-.128,3.133-.525A.443.443,0,0,0,23.175,128.125Z" fill="#191919"></path><path d="M108.9,107.141a3.045,3.045,0,0,0-1.283-1.442c.063-.388,1.053-6.754,1.035-7.17a4.457,4.457,0,0,0-3.41-4.576c-2.227-.674-3.092-.593-4.925-3.584a18.93,18.93,0,0,0-4.081-5.232,9.717,9.717,0,0,0-6.557-2.288c-7.271.4-10.37,10.29-6.456,15.636,2.413,3.3,6.7,4.285,10.755,4.008a21.7,21.7,0,0,0,4.517-.7,12.741,12.741,0,0,0,3.57,7.738.675.675,0,0,0,1.108-.291c.475-2.021,1.467-2.986,3.614-2.915,2.184,1.191,1.208,5.473-1.443,6.077-1.431.326-1.832-.441-2.594-.481a.511.511,0,0,0-.5.641c.2.72,1.189,1.055,1.923,1.137a18.966,18.966,0,0,0-.9,5.595,20.953,20.953,0,0,0,.889,6.383.568.568,0,0,0,1.093-.306,24.1,24.1,0,0,1-.321-11.629C108.314,113.565,110.006,109.476,108.9,107.141ZM86.011,98.15c-1.24.409-2.584-2.266-2.857-3.73-.3-1.6-.258-4.489.875-5.611a.272.272,0,0,1,.452.132c.2,1.376-.528,2.639-.044,5.056.568,2.839,1.861,2.578,1.952,3.658A.53.53,0,0,1,86.011,98.15Z" fill="#191919"></path></svg>