<svg viewBox="0 0 200 200" xmlns="http://www.w3.org/2000/svg"><path d="M157.079,91.49a33.654,33.654,0,0,1,6.954-5.526c1.443-.914,3.046.329,4.392,1.193.549.376,1.594-.036,2.46.125a.424.424,0,0,1-.109.84c-.968-.08-1.823.573-2.914,0-.826-.446-2.441-1.541-3.141-1.075a35.7,35.7,0,0,0-5.316,4.006,9.068,9.068,0,0,0-2.023,2.276.659.659,0,0,1-1.227-.134,35.29,35.29,0,0,1-.982-4.854,21.58,21.58,0,0,0-2.788,1.679c-.563.394-.989.216-1.478.37a.4.4,0,0,1-.521-.235c-.26-.723,1.092-.58,1.411-.9a14.494,14.494,0,0,1,3.7-2.452.65.65,0,0,1,.874.554A24.034,24.034,0,0,0,157.079,91.49Z" fill="#191919"></path><path d="M152.647,95.664a7.958,7.958,0,0,1,2.385-1.881.437.437,0,0,1,.588.109.425.425,0,0,1-.109.588,35.752,35.752,0,0,0-3,3.418.658.658,0,0,1-1.175-.394,26.764,26.764,0,0,1,.361-6.484.4.4,0,1,1,.8.051A27.382,27.382,0,0,1,152.647,95.664Z" fill="#191919"></path><path d="M160.774,96.549a28.334,28.334,0,0,1,4.46-5.92c.592-.593.918-1.078,1.671-1.831a.426.426,0,0,1,.638.563c-.558.767-.516.912-1.377,2.091-1.69,1.945-3.754,4.289-4.686,6.7a.644.644,0,0,1-1.159.092l-2.4-3.838a.4.4,0,0,1,.621-.5A14.9,14.9,0,0,1,160.774,96.549Z" fill="#191919"></path><path d="M176.619,87.115a5.808,5.808,0,0,0-3.309-.671.94.94,0,0,0-.546.352c-3.444,4.908-8.3,16.526-9.4,20.054a24.411,24.411,0,0,0-.882,3.645,80.555,80.555,0,0,0-14.57-.235c.277-3.813.453-7.819.873-11.749.9-8.073,1.838-8.218,1.218-8.809a.653.653,0,0,0-.647-.151c-.659.219-2.05.332-2.368,1.285-3.26,9.665-5.149,27.022-5.82,30.072a.637.637,0,0,0,.118.513c3.176,3.938,3.062,4.538,4.249,5.173,2.346,1.162,5.616.309,7.919.092,4.57-.455,10.855-.35,14.906-1.058a.405.405,0,0,0,.3-.58c1.036-12.1,2.491-26.45,8.154-37.1A.647.647,0,0,0,176.619,87.115Z" fill="#38a1ff"></path><path d="M155.18,96.181a11.129,11.129,0,0,0-.957,1.881,25.717,25.717,0,0,0-1.2,8.457c.039,1.091.107,1.46.185,2.3a.424.424,0,0,0,.848.008c.543-5.037.148-6.012,1.335-10.38.08-.283.327-1.31.521-1.923A.4.4,0,0,0,155.18,96.181Z" fill="#191919"></path><path d="M176.462,124.89c-1.257-.051-2.509-.151-3.764-.229a48.256,48.256,0,0,0-.222-6.2c-.236-3.758-.175-4.092-.235-4.812-.042-.63-.118-1.235-.152-1.848a.4.4,0,0,0-.806-.042c-.059.353-.126.688-.168,1.041a61.808,61.808,0,0,0,.666,11.806c-5.085-.256-12.554.621-18.186,1.044-2.728.223-6.018.046-8.633.411a30.273,30.273,0,0,0-4.888-5.189.4.4,0,0,0-.537.6,43.348,43.348,0,0,1,4.644,5.643.628.628,0,0,0,.6.244c3.024-.382,5.924-.173,8.919-.4,13.763-1.031,8.835-1.385,22.758-1.218a.424.424,0,0,0,.428-.42A.431.431,0,0,0,176.462,124.89Z" fill="#191919"></path><path d="M131.867,128.47s2.558-.886,3.93-1.344c.851-.284,2.087-.683,1.949-1.218-.159-.613-1.831-.15-2.436.026a44.4,44.4,0,0,0-4.224,1.486c-.977.489-1.357.714-1.226,1.092C130.043,129,131.366,128.622,131.867,128.47Z" fill="#191919"></path><path d="M135.068,131.81c.681-.278,1.827-.693,1.646-1.217-.12-.388-.573-.335-1.5-.168-.91.2-5.668,1.835-5.223,2.763C130.273,133.874,132.559,132.737,135.068,131.81Z" fill="#191919"></path><path d="M131.253,137.2c.124-.049,3.273-1.533,3.376-1.587.745-.385,1.089-.576.991-.94-.134-.454-1.051-.281-1.5-.177a7.6,7.6,0,0,0-1.335.529c-.807.367-3.505,1.536-3.233,2.242C129.746,137.725,130.972,137.33,131.253,137.2Z" fill="#191919"></path><path d="M194.963,112.032c-2.441-6.761-5.5-13.221-10.463-18.417-1.863-1.892-4.41-4.14-6.945-4.971a.4.4,0,1,0-.277.756c2.209.845,4.729,3.312,6.323,5.055,4.661,4.955,7.682,11.3,9.994,17.652a28.069,28.069,0,0,1-7.365,5.316,112.139,112.139,0,0,1-12.807,5.677.422.422,0,0,0,.277.8,72.636,72.636,0,0,0,13.135-5.341,36.245,36.245,0,0,0,5.458-3.47c.071.629.042,1.327.086,1.884A35.116,35.116,0,0,1,190.75,130.3a22.253,22.253,0,0,1-8.256,12.286c-6.684,5.138-14.264,6.5-22.573,5.349a65.582,65.582,0,0,1-20.306-6.9c-4.078-2.183-3.828-2.612-4.325-2.376a29.852,29.852,0,0,1-5.206,2.049.4.4,0,0,0,.176.789,28.81,28.81,0,0,0,5.164-1.8,47.458,47.458,0,0,0,9.809,5.35c9.27,3.915,20.073,6.3,29.619,3.1,5.816-1.96,11.781-6.21,14.789-11.74a34.837,34.837,0,0,0,3.594-11.765,30.752,30.752,0,0,0,.084-7.751,17.114,17.114,0,0,0-.255-2.442,18.531,18.531,0,0,0,1.774-1.758A.662.662,0,0,0,194.963,112.032Z" fill="#191919"></path><path d="M92.722,126.7a4.3,4.3,0,0,1,1.36.714,2.115,2.115,0,0,1,.84,2.931,4.674,4.674,0,0,1-2.125,1.343.419.419,0,0,0,.16.823,3.493,3.493,0,0,0,3.056-1.444c1.606-2.449-.68-5.424-3.241-5.173a.407.407,0,0,0-.428.369A.412.412,0,0,0,92.722,126.7Z" fill="#191919"></path><path d="M107.594,125.36c-3.7.475-4.785,6.6.386,6.937a.421.421,0,1,0,.177-.823,8.176,8.176,0,0,1-.966-.487,3.022,3.022,0,0,1-1.243-1.067,2.641,2.641,0,0,1,.924-3.006,4.345,4.345,0,0,1,.957-.781.4.4,0,1,0-.235-.773Z" fill="#191919"></path><path d="M40.727,95.024c.025.673.067,3.216.848,3.158.525-.037.521-1.09.521-1.621-.008-.89-.059-1.788-.092-2.687-.027-.431-.078-2.049-.681-2.049C40.562,91.825,40.7,94.26,40.727,95.024Z" fill="#191919"></path><path d="M20.754,89.564a4.911,4.911,0,0,0-4.09.638A10.2,10.2,0,0,0,14.6,92.176a.642.642,0,0,0-.134.6c.618,2.256,2.658,3.468,4.9,4.149a.654.654,0,0,0,.579-.11C22.973,94.551,24.35,90.76,20.754,89.564Z" fill="#191919"></path><path d="M39.884,114.76a171.917,171.917,0,0,0-3.166-16.921.657.657,0,0,0-.806-.462,24.492,24.492,0,0,0-5.031,2.108.654.654,0,0,0-.31.781c1.762,5.434,2.108,11.13,2.712,17.14a.661.661,0,0,0,.538.571,18.57,18.57,0,0,1,6.239,2.007.659.659,0,0,0,.823-.151,6.733,6.733,0,0,1,.983-.933,70.962,70.962,0,0,1,6.1-3.98l.546-.067a25.337,25.337,0,0,1,2.8,1.881,39.545,39.545,0,0,1,6.071,4.19l-.277.462a.647.647,0,0,0,.285.924,12.121,12.121,0,0,1,5.341,5.542,17.794,17.794,0,0,1-2.2,3.511c-1.739-1.469-4.531-4.2-6.147-5.82a.636.636,0,0,0-.731-.126c-1.214.552-2.593-.142-3.812-.588a.656.656,0,0,0-.689.151,41.247,41.247,0,0,0-3.905,4.7.656.656,0,0,0-.109.478A3.174,3.174,0,0,1,45,131.967a1.016,1.016,0,0,1-1.2.5.654.654,0,0,0-.739.756c.29,1.687-.418,3.243-2.208,3.191a.632.632,0,0,0-.672.647,4.3,4.3,0,0,1-.663,2.209c-.405.606-.845.852-1.521.537a.646.646,0,0,0-.906.437c-.287,1.147-.751,2.026-1.9,1.721a.661.661,0,0,0-.756.345c-1.142,2.351-2.159,4.686-3.376,6.928-2.278,4.173-3.168,4.194-2.822,4.913a.637.637,0,0,0,.58.361c8.186.018,19.562-1.27,27.7-2.343a.6.6,0,0,0,.521-.7c-.676-3.6,1.42-3.616,5.064-3.418,1.271.049,2.5-.135,3.628-.025a.533.533,0,0,0,.587-.588c-.38-3.8-1.3-7.575-1.52-11.346-.415-6.985-.465-21.052-2.082-33.566a.561.561,0,0,0-.252-.386c-1.685-1.085-3.3-2.335-5.4-2.646a.578.578,0,0,0-.647.672,40.1,40.1,0,0,1,.252,6.87c.022,1.783.188,3.743.084,5.475C51.423,113.251,45.265,113.935,39.884,114.76Z" fill="#38a1ff"></path><path d="M38.444,133.3c.561.538,2.253,2.312,2.779,1.73.363-.381-.376-1.147-.932-1.738-.789-.806-1.595-1.6-2.418-2.385-.489-.442-1.813-1.731-2.259-1.235C35.073,130.247,37.547,132.44,38.444,133.3Z" fill="#191919"></path><path d="M33.769,134.016a4.416,4.416,0,0,0,.881,1.36,32.174,32.174,0,0,0,2.8,2.755c.727.565.974.813,1.276.554.676-.579-1.545-2.578-2.091-3.124-2.041-2.041-2.4-2.884-2.88-2.612C33.391,133.137,33.588,133.541,33.769,134.016Z" fill="#191919"></path><path d="M31.243,137.442a3.591,3.591,0,0,0,.622.882,29.194,29.194,0,0,0,2.494,2.544c.7.488,1.1.757,1.377.462.25-.276.091-.536-.495-1.318-.131-.16-2.5-2.677-2.99-3.1-.628-.492-.9-.688-1.167-.462C30.787,136.7,31.032,137.019,31.243,137.442Z" fill="#191919"></path><path d="M6.316,135.866a23.51,23.51,0,0,0-1.05,9.279C6.684,156.577,20.438,162.905,29,151.46A34.914,34.914,0,0,0,33.92,141.3a.424.424,0,0,0-.8-.285,42.306,42.306,0,0,1-5.139,9.682C19.725,161.426,7.5,154.94,6.45,144.415a25.383,25.383,0,0,1,.647-8.348.4.4,0,0,0-.781-.2Z" fill="#191919"></path><path d="M62.135,127.381c-1.979-2.027-5.739-5.413-5.845-5.512l.108-.115a.66.66,0,0,0,.009-.915c-1.954-2.092-3.94-4.593-6.769-5.19-1.818-.36-3.39.455-4.829,1.621a25.81,25.81,0,0,0-3.738,3.7,7.879,7.879,0,0,0-9.1-.653c-3.872,2.041-7.289,6.458-9.935,9.423-4.5,5.038-2.534,2.816-4.3,4.888-5.184-.748-7.7-.994-11.18-1.365,4.176-10.2,13.588-27.172,23.631-31.576a.4.4,0,0,0-.3-.748,19.4,19.4,0,0,0-1.932.865,4.028,4.028,0,0,0-1.855-5.7,3.283,3.283,0,0,0-2.771.639,8.221,8.221,0,0,0-2.309,3.031.638.638,0,0,0,.084.714,10.533,10.533,0,0,0,4.348,2.8c-5.8,4-11.53,12.506-14.956,18.7a102.359,102.359,0,0,0-5.442,11.6.645.645,0,0,0,.53.873l11.5.98c-1.239,1.538-1.7,2.185-2.6,3.475a.4.4,0,0,0,.646.487c.752-.94,1.123-1.277,7.886-8.792,3.337-3.708,7.758-9.649,12.756-10.187a7.052,7.052,0,0,1,4.775,1.232,20.414,20.414,0,0,0-1.719,2.659c-.312-.2-.735-.413-.929-.517a.4.4,0,0,0-.478.646c2.587,2.587,4.011,4.622,6,6.374a.44.44,0,0,0,.6.042.433.433,0,0,0,.042-.6,34.191,34.191,0,0,1,4.692-5.3,2.878,2.878,0,0,1,2.368-.6c1.881.225,2.406.8,2.872.26q.225-.273.446-.547c2.655,3.092,2.9,3,5.542,5.755a.657.657,0,0,0,.983-.042l1.209-1.5A.664.664,0,0,0,62.135,127.381Zm-1.738,1a56.907,56.907,0,0,0-5.423-5c.269-.332.463-.566.706-.843a50.352,50.352,0,0,0,5.1,5.363Z" fill="#191919"></path><path d="M41.359,105.907c1.221-.436,1.309-.66,4.182-1.772a.421.421,0,0,1,.386.748,15.793,15.793,0,0,1-4.762,2.477.654.654,0,0,1-.814-.395c-1.223-3.362-1.608-3.608-1.932-6.13a.407.407,0,0,1,.79-.193C39.809,102.1,39.625,101.423,41.359,105.907Z" fill="#191919"></path><path d="M52.008,105.9A23.8,23.8,0,0,1,52,101.171a.421.421,0,1,1,.839-.067c.11.588.227,1.175.286,1.788a37.172,37.172,0,0,0,.361,4.031.66.66,0,0,1-.949.714c-1.936-1.048-2.812-1.2-4.577-2.662a.4.4,0,1,1,.42-.68C48.959,104.552,49.584,104.705,52.008,105.9Z" fill="#191919"></path><path d="M46.119,102.184c.623-2.49.818-3.059,1-4.115a.653.653,0,0,1,.881-.5c1.248.489,2.2.755,3.553,1.369.83.406,2.672.775,3.938,1.369a.426.426,0,0,1-.319.789,26.732,26.732,0,0,0-2.838-.588,40.611,40.611,0,0,1-4.082-1.452c-.326,1.506-.793,2.821-1.024,4.325a.658.658,0,0,1-1,.453c-1.4-.885-2.58-1.981-3.8-2.906a18.049,18.049,0,0,1-2.6-2.175.407.407,0,0,1,.58-.571,25.463,25.463,0,0,0,2.746,1.755C44.094,100.617,45.289,101.609,46.119,102.184Z" fill="#191919"></path><path d="M46.751,105.013c-.038.836-.184,1.3.9,5.66a6.9,6.9,0,0,0,.5,1.428.423.423,0,1,0,.832-.152,7.335,7.335,0,0,0-.21-2.183c-.96-4.663-.849-3.834-1.226-4.879a.4.4,0,1,0-.8.126Z" fill="#191919"></path><path d="M63.953,104.1c.116.1,1.664,1.45,2.578,2.192.434.351.939-.048.638-.554a6.293,6.293,0,0,0-2.813-2.335C63.807,103.221,63.545,103.736,63.953,104.1Z" fill="#191919"></path><path d="M145.11,92.251a23.13,23.13,0,0,0-3.225,2.226c-2.957,2.471-5.631,6.354-7.651,9.582a.666.666,0,0,0-.092.487,18.137,18.137,0,0,0,.884,2.91,13.744,13.744,0,0,0-3.271,4.142c-.177-.159-.345-.31-.521-.461-.278-.209-1.417-1-1.728-1.152.236-10.556-.69-15.921-.816-22.309a1.836,1.836,0,0,0-.029-.467c-.518-1.865-1.079-5.577-2.419-9.624-.5-1.456-1.313-3.334-2.838-3.2-1.809.147-2.578,3.044-3.116,4.308-2.367,5.573-2.076,5.161-3.435,8.741-1.7-.214-3.413-.433-5.091.507A2.018,2.018,0,0,0,110.6,90a3.081,3.081,0,0,0,2.242,2.3,8.783,8.783,0,0,0,4.119-.116c.127,4.128.882,30.439,1.016,34.749a12.574,12.574,0,0,0-1.762-.276,4.113,4.113,0,0,0-4.115,2.906c-.38,1.707,1.017,2.976,2.805,3.258a8.635,8.635,0,0,0,1.929.045,22.011,22.011,0,0,0-.087,4.63.654.654,0,0,0,.546.6,23.119,23.119,0,0,0,2.811.262l-2.272,5.471a.629.629,0,0,0,.084.638c1.769,2.271,4.609,2.5,7.382,1.772a6.136,6.136,0,0,0,3.124-1.587.643.643,0,0,0,.151-.613,49.686,49.686,0,0,0-2.442-6.367,9.356,9.356,0,0,0,3-1.583.422.422,0,0,0,.117-.579c-.67-1.026-.436,4.425.237-24.505a13.95,13.95,0,0,0,2,2.1.644.644,0,0,0,.546.168c.472-.079.339-.25,1.629-2.276.2-.322,1.64-2.39,1.778-2.595a23.41,23.41,0,0,0,5.085,7.065.423.423,0,1,0,.622-.572,32.625,32.625,0,0,1-2.192-2.964,21.382,21.382,0,0,1-3.46-7.407,46.109,46.109,0,0,1,7.079-9.061,25.234,25.234,0,0,1,2.981-2.528A.408.408,0,0,0,145.11,92.251Zm-18.393,50.2c-1.755.878-2.921.652-5.109.244a.4.4,0,0,0-.236.772,6.428,6.428,0,0,0,5.642-.126c.07.221.138.443.2.668a8.8,8.8,0,0,1-5.6,1.218,4.258,4.258,0,0,1-2.443-1.277c.581-1.509.877-2.185,1.276-3.482a5.632,5.632,0,0,0,4.62.507.426.426,0,0,0-.184-.831c-2.083.185-2.718.225-4.163-.607.109-.387.211-.775.31-1.162a19.005,19.005,0,0,0,4.242-.463C125.682,139.478,126.187,140.92,126.717,142.451Zm1.266-6.738a19.5,19.5,0,0,1-9.981,1.17c-.043-.675-.253-4.315-.3-4.631a.4.4,0,0,0-.588-.291,20.032,20.032,0,0,1-2.308-.458c-1.387-.4-1.677-1.277-1.293-2.032a3.153,3.153,0,0,1,1.738-1.436,19.566,19.566,0,0,1,2.826-.308.425.425,0,0,0,.759-.257c.046-2.6.172-2.881.135-7.188-.05-4.07-.758-23.809-.765-23.909-.087-1.52-.236-3.041-.437-4.554.115-.35-.271-.761-.624-.56a18.834,18.834,0,0,1-3.965-.21,1.935,1.935,0,0,1-1.209-.974c-.489-1.027,1.453-1.46,2.586-1.579,1.91-.22,2.748-.117,2.993-.623a92.364,92.364,0,0,0,3.93-8.65c.318-.75,1.148-3.441,2.049-3.527,1.136-.071,2.43,5.54,2.8,6.92,2.284,8.3,1.312,1.283,1.482,10.578.089,4.589.445,8.673.445,12.815C128.315,116.913,127.579,124.9,127.983,135.713Z" fill="#191919"></path><path d="M125.365,130.9c-.714-.032-1.424-.027-2.133,0,.063-2.164.356-13.849.434-15.845a.63.63,0,0,0-.613-.655c-1.4-.035-2.562.385-4.819,1.145a.412.412,0,0,0-.294.5.4.4,0,0,0,.5.285,26.9,26.9,0,0,1,3.938-.683c-.129,3.107-.347,9.264-.227,12.361.033,1.061.125,2,.2,2.933a18.659,18.659,0,0,0-2.265.211c-.485.093-1.674.361-1.588.848.094.531,1.2.42,2.343.344,3.764-.262,6.374.035,6.374-.815C127.212,131.029,126.35,130.953,125.365,130.9Z" fill="#191919"></path><path d="M119.663,87.766a22.306,22.306,0,0,1,6.348-.478.422.422,0,0,0,.185-.823,6.782,6.782,0,0,0-3.477-.513,7.415,7.415,0,0,0-3.375,1.075A.4.4,0,1,0,119.663,87.766Z" fill="#191919"></path><path d="M71.221,86.992a10.638,10.638,0,0,1,4.4-.1c1.214.122,1.4.161,1.511-.168.181-.471-.76-.863-1.234-1.033a9.015,9.015,0,0,0-5.014.135c-.466.2-1.362.638-1.158,1.1C69.881,87.281,70.219,87.15,71.221,86.992Z" fill="#191919"></path><path d="M109.76,58.855c.1,0-.133-.029-1.848-4.552-3.409-8.939-4.36-12.5-6.054-14.444-1.407-1.581-3.366-1.96-4.72-.176a17.585,17.585,0,0,0-1.772,3.879c-2.161,5.1-3.579,10.784-5.643,15.965a.643.643,0,0,0,.68.882c4.777-.634,18.987-1.043,18.987-.941A.431.431,0,0,0,109.76,58.855Zm-16.466-.981c.15-.781.285-1.554.461-2.318.135-.546,2.965-10.035,3.141-10.547.338-.93.567-1.452.874-2.2a.4.4,0,0,1,.772.227c-.146.745-.225,1.3-.47,2.326-.211.835-2.739,9.446-3.258,10.892-.219.622-.471,1.226-.714,1.848A.419.419,0,0,1,93.294,57.874Z" fill="#38a1ff"></path><path d="M106.38,80.107a1.792,1.792,0,0,0-2.2-1.161.375.375,0,0,0-.336.235A1.9,1.9,0,0,0,102.58,80.2a15.536,15.536,0,0,0-4.764.248,1.563,1.563,0,0,0-.807-1.1c-1.564-.865-3.343.444-3.048,1.067a1.683,1.683,0,0,0-.175.353,6.557,6.557,0,0,0-1.925.134c-.213.047-.4.184-.4.4,0,.64,1.716.586,2.349.478.668,2.017,3.338,1.565,3.941-.439,1.867-.145,4-.21,4.681-.291.1,2.658,3.972,2.307,4.077-.113.515.035,1.3.014,1.278-.5S106.885,79.993,106.38,80.107Z" fill="#191919"></path><path d="M110.3,137.449c.352-.462-.011-.274-.219-6.5-.151-4.711-.856-44.534-.89-47.918-.237-23.458.532-22.913-.285-22.943a.427.427,0,0,0-.437.411c-.392,9.467-.523,19.209-.443,25.531a3.51,3.51,0,0,0-1.553.224c-3.237,1.658-1.229,5.721,1.638,5.6.565,35.678.558,39.9.971,44.532,0,0-15.813.554-16.611.529-.24-6.322-1.2-37.3-1.513-49.081,1.179.06,2.334.194,2.649,1.388a1.449,1.449,0,0,1-.345,1.394,4.866,4.866,0,0,1-1.755.89.428.428,0,0,0-.361.479.42.42,0,0,0,.47.361,3.175,3.175,0,0,0,2.595-.848A2.82,2.82,0,0,0,93.1,86.917a2.432,2.432,0,0,0-.94-.159,7.372,7.372,0,0,0-1.22.115c-.207-7.882-1.019-17.286-.772-25.349a.408.408,0,0,0-.815-.034c-.109,2.494-.143,4.98-.117,7.449.05,5.769,1.629,60.078,1.956,68.636a.669.669,0,0,0,.622.629c.94.054,1.88.051,2.82.019.011.183.084,2.123.118,2.887a36.914,36.914,0,0,0-4.384,5.064.642.642,0,0,0,.3.991c4.611,1.634,10.945,1.927,18.819-.773a.645.645,0,0,0,.311-.974,23.2,23.2,0,0,0-4.148-4.9,21.116,21.116,0,0,1-.313-2.681C110.286,137.65,110.033,137.734,110.3,137.449Zm-3.256-50.1a2.288,2.288,0,0,1,.994-.447c.016,1.176.036,2.546.059,4.045C106.15,90.023,105.344,88.273,107.045,87.345Zm1.206,58.115c-4.963,1.654-11.214,2.285-16.309.764.406-.534.816-1.061,1.235-1.584a3.793,3.793,0,0,0,1.129.587c1.843.6,9,.328,8.742-.924-.091-.452-.514-.36-2.082-.277-2.1.158-4.929.443-7.162-.154a24.721,24.721,0,0,1,1.875-2.124.569.569,0,0,0,.168-.445c-.084-.739-.316-2.816-.358-3.11,1.6-.057,5.575-.2,8.935-.327a25.03,25.03,0,0,0,.128,2.8c-1.659.171-.892.168-3.227.366-4.137.4-4.437-.235-4.644.319-.219.633,1.339,1.028,2.058,1.1a17.154,17.154,0,0,0,2.7-.109,8.877,8.877,0,0,0,3.647-.8A26.854,26.854,0,0,1,108.251,145.46Z" fill="#191919"></path><path d="M109.464,58.587a.422.422,0,0,0,.216-.523c-1.359-3.97-3.205-11.676-6.206-16.8-2.492-4.269-5.777-4.728-7.869-.261a34.543,34.543,0,0,0-1.276,3.292A92.173,92.173,0,0,0,89.7,59.214a.4.4,0,0,0,.294.479.4.4,0,0,0,.487-.294c.988-3.835,5.336-15.729,6.306-17.845.521-1.121,1.453-2.579,2.671-2.36,3.6.569,6.513,11.941,9.422,19.164a.427.427,0,0,0,.164.2c-.881-.041-1.751-.094-2.627-.086-2.166,0-9.321.52-12.043.789-.972.075-2.245.312-3.258.445a.412.412,0,0,0-.378.428.406.406,0,0,0,.428.378,34.035,34.035,0,0,0,3.67-.025c1.7-.092,11.345-.756,11.925-.806.873-.067,1.738-.185,2.611-.269A.419.419,0,0,0,109.464,58.587Z" fill="#191919"></path><path d="M148.417,152.938v-.017c-1.6-.168-9.918-1.016-11.161-1.125.153-2.452.383-2.393.2-3.116a1.871,1.871,0,0,0-1.8-1.369c-26.977-.174-66.02,3.97-74.4,2.872a2.006,2.006,0,0,0-2.292,2.016,25.374,25.374,0,0,0,.218,3.166c-3.521.533-6.913,1.3-10.472,1.679a1.991,1.991,0,0,0-1.8,2.016,3.9,3.9,0,0,0,.193,1.7,2.024,2.024,0,0,0,1.184,1.075c.74.252.98-.058,4.6-.058,5.123-.017,10.329.554,15.418.31,49.045-2.363,54.44-2.074,80.267-4.224a1.739,1.739,0,0,0,1.167-.579c.564-.612.47-1.165.47-2.352A1.986,1.986,0,0,0,148.417,152.938Zm-57.133,1.7c-5.183.5-.833.429-17.686,1.15-3.88.128-7.634.828-11.757-.059a.4.4,0,1,1,.118-.8c2.626.337,8.122-.314,11.588-.453,4.115-.151,16.445-.624,17.678-.68A.421.421,0,1,1,91.284,154.637Zm43.85-1.391c-.695.091-2.393.3-3.09.361-.731.059-13.781.8-14.5.815-1.042.016-2.083-.009-3.124-.017a.421.421,0,0,1-.051-.84A187.688,187.688,0,0,1,135.1,152.44a.408.408,0,0,1,.42.386A.4.4,0,0,1,135.134,153.246Z" fill="#191919"></path><path d="M46.368,68.674c-.118,1.864-.059,3.7-.025,5.559,4.237-1.511,9.314-1.674,13.211.73.053-1.979.343-3.958.385-5.937C56.232,66.594,48.6,67.519,46.368,68.674Zm7.5.248A25.5,25.5,0,0,1,51.4,71.987c-.414.389-.887,0-.655-.478a10.267,10.267,0,0,1,2.519-3.183C53.716,67.987,54.2,68.448,53.866,68.922Z" fill="#38a1ff"></path><path d="M60.67,84.658c-.029-3.424.107-11.827-.364-19.575a7.611,7.611,0,0,0-.571-3.46c-.982-1.748-3.148-2.344-5.115-2.7a35.436,35.436,0,0,0-13.511.571c-2.6.538-3.417,2.909-3.552,5.569a3.071,3.071,0,0,0-3.312,3.492c-1.529.677-3.026,1.955-2.73,3.586-1.927.456-3.657,2.446-3.207,4.409-1.985.424-4,2.194-3.687,4.208-1.824.513-3.364,2.35-2.923,4.207a2.686,2.686,0,0,0,.395,4.677c1.748.985,3.687.363,4.039-1.595a3.911,3.911,0,0,0,3.763-3.7,3.028,3.028,0,0,0,.386-.025,3.543,3.543,0,0,0-.311,2,4.437,4.437,0,0,0-2.435,4.518,2.916,2.916,0,0,0-.059,4.98c1.967,1.268,4.105,0,4.543-2.2A4.5,4.5,0,0,0,35.538,90.1a2.841,2.841,0,0,0,1.478-.563c.772-.579.344-.722.683.328a2.629,2.629,0,0,0,2.225,1.923,10.27,10.27,0,0,0,3.443-.546c3.675-.882,8.368-1.727,12.043-.865a3.071,3.071,0,0,1,1.738.89.538.538,0,0,1,.084.5.425.425,0,0,0,.261.537c.593.2.752-.692.512-1.285-.89-2.137-6.446-2.2-8.751-2.024a44.667,44.667,0,0,0-6.172,1.017,12.763,12.763,0,0,1-2.612.529,1.45,1.45,0,0,1-1.6-1.277,16.117,16.117,0,0,1-.243-2.813c0-.1.215-20.809.218-20.911.044-2.1.471-4.337,2.528-4.761a35.266,35.266,0,0,1,13.033-.63c2.24.383,4.336.925,4.728,3.082.02.1.421,4.743.43,4.862-3.62-1.96-10.926-1.312-13.5.006a.668.668,0,0,0-.361.546c-.11,1.96-.037,3.691-.008,5.61a.646.646,0,0,0,.873.6,18.383,18.383,0,0,1,6.617-1.092,12.635,12.635,0,0,1,6.237,1.62c.057,1.736-.046,12.654-.112,13.373-.361,3.794-1.433,3.8-4.535,4.333-1.235.2-1.947.579-2.1-.562a.424.424,0,0,0-.257-.347,4.305,4.305,0,0,0,.141-1.7.43.43,0,0,0-.412-.437.421.421,0,0,0-.428.412,4.5,4.5,0,0,1-.437,1.259c-.767,1.674-2.63,2.084-4.476,2.033a.688.688,0,0,0-.462.176c-.234.22-.219.385-.193,1.3a9.437,9.437,0,0,0,.336,1.948.4.4,0,0,0,.8-.076c.033-.539.134-1.362.134-2.057a5.635,5.635,0,0,0,4.489-1.89c.357,1.484,1.7,1.232,3.009,1.122,2.174-.181,4.175-.515,5.03-2.511C60.879,89.58,60.67,86.894,60.67,84.658ZM35.557,71.649A4.2,4.2,0,0,0,33.995,73c-1.088,1.5-.774,2.125-1.4,2.335a4.246,4.246,0,0,0-2.511,3.283c-.079.554-.516.458-1.2.874a7.05,7.05,0,0,0-1.654,1.419.422.422,0,0,1-.563.109.414.414,0,0,1-.1-.571,4.783,4.783,0,0,1,2.326-2.393,5.4,5.4,0,0,1,3-3.847,4.805,4.805,0,0,1,3.418-3.359.426.426,0,0,1,.529.277A.416.416,0,0,1,35.557,71.649Zm23.6,2.543c-3.652-2.113-8.1-2.109-12.176-.848C46.93,70.992,46.958,70,47,69.1c1.953-.868,8.906-1.733,12.337.269C59.332,71.158,59.155,72.511,59.155,74.192Z" fill="#191919"></path><path d="M169.98,66.046a3.95,3.95,0,0,0-1.528-4.879c.663-3.978-3.274-6.092-5.216-8.432a29.146,29.146,0,0,0-2.015-2.527c-1.91-1.833-4.123-1.136-4.123,2.158-2.51-2.42-5.523-2.075-5.249,1.537.1,1.3.38.968-.395.722a1.7,1.7,0,0,0-2.275.756,4.416,4.416,0,0,0,.025,3.031,9.792,9.792,0,0,0,2.5,3.554,25.155,25.155,0,0,0-4.674.6.633.633,0,0,0-.453.42,10.157,10.157,0,0,0,.142,6.39,2.548,2.548,0,0,0,3.007,1.806c1.357-.47,1.609-1.9,2.225-2.763.232-.33.137-.248-.177.694a19.378,19.378,0,0,0-.487,3.964.633.633,0,0,0,.508.659c-.054.332-.1.673-.124,1.024-.3,3.3,1.539,5.5,4.728,6.063A28.4,28.4,0,0,0,157.621,86a.412.412,0,0,0,.5.327.426.426,0,0,0,.328-.5c-.1-.764-.16-1.528-.277-2.292-.16-1.142-.387-2.259-.563-3.393a.67.67,0,0,0-.571-.546,5.723,5.723,0,0,1-2.167-.672,3.763,3.763,0,0,1-1.965-2.956,17.029,17.029,0,0,1-.233-2.13c.107,0,.214.007.32,0,1.127-.049,1.549-.125,1.57-.529.023-.424-.34-.47-1.268-.663-.1-.022-.608-.095-.68-.1a36.031,36.031,0,0,0,.353-4.593c.784.477,1.969,3.016,4.159,3.226a5.671,5.671,0,0,0,1.351.605c2.908.831,6.357-2.563,6.412-5.684.267.155.328.021,1.075-.08a4.418,4.418,0,0,1,2.336.551,1.528,1.528,0,0,1,0,2.343,4.821,4.821,0,0,1-2.788.437.661.661,0,0,0-.689.562,19.425,19.425,0,0,1-3.93,8.558.655.655,0,0,0-.126.462,38.69,38.69,0,0,0,1.394,6.894.424.424,0,0,0,.823-.2c-.25-1.223-.773-5.405-.907-6.584a20.542,20.542,0,0,0,3.956-8.364,7.224,7.224,0,0,0,1.528-.118c2.49-.474,3.019-2.578,2.205-4.061A.392.392,0,0,0,169.98,66.046ZM151.2,58.806a1.6,1.6,0,0,1,1.428-2.351c-.155-2.363,1.158-4.123,3.081-2.939a.423.423,0,1,1-.327.781,2.106,2.106,0,0,0-.5-.034.9.9,0,0,0-.327.084.7.7,0,0,0-.3.269,3.763,3.763,0,0,0-.244,2.427.654.654,0,0,1-.815.764c-.673-.2-1.217.05-1.217.814A.4.4,0,0,1,151.2,58.806Zm6.984,10.886c-1.907.953-3.234-1.8-4.208-2.62a1.891,1.891,0,0,0-2.166-.3c-1.037.567-1.366,1.841-1.873,2.6-.459.689-.948.713-1.369.395-1.2-.906-1.37-4.225-.882-6.055,1.431-.327,3.774-.634,5.1-.8,1.357,1.1-.464-.286,8.14.152a11.481,11.481,0,0,1-1.7,5.684A2.692,2.692,0,0,1,158.179,69.692Zm5.416-3c-.973,2.786-3.051,4.013-4.492,3.936,1.982-1.308,2.753-4.9,2.7-7.272.348.362.7.6,2.17,1.934A6.461,6.461,0,0,1,163.6,66.694Z" fill="#191919"></path><path d="M107.261,68.151a15.657,15.657,0,0,0-3.944.148,4.1,4.1,0,0,0-4.487-2.824,3.9,3.9,0,0,0-3.515,2.891,16.51,16.51,0,0,0-4.22.47.4.4,0,0,0,.126.8,31.937,31.937,0,0,0,3.895-.3,4.754,4.754,0,0,0,.355,2.418,4.481,4.481,0,0,0,4.216,2.292,4.02,4.02,0,0,0,3.827-4.905,16.467,16.467,0,0,0,3.8-.161A.417.417,0,1,0,107.261,68.151Zm-7.1-1.01c-1.613,3.884-.737,1.647-2.066,4.577a.648.648,0,0,1-1.066.168,3.291,3.291,0,0,1,2.561-5.509C99.943,66.405,100.388,66.724,100.162,67.141Z" fill="#191919"></path><path d="M86.616,89.764a2.483,2.483,0,0,0-.764-1.965c-1.385-1.55-4.189-1.436-6.24-1.352-.747-3.179-2.109-10.251-4.719-12.2-1.161-.893-2.238-.414-3.015.814-.542.867-.713,1.454-2.469,6.551-.726,2.107-2.25,4.14-1.906,6.491.016.118.587,48.96.588,49.06a.545.545,0,0,0,.453.538c.9.159,1.812.313,2.73.4a66.49,66.49,0,0,0-3.345,6.983.634.634,0,0,0,.185.739c2.816,2.379,7.735,1.714,10.951-.1a.624.624,0,0,0,.285-.781,71.285,71.285,0,0,0-2.775-6.958,20.438,20.438,0,0,0,2.911-.676c.676-.2.065-.842-.008-5.274a22.975,22.975,0,0,0,3.863-.117c2.532-.4,3.821-2.666,1.663-4.459-1.278-1.059-3.2-1.126-4.862-1.126A320.29,320.29,0,0,1,80,92.72C82.125,92.589,86.32,91.949,86.616,89.764Zm-9.382,53.018a7.989,7.989,0,0,1-4.657.372.4.4,0,1,0-.21.781,6.922,6.922,0,0,0,5.183-.232c.162.47.308.89.4,1.142-2.513,1.215-6.314,1.829-8.625.261.536-1.338,1.2-2.743,1.88-4.417a7.954,7.954,0,0,0,3.936.428.424.424,0,0,0-.017-.848c-1.136-.149-2.894-.323-3.594-.386.225-.569.444-1.14.657-1.717a22.5,22.5,0,0,0,3.514-.076C76.508,140.5,76.127,139.54,77.234,142.782Zm2.4-15.354c1.521-.028,3.551-.125,4.737.807,1.525,1.22.483,2.478-1.176,2.779a34.729,34.729,0,0,1-3.754.185.406.406,0,0,0-.764.176,46.223,46.223,0,0,0,.193,5.157,21.334,21.334,0,0,1-9.657.168c0-.664-.008-2.9-.031-6.046a26.828,26.828,0,0,0,7.16.5,12.881,12.881,0,0,0,2.746-.386.435.435,0,0,0,.386-.462.431.431,0,0,0-.462-.386c-3.894-.124-.92-.055-3.83-.048a21.994,21.994,0,0,0,.228-2.393c-.008-.285-.151-10.648-.168-11.253a14.129,14.129,0,0,1,3.267-.472c.139,4.2.389,7.27.579,11.156A.556.556,0,0,0,79.629,127.428Zm-.235-35.984a.647.647,0,0,0-.655.613c-.435,7.425-.491,15.436-.263,22.812a11.032,11.032,0,0,0-4.02.213.633.633,0,0,0-.512.638c.1,4.124-.043,8.486.269,11.824.092.865.076,1.9.113,2.324-2.512-.025-3.251-.193-5.156-.3-.335-44.323-.329-41.353-.374-41.653-.269-1.905,1.163-3.868,1.856-5.887,1.754-5.11,1.81-5.285,2.142-5.929.235-.445.478-.857.831-.983.117-.05.243.017.369.093,2.356,1.637,3.791,9.253,4.476,12.067a.657.657,0,0,0,.655.5c1.612-.054,4.67-.326,5.744.89.362.4.521.722.437,1.008C84.961,90.851,80.788,91.459,79.394,91.444Z" fill="#191919"></path></svg>