<svg viewBox="0 0 200 200" xmlns="http://www.w3.org/2000/svg"><path d="M115.434,142.5c5.651-3.956,13.455-1.936,16.11-2.137,1.3-.1,2.5-.809,3.806-.835a.333.333,0,0,1,.313.417,3.482,3.482,0,0,1-2.085,2.555c.729.574,2.137,1.825,2.189,1.877a.417.417,0,0,1,.47.157.467.467,0,0,1,.052.573c1.865,2.612,1.422,5.506-.365,7.039a26.691,26.691,0,0,1,9.7-.991,40.711,40.711,0,0,1,9.228.938,16.668,16.668,0,0,1,3.077,1.043,15.161,15.161,0,0,0,.834-12.044c-3.231-8.858-13.453-15.016-23.41-14.806-8.853.186-16.42,4.938-19.551,9.853a18.356,18.356,0,0,0-2.138,4.276A11.626,11.626,0,0,1,115.434,142.5Zm40.823,7.4c-.417.677-1.355.521-2.033.312-3.686-.789-6.5-4.927-9.385-5-2.658-.072-6.1,1.825-5.839,4.9,0,.157-.261.209-.261.052-.613-3.065,2.561-5.533,5.579-5.735,3.865-.259,6.7,4.547,10.636,5.11a1.707,1.707,0,0,0,.886,0C156.153,149.38,156.466,149.641,156.257,149.9Z" fill="#191919"></path><path d="M133.63,154.542a41.626,41.626,0,0,1,22.523-.365,62.062,62.062,0,0,1,7.82,3.024.21.21,0,0,0,.209-.365c-3.578-2.574-9.981-4.144-14.442-4.536-6.126-.539-10.553-.557-16.006,1.564a36.917,36.917,0,0,0-7.247,3.076c-1.981-.73-3.963-1.352-6-1.929a46.529,46.529,0,0,0-12.513-2.085,28.794,28.794,0,0,0-7.038.677c-.209.05-.105.365.1.313,13.632-2.243,28.525,5.5,31.387,6a.283.283,0,0,0,.208-.521,51.872,51.872,0,0,0-5.214-2.086c.47-.261.939-.469,1.408-.678A28.847,28.847,0,0,1,133.63,154.542Z" fill="#191919"></path><path d="M127.06,155.95c.631-.25,7.665-3.806,7.769-3.494,0-.052-.052-.1,0-.156,1.095-1.512,2.2-2.858,1.72-4.9a6.584,6.584,0,0,0-.886-1.981c-.052,0-.052,0-.1.052-1.317.439-1.585,2.417-3.337,2.659-.156,0-.261-.209-.052-.261,1.023-.255,1.186-2.142,2.763-3.128.052,0,.1-.052.156-.052-.97-1.165-1.876-1.579-1.876-2.086-.1-.1-.053-.26.052-.365.825-.618,1.333-.871,1.668-1.876-1.5.273-1.947.9-3.806.938-2.3.043-4.418-.537-8.5-.261-2.45.166-7.352,2.5-7.352,2.5a10.312,10.312,0,0,0-2.346-2.711c-.621-.475-2.491-1.61-3.128-.522-.725,1.239,2.773,7.575,3.493,9.072.627,1.3,1.877,4.015,1.877,4.015C120.022,153.343,126.232,156.277,127.06,155.95Zm.73-3.754a2.689,2.689,0,0,0,1.929-2.242c-.47-.188-.769-.71-.312-.939.365-.1,1.1-.315,1.355.105.159.259-.1.573-.261.782a1.532,1.532,0,0,0,.678.938,1.282,1.282,0,0,0,.626.209c.156.052,1.095.156.73.521-.419.419-1.511.314-2.294-.73.1.156-.365.626-.417.678a2.105,2.105,0,0,1-1.929.834C127.686,152.4,127.634,152.2,127.79,152.2Zm-8.6-6.048a4.164,4.164,0,0,1,3.284-.209c1.948.649,2.554,2.118,4.38,2.346a.19.19,0,0,1,0,.365c-1.333.461-3.068-1.068-4.223-1.668a3.835,3.835,0,0,0-2.034-.365c-.365.052-.677.156-1.042.209a2.658,2.658,0,0,1-.887.156C118.464,146.982,118.5,146.421,119.188,146.148Z" fill="#191919"></path><path d="M42.025,117.107c.656,0,3.358.266,4.953.418-6.077-7.735-3.034-18.4-6.83-27.007-.052-.157.156-.313.261-.157,4.455,9.158,1.413,19.3,7.3,27.059,0,.052.052.052.052.105,3.5.318,3.255.312,3.545.312.313,0,.417-.417.157-.521-3.247-1.791-4.56-4.17-5.527-7.612-1.185-4.222-.975-8.471-1.042-11.262-.218-9.035-3.336-11.235-8.082-16.84a19.84,19.84,0,0,1-4.536-9.176c-.054-.312,1.408-.521,1.617-.521,4.379-.773,6.026,4.223,10.166,4.223a.3.3,0,0,0,.261-.417c-.568-.839-1.2-1.67-1.773-2.5a8.447,8.447,0,0,0-3.232-3.232,8.9,8.9,0,0,0-7.716-.053c-.794.45-1.254,1.3-2.086,1.669a7.455,7.455,0,0,0-2.972,2.4c-.565.788-1.2,2.19-.469,3.024a36.586,36.586,0,0,1,7.143,12.357c1.2,3.805.271,10.482-.261,12.773-.715,3.08-1.527,6.254-1.3,9.437.1,1.437.628,3.817,1.616,4.849a.276.276,0,0,0,.469-.261c-.274-.725-.625-1.408-.834-2.138-1.224-4.284-.228-7.406.678-11.522,2.056-9.344-.943-2.013,3.545,7.4a28.176,28.176,0,0,0,4.015,6.256C41.347,116.482,41.66,117.055,42.025,117.107Z" fill="#38a1ff"></path><path d="M40.044,76.232a4.808,4.808,0,0,1,1.1,1.2c.215.34.238.7.365.887.1.1.26.1.312,0,.313-.313.053-.939-.1-1.252-.726-1.255-2.284-1.831-4.275-3.128-.158-.1-.261.156-.156.261C39.829,76.181,38.785,75.288,40.044,76.232Z" fill="#191919"></path><path d="M35.821,79.1a3.268,3.268,0,0,0,1.2-.365,2.993,2.993,0,0,0,1.3-1.564c.1-.262,0-.841-.417-.574a.708.708,0,0,0-.261.417,3.423,3.423,0,0,1-.886,1.2c-.156.157-1.147.574-1.147.73C35.612,79.047,35.716,79.1,35.821,79.1Z" fill="#191919"></path><path d="M64.392,163.874a9.172,9.172,0,0,0,.625-2.554c.173-1.461-.422-3.033.939-4.171.256-.215,1.512-.47,1.668-.73a23.828,23.828,0,0,0-.573-5.058.283.283,0,0,0-.522-.052c-.1.1.053.417.053.574.278,1.394.488,3.007.677,4.014a2.707,2.707,0,0,0-2.294,1.147c-.885,1.148-.574,2.607-.625,3.911-.1,2.446-1.222,4.9-3.6,5.526-.208.055-.1.365.1.365A4.665,4.665,0,0,0,64.392,163.874Z" fill="#191919"></path><path d="M68.823,164.6a.23.23,0,0,0-.312-.156c-.475.25-.675.837-.991,1.251a6.993,6.993,0,0,1-4.64,2.5c-.209,0-.209.26,0,.313a5.87,5.87,0,0,0,3.6-1.043,6.741,6.741,0,0,0,2.086-2.086C68.719,165.23,68.928,164.813,68.823,164.6Z" fill="#191919"></path><path d="M71.326,165.543a8.089,8.089,0,0,1-2.815,5.161c-.212.152,0,.522.208.365a8.881,8.881,0,0,0,3.076-4.223,1.932,1.932,0,0,0,0-1.46C71.7,165.175,71.326,165.334,71.326,165.543Z" fill="#191919"></path><path d="M74.767,163.77c-.494-2.56-1.981-10.532-2.138-10.949a12.18,12.18,0,0,0,2.4.052c.365-.052.365-.625,0-.573a14.089,14.089,0,0,1-7.456-1.564c-1.3-.642-4.171-2.242-5.422-.834-2.236-4.752-8.791-14.818-14.442-26.121-.574-1.147-1.1-2.341-1.668-3.441-.266-.519-.522-.991-.73-1.512-.053-.156-.315-.052-.261.1a78.048,78.048,0,0,0,5.474,11.887c3.02,5.79,10.216,17.885,10.532,18.353,1.151,1.7,1.386,2.759,3.91,3.18a.111.111,0,0,0,.052-.208c-.573-.209-2.257-.83-2.45-1.46-.284-.932,1.616-.522,1.981-.47a15.9,15.9,0,0,1,3.65,1.512,14.071,14.071,0,0,0,3.91,1.147c0,.418,1.6,9.18,1.825,10.428.477,2.606,1.6,5.7-.209,7.508-.156.156.053.418.209.312C76.036,169.689,75.242,166.23,74.767,163.77Z" fill="#191919"></path><path d="M29.877,104.855a11.129,11.129,0,0,0,1.356.469c.26.105.417-.312.156-.417-.417-.208-.782-.521-1.2-.73A38.12,38.12,0,0,1,22.421,98.7,35.393,35.393,0,0,1,12.15,80.247a37.217,37.217,0,0,1-.729-11.418c.22-1.844,1.051-5.075,2.659-5.579a2.821,2.821,0,0,1,2.554.626,7.822,7.822,0,0,1,2.138,4.118c.057.208.361.106.313-.1-.454-1.973-1.038-4.235-3.129-5.109a2.9,2.9,0,0,0-2.711.1,5.135,5.135,0,0,0-1.772,2.5,17.832,17.832,0,0,0-1.043,6.829C10.43,86.511,18.159,99.175,29.877,104.855Z" fill="#191919"></path><path d="M149.427,30.456c5.609.614,11.478.67,16.006,4.379,7.331,6.005,7.572,17.7,7.873,27.841.154,5.181-.263,11.761.052,14.912,0,.208.369.313.417.052.676-3.641.417-7.56.417-11.262,0-3.962-.1-7.873-.365-11.835-.354-5.214-1.218-10.573-3.806-15.172-4.351-7.731-11.568-9.28-20.542-9.28C149.167,30.039,149.167,30.4,149.427,30.456Z" fill="#191919"></path><path d="M78.052,30.4c1.346.215,16.813-.209,18.195-.209a6.506,6.506,0,0,0,2.19-.261c.156-.053.1-.31-.052-.365-1.152-.4-2.711-.1-3.962-.052-1.39.056-15.142.3-16.423.574C77.843,30.039,77.843,30.4,78.052,30.4Z" fill="#191919"></path><path d="M30.294,58.975c.269-.539-.128-1.645.834-7.925.863-5.635,2.7-11.691,7.456-15.276,4.163-3.139,9.7-3.608,14.911-3.963,6.308-.429,12.617-.834,18.978-1.251.1-.365-.417-.524-.782-.521-6.57.052-13.088.508-19.6,1.095-3.963.356-8.031.778-11.574,2.606C31.54,38.371,29.825,50.111,29.981,59.183,30.086,59.235,30.19,59.131,30.294,58.975Z" fill="#191919"></path><path d="M194.578,91.143c-3.8,13.033-10.779,15.23-20.386,47.653-1.251,4.224-2.335,8.464-3.545,12.722-.149.523-.209,1.043-.313,1.616-.052.417.469.574.678.157,1.668-4.015,2.405-8.5,3.6-12.67,9.028-31.594,16.437-35.988,19.969-47.862.155-.521.313-.99.417-1.512A.215.215,0,0,0,194.578,91.143Z" fill="#191919"></path><path d="M26.436,133.218c-5.938-15.054-12-18.086-17.153-25.495-3.339-4.8-5.045-10.686-2.346-15.85.108-.207-.157-.365-.261-.156-2.711,4.275-1.812,9.742.469,14.025,4.838,9.081,11.187,10.677,17.623,25.651,5.7,13.271,7.324,27.674,8.394,31.6a.324.324,0,0,0,.625-.1C33.314,157.324,29.944,142.11,26.436,133.218Z" fill="#191919"></path><path d="M104.172,171.069c.157.105.365-.156.209-.26a39.824,39.824,0,0,1-7.143-6.83c-3.2-4.319-4.585-9.982-2.555-14.912a8.742,8.742,0,0,1,5.735,2.972c.153.16.418-.052.313-.26a8.157,8.157,0,0,0-6.256-3.441c-.1,0-.261.052-.261.156-2.339,5.262-1.342,12.563,5.318,19.082A21.215,21.215,0,0,0,104.172,171.069Z" fill="#191919"></path><path d="M168.874,151c-1.1-.884-2.445-.1-3.389.573a10.213,10.213,0,0,0-2.659,2.763c-.1.158.105.313.261.209a11.3,11.3,0,0,1,2.346-2.242c.738-.51,2.034-1.512,2.972-.886a4.25,4.25,0,0,1,1.251,2.554c1.064,4.255-.242,8.433-2.971,11.888-2.141,2.709-4.921,4.3-7.769,6.152-.157.1-.052.417.157.365a19.137,19.137,0,0,0,9.958-8.551C171.985,158.322,170.577,152.367,168.874,151Z" fill="#191919"></path><path d="M169.291,174.25c-3.646-.317-32.027-.657-57.507.782-5.37.3-10.688.73-16.058,1.147a.157.157,0,0,0,0,.313c47.9-3.124,68.541-1.453,73.565-1.825C169.6,174.719,169.6,174.3,169.291,174.25Z" fill="#191919"></path><path d="M40.565,81.394c.1-.023,2.672-.339,2.972-.939.2-.405-.362-.472-.626-.208a19.107,19.107,0,0,0-2.4.938C40.357,81.237,40.409,81.394,40.565,81.394Z" fill="#191919"></path><path d="M35.143,75.763c.635-.563,1.564-.73,1.355-1.043-.208-.261-.674-.1-1.2.156-.881.428-1.251,1.877-.886,1.93C34.569,76.806,34.423,76.4,35.143,75.763Z" fill="#191919"></path><path d="M45.049,87.494a2.73,2.73,0,0,0,.626.1c.156,0,.469.052.573-.1.46-.537-1.024-.584-2.815-1.095a16.993,16.993,0,0,0-2.451-.678c-.1-.052-.208.155-.1.209C43.383,87.23,41.985,86.757,45.049,87.494Z" fill="#191919"></path><path d="M19.867,67.108a28.367,28.367,0,0,1,15.172-2.555,10.693,10.693,0,0,1,1.72.313c.522.1.993.2,1.512.313.21.047.313-.261.157-.313a6.385,6.385,0,0,0-.887-.365,5.349,5.349,0,0,1,4.223-1.929c1.972.538,0,2.5-.417,4.223a7.439,7.439,0,0,0-.156,3.285.211.211,0,0,0,.417-.052c.087-3.486.3-3.306,1.408-5.735a1.464,1.464,0,0,0-.782-2.034,3.421,3.421,0,0,0-2.607.261,5.831,5.831,0,0,0-2.4,1.877,25.747,25.747,0,0,0-5.265-.574c-4.021,0-9.019.973-12.3,3.077C19.5,66.952,19.657,67.211,19.867,67.108Z" fill="#191919"></path><path d="M49.793,81.5c-.156-.052-.312.156-.156.261.052.052.1.156.209.208a14.329,14.329,0,0,0-1.2,1.877c-.625-.1-3.232-.417-3.858-.573,2.371-1.739,1.845-4.5-.156-6.726-.1-.1-.261.052-.209.156a5.976,5.976,0,0,1,1.2,4.119c-.65,3.167-4.988,2.653-5.943,2.868-.21.047-.157.312,0,.365a6.069,6.069,0,0,0,3.441,0,9.872,9.872,0,0,0,1.408-.574c.365.156,3.545.939,4.275,1.095a.353.353,0,0,0,.417-.156,11.333,11.333,0,0,0,1.043-2.034,3.3,3.3,0,0,1-.209,4.275,6.055,6.055,0,0,1-5.266,1.929.251.251,0,0,0-.313.105c-.312.521-.834,1.72-.834,1.72,0-.052.1.209.1.313.365-.521.73-1.043,1.043-1.564,1.99.711,6.339-1.205,6.726-4.432C51.83,83.623,51.148,81.724,49.793,81.5Z" fill="#191919"></path><path d="M56.884,81.029A53.573,53.573,0,0,1,63.193,79c4.468-1.1,6.465,1.075,9.124,2.138.052.052.1.156.156.208,2.465,3.2,6.921,4.3,9.645,3.389.209-.052.209-.469-.052-.417a11.321,11.321,0,0,1-6.256-1.095c-2.5-1.284-4.614-3.988-5.162-8.185a.131.131,0,0,0-.26,0,8.437,8.437,0,0,0,1.3,5.109,12.662,12.662,0,0,0-4.64-1.981,12.489,12.489,0,0,0-6.517,1.2c-1.2.479-2.451.991-3.65,1.512C56.675,80.872,56.78,81.081,56.884,81.029Z" fill="#191919"></path><path d="M71.274,113.51c4.182-.744,10.578-1.414,14.181-1.616,5.586-.313,11.7-.735,15.433,3.284a10.144,10.144,0,0,1,1.512,2.555c.152.315.573.052.521-.208a7.036,7.036,0,0,0-3.232-4.38c-3.655-2.476-8.544-2.226-13.087-1.981A92.435,92.435,0,0,0,71.17,113.3C71.065,113.354,71.117,113.51,71.274,113.51Z" fill="#191919"></path><path d="M163.5,115.648c-.782-3.806-4.635-6.12-8.185-6.987-5.7-1.392-22.792-.527-28.624-.052-7.279.593-16.9,1.276-21.428,6.83-.257.316-.521.678-.782,1.043-.052.1.1.26.209.156a17.4,17.4,0,0,1,8.811-5.318c8.214-2.37,32.022-3.152,39.572-2.242,3.756.453,7.643,2.07,9.437,5.579a11.676,11.676,0,0,1,.521,1.251C163.087,116.117,163.608,116.013,163.5,115.648Z" fill="#191919"></path><path d="M163.921,131.184c.416-3.263.767-19.522,1.095-25.807.248-4.751.7-9.143,4.171-12.461.107-.1-.052-.313-.156-.209-3.6,2.607-4.365,7.3-4.64,11.418-.034.5-.946,23.445-.835,27.007C163.5,131.445,163.869,131.445,163.921,131.184Z" fill="#191919"></path><path d="M44.736,143.176A158.708,158.708,0,0,0,40.461,121.8a.134.134,0,0,0-.261.052c4.837,23.377,4.138,25.554,5.318,35.192.052.261.417.261.417,0A132.083,132.083,0,0,0,44.736,143.176Z" fill="#191919"></path><path d="M97.759,130.455a11.719,11.719,0,0,0,2.92-1.356c2.5-1.717,3.036-3.822,2.451-5.579a.19.19,0,0,0-.365.105,4.815,4.815,0,0,1-2.4,4.9,19.655,19.655,0,0,1-6.1,2.242c-8.513,2.066-16.88,1.3-21.376,1.669h-.052c0-.679-1.774-7.109-2.607-9.8-2.087-6.745-5.314-14.484-3.7-21.22.053-.156-.211-.209-.26-.052-2.1,6.69.663,13.56,2.659,19.969,4.979,15.986,4.818,23.437,5.943,30.187.052.208.417.156.417-.052v-2.555a103.353,103.353,0,0,0-2.346-16.162,67.433,67.433,0,0,0,7.247.156C86.506,132.768,92.085,132.393,97.759,130.455Z" fill="#191919"></path><path d="M116.216,130.194a7.026,7.026,0,0,0,1.825-.313c.156-.052.208-.365,0-.365a12.769,12.769,0,0,0-1.981.052c-1.572.121-6.449.151-8.864-.678a3.343,3.343,0,0,1-2.033-1.72c-.051-.105-.209-.052-.209.1.365,1.512,1.872,2.264,3.233,2.607A28.411,28.411,0,0,0,116.216,130.194Z" fill="#191919"></path><path d="M136.758,86.555c-10.822.492-18.041,4.389-24.661,2.607,5.083-4.335,12.062-13.76,14.129-16.215.105,1.877-.365,13.556-.26,14.494A51.156,51.156,0,0,1,136.6,85.982c1.877-9.382,4.293-21.015,2.555-30.031-.261-1.356-.464-2.823-1.72-3.65-2.2-1.449-5.855.43-8.238,1.512a75.946,75.946,0,0,0-9.437,5.214C116.58,61.059,100.21,73,100.158,73.26a1.851,1.851,0,0,0,.313,1.2c.254.369,6.465,3.441,6.83,3.7a1.944,1.944,0,0,1,.782,1.043,39.749,39.749,0,0,1,1.459,4.223c.239,1.62,0,19.343-.156,19.968a1.052,1.052,0,0,1-.782.887c-.4.084-3.989.321-14.129,1.407a.3.3,0,0,0-.313.313v1.147a.336.336,0,0,0,.313.313,84.171,84.171,0,0,0,36.026-4.953c6.148-2.2,12.831-2.017,19.083-3.91,8.192-2.481,16.214-6.6,24.973-6.569,3.65.01,3.728-7.6,2.4-9.75-.32-.518-2.5-.2-3.024-.209a155.758,155.758,0,0,0-17.571,1.773C154.321,84.283,141.346,86.347,136.758,86.555Z" fill="#38a1ff"></path><path d="M178.311,83.427a10.951,10.951,0,0,0,5-5.005c1.31-2.395,1.853-5.128,3.546-7.352.36-.473.938-1.2,1.668-1.042,1.251.264.94,3.493.834,4.327-.474,3.748-2.634,6.2-3.128,8.342-.265,1.146.139,2.645-.626,3.6-.907,1.131-3.286,1.085-4.588,1.3-.887.149-1.825.313-2.711.469-.208.052-.156.313.052.313.834-.052,1.722-.043,2.555-.156,1.41-.193,3.337-.209,4.588-.991s1.23-2.242,1.2-3.545c-.058-2.453,3.59-5.974,3.285-11.21-.061-1.042-.209-3.134-1.721-3.024-1.356.1-2.29,1.827-2.867,2.868-1.512,2.724-1.9,5.3-3.858,7.768A9.4,9.4,0,0,1,178,82.906C177.634,83.064,177.947,83.585,178.311,83.427Z" fill="#191919"></path><path d="M50.888,79.621A35.393,35.393,0,0,1,59.6,70.706c6.848-4.913,16.5-8.028,24.869-6.674A19.12,19.12,0,0,1,98.8,74.094a17.871,17.871,0,0,1,1.721,6.57A16.627,16.627,0,0,1,95.83,82.8c-1.564.47-3.232.678-4.848,1.043a23.766,23.766,0,0,0-3.129-5.422c-3-3.353-4.148-4.6-8.185-6.622-.209-.1-.1.365-.052.365-2.711.365-8.968,1.617-8.864,1.721,1.773,1.512,7.361,5.722,8.29,6.413,1.619,1.2,3.513,2.925,5.527,2.607l.625,3.284a1.957,1.957,0,0,0-.938.417c-.967.763-.731,2.258-.834,3.7,0,1.105-.365,15.076-.365,15.954a13.255,13.255,0,0,1-4.119-7.508,16.4,16.4,0,0,1,3.441-13.4c.1-.1-.052-.313-.156-.156a15.323,15.323,0,0,0-2.712,17.57,20.025,20.025,0,0,0,3.65,4.484,139.975,139.975,0,0,1,19.551-2.816c1.824-.165,3.6-.365,5.423-.521a.244.244,0,0,0,.26-.261c-.114-4.9.261-17.275.261-19.916-.1,0-4.432.886-5.37.938a22.984,22.984,0,0,1,1.3,4.8,7.761,7.761,0,0,1-.208,4.484c-.157.417-.258.635-.73.782-.725.224-1.51.266-2.294.469s-2.735.96-3.389.469c-.654-.436-.746-2.3-1.564-3.076a1.857,1.857,0,0,0-1.877-.208c-1.612.383-2.2-1.718-2.555-2.868a15.875,15.875,0,0,1-.678-3.233c-.055-.625-.26-2.085-.312-2.189.365,0,.73-.052,1.094-.052a9.746,9.746,0,0,0,.418,4.118,13.618,13.618,0,0,0,.729,2.086,10.287,10.287,0,0,0,1.095,1.825c.105.1.365-.052.313-.209-.085-.514-.878-1.878-1.46-3.858-.381-1.3-.469-2.659-.73-3.962a21.418,21.418,0,0,0,3.65-.574c3.812-1.019,4.849-2.4,4.849-2.5.682-6.482-4.715-14.8-14.442-17.2-8.644-2.133-18.685.707-26.017,5.631a33.727,33.727,0,0,0-9.853,10.115C50.628,79.621,50.836,79.725,50.888,79.621Zm40.041,6.465c-.655.155.008-.056-2.659.573-.467.111-.886.157-1.355.261a3.386,3.386,0,0,1-1.251.1c-.105-.052-.157-.156-.052-.26a3.077,3.077,0,0,1,1.2-.365c.415-.111.885-.162,1.3-.261a10.746,10.746,0,0,1,1.356-.156c.469-.052.886-.157,1.355-.209C91.034,85.669,91.139,86.037,90.929,86.086Z" fill="#191919"></path><path d="M96.2,88.745a9.2,9.2,0,0,1,.574,1.043c.365.73,1.155,3.907,1.408,4.64.053.156.312.156.312,0,.157-.991-1.1-4.9-1.616-5.787a1.6,1.6,0,0,0-1.981-.939c-1.044.309-.657,1.762-.209,2.607a.112.112,0,0,0,.209-.052,5.969,5.969,0,0,1-.1-1.408A.738.738,0,0,1,96.2,88.745Z" fill="#191919"></path><path d="M100.366,94.584a11.4,11.4,0,0,0,0-3.962c-.046-.366-.1-.991-.417-1.251a.182.182,0,0,0-.313.1c-.149.6.522.844.522,5.109C100.158,94.689,100.366,94.741,100.366,94.584Z" fill="#191919"></path><path d="M101.461,89.058a.176.176,0,0,0-.261.156,3.518,3.518,0,0,0,.418,1.147,10.543,10.543,0,0,1,.729,3.65.131.131,0,0,0,.261,0C102.859,91.875,102,89.509,101.461,89.058Z" fill="#191919"></path><path d="M103.651,90.883c.281,2.528.194,2.217.261,2.815,0,.1.156.156.208,0a13.051,13.051,0,0,0-.365-5.735,19.022,19.022,0,0,0-1.564-4.119,3.662,3.662,0,0,0-.782-1.2.2.2,0,0,0-.313.208C101.39,84.028,103.06,85.562,103.651,90.883Z" fill="#191919"></path><path d="M106.518,78.787s-4.219-2.3-5.109-2.972a.25.25,0,0,0-.365.313,9.07,9.07,0,0,1,.626,3.18C102.66,79.152,105.893,78.891,106.518,78.787Z" fill="#191919"></path><path d="M108.76,83.062c0-.052-1.459-3.545-1.564-3.754-.6.075-5.421.574-5.526.574,0,.26.057.521.052.782-.026,1.46,1.2,3.128,1.512,3.754C104.224,84.209,108.656,83.062,108.76,83.062Z" fill="#191919"></path><path d="M53.912,57.515a10.385,10.385,0,0,0-3.545,1.095c-.209.1-.052.417.156.365.626-.105,2.659-.626,3.076-.678a6.21,6.21,0,0,1-1.094,2.659.342.342,0,0,0,.312.521,11.973,11.973,0,0,0,3.806-.73c.416-.159.261-.834-.208-.677a14.011,14.011,0,0,1-2.92.677,6.772,6.772,0,0,0,.834-2.867C54.381,57.619,54.121,57.515,53.912,57.515Z" fill="#191919"></path><path d="M61.681,43.8a.341.341,0,0,0,0-.574,8.454,8.454,0,0,0-4.9-1.042c-.209,0-.261.369,0,.365a8.422,8.422,0,0,1,4.119.99A8.089,8.089,0,0,0,58.657,46.1a.364.364,0,0,0,.208.521,37.679,37.679,0,0,0,3.754.678c.417.052.521-.626.1-.73-1.042-.261-2.137-.417-3.18-.573A6.578,6.578,0,0,1,61.681,43.8Z" fill="#191919"></path><path d="M67.468,108.192c2.294,0,8.133.626,8.707.73.417.052.889.211,1.2-.156.263-.311.573-5.371.678-6.622,0-.1-.209-.156-.261-.052-.782,1.825-.834,6.309-1.095,6.309s-4.535-.5-5.631-.522c-1.2-.028-2.45,0-3.649.052C67.259,107.879,67.259,108.192,67.468,108.192Z" fill="#191919"></path><path d="M71.17,27.015c.99.417,1.925.894,2.919,1.355.572.265,1.929.678,1.356,1.512a2.507,2.507,0,0,1-.939.834c-.422.253-2.815,1.929-3.6,2.555a.375.375,0,0,0,.156.626c1.049.236,5.209,1.433,6.309,1.616.364.061.521-.469.156-.573-.99-.365-4.744-1.3-5.526-1.512,2.684-2.11,3.924-2.246,4.275-3.546.438-1.619-2.131-1.974-4.953-3.128C71.117,26.65,71.013,26.963,71.17,27.015Z" fill="#191919"></path><path d="M125.184,122.217c0-.157-.157-.261-.313-.313a4.369,4.369,0,0,0-3.337,1.043c-.157.1.054.368.208.26a4.271,4.271,0,0,1,2.816-.782c0,1.953-.049,2.2.156,2.5.523.627,1.675.067,2.5-.209a.272.272,0,0,0-.157-.521c-1.042.149-1.863.739-1.929.313C125.056,124.027,125.184,123.293,125.184,122.217Z" fill="#191919"></path><path d="M129.563,117.525c-.054-.365-.365-.522-.678-.678a6.251,6.251,0,0,0-2.346-.73c-.261-.052-.261.313-.052.417a12.14,12.14,0,0,1,2.033.938c.1.053.365.105.417.209-.052-.052-.052.052-.1.1s-.1.157-.156.209c-.47.469-1,.779-1.2,1.407a1.091,1.091,0,0,0,.782,1.46,7.669,7.669,0,0,0,1.2.209,6.021,6.021,0,0,0,1.355.156c.313,0,.364-.466.052-.573-1.32-.456-2.711-.271-2.711-.887a.892.892,0,0,1,.365-.677C128.885,118.672,129.664,118.2,129.563,117.525Z" fill="#191919"></path><path d="M107.613,42.708c-2.078-9.457-2.208-11.237-3.91-12.878a5.8,5.8,0,0,0-5.318-1.46c-.208.056-.1.313.1.313a5.784,5.784,0,0,1,4.8,1.46c1.569,1.454,1.831,3.7,2.294,5.683,1.673,7.167,3.8,17.928,4.432,21.428,0,.1.156.209.26.209a68.418,68.418,0,0,0,12.409-1.147c.312-.058.157-.52-.156-.47a73.742,73.742,0,0,1-12.044,1.043C109.6,52.093,108.645,47.4,107.613,42.708Z" fill="#38a1ff"></path><path d="M156.674,54.334a1.433,1.433,0,0,0-.417-2.033c-2.5-1.662-12.473,1.377-15.328,2.346-.156.053-.1.368.1.313,2.832-.75,10.765-3.242,14.338-2.5,1.37.283,1.595,1.352-.052,2.45-1.284.856-3.75,1.348-5.266,1.721-3.021.742-6.1,1.366-9.228,1.824-.365.054-.209.626.156.522,2.92-.47,8.863-1.773,8.915-1.773a20.97,20.97,0,0,0,2.138,6.778c-.432.027-10.863.879-10.949.886a.157.157,0,0,0,0,.313h.887a4.153,4.153,0,0,1,.1,2.555,2.581,2.581,0,0,0,.678,2.346.23.23,0,0,0,.365-.261,2.735,2.735,0,0,1-.365-2.555c.432-2.808-1.654-1.781.782-2.085v.156c.839.916.1,2.505.26,3.754.127,1,.835,1.3.835.834-.052-.208-.157-.417-.209-.625a4.55,4.55,0,0,1,0-1.981,2.373,2.373,0,0,0-.626-2.138c.522,0,.991-.052,1.512-.052.959,1.133.3,2.52.574,3.7a1.3,1.3,0,0,0,.261.625c.1.157.26.417.469.417.156,0,.313-.1.261-.26a3.586,3.586,0,0,0-.313-.626c-.473-1.229.268-2.9-.678-3.962a4.973,4.973,0,0,0,.886-.053c.47-.052.939-.052,1.408-.1.68.583-.04,2.025.521,3.6a1.949,1.949,0,0,0,.626,1.042c.1.053.209,0,.209-.1,0-.594-.574-1.189-.574-2.659a2.855,2.855,0,0,0-.365-1.877c.261,0,.521-.052.782-.052,0,.406.576.331.834,2.4a4.313,4.313,0,0,0,.626,1.825c.331.5.73.424.73.157a1,1,0,0,0-.261-.522,2.794,2.794,0,0,1-.26-.573c-.312-.832-.258-2.736-1.252-3.233.782-.052,1.512-.1,2.294-.156.963.888.206,2.656.73,3.962.148.369.417.834.834.782.1,0,.209-.1.157-.208a10.911,10.911,0,0,1-.574-1.043c-.317-1.084.245-2.521-.678-3.545a.372.372,0,0,0,.157-.313c.269-.539-.664-.524-2.555-7.143C152.227,56.752,155.584,56.045,156.674,54.334Z" fill="#38a1ff"></path><path d="M91.294,29a3.381,3.381,0,0,1,1.825-2.659,8.966,8.966,0,0,1,3.493-.991c8.95-1.186,16.538-.625,24.661-.625,10.761,0,12.32-1.113,15.9-.522,4.535.748,6.937,4.584,8.915,8.5,4.405,8.715,6.723,14.84,7.4,16.475.156.313.678.1.521-.209-1.513-4.2-4.794-11.35-6.725-15.171-1.893-3.746-4.117-8.193-8.342-9.7-3.673-1.308-5.91-.039-16.215.1-8.833.123-16.942-.559-25.286.574-2.243.3-5.1.606-6.153,2.867a3.383,3.383,0,0,0-.365,1.408C90.982,29.2,91.29,29.2,91.294,29Z" fill="#38a1ff"></path><path d="M140.981,68.724c-.052-.782-.209-1.512-.261-2.294a.131.131,0,0,0-.26,0c0,1.242-.2,4.046.573,4.432a.191.191,0,0,0,.261-.1,2.936,2.936,0,0,0-.157-.939A2.669,2.669,0,0,1,140.981,68.724Z" fill="#38a1ff"></path><path d="M110.168,64.032a.2.2,0,0,0,0-.313,4.424,4.424,0,0,0-.886-.208,16.794,16.794,0,0,1-2.764-.835c-.83-.289-2.5-.678-3.232-.312-.3-5.866-3.131-30.047-3.493-32.117,0-.156-.263-.1-.261.052.032,2.239.848,9.861,1.095,12.1,2.446,22.1,1.856,19.739,2.5,20.386a8.01,8.01,0,0,1,1.72.1c1.148.191,2.429.8,3.6,1.095A3.832,3.832,0,0,0,110.168,64.032Z" fill="#38a1ff"></path><path d="M104.016,65.544a2.338,2.338,0,0,0-.73-2.346c-.156-.1-.313.1-.209.208,1.237,1.732-.749,4.266.418,5.266a.141.141,0,0,0,.208-.1,3.426,3.426,0,0,0,0-.73v-.782A14.557,14.557,0,0,0,104.016,65.544Z" fill="#38a1ff"></path><path d="M105.215,66.691a5.809,5.809,0,0,0-.1,1.2c.052.157.208.313.365.157a2.249,2.249,0,0,0,.365-1.147A11.418,11.418,0,0,0,106,65.492a1.975,1.975,0,0,0-.834-1.877c-.157-.1-.313.1-.209.261C105.619,64.706,105.351,65.739,105.215,66.691Z" fill="#38a1ff"></path><path d="M107.2,66.482c.105,0,.209,0,.261-.1a1.6,1.6,0,0,0,.1-.99c0-.209-.156-1.147-.521-1.043-.261.052-.1.625-.1.782C107.088,65.737,106.913,66.482,107.2,66.482Z" fill="#38a1ff"></path><path d="M113.453,25.659a.134.134,0,0,0-.052.261c6.934,1.408,12.506,6.313,16.788,11.679,1.608,2.015,2.585,3.494,3.7,4.8a.168.168,0,0,0,.261-.208,39.6,39.6,0,0,0-3.232-4.536C126.494,31.747,120.767,26.845,113.453,25.659Z" fill="#38a1ff"></path><path d="M134.047,37.859c-.1-.1-.313.052-.157.157,1.565,1.616,3.016,3.239,4.484,4.9,1.3,1.467,2.538,3.622,4.171,4.745.155.107.313-.1.261-.261A86.685,86.685,0,0,0,134.047,37.859Z" fill="#38a1ff"></path><path d="M19.5,72.582c4.746,1.846,4.385,2.743,5.37,3.181.156.052.261-.052.261-.209-.157-.938-1.507-1.626-2.294-2.033a22.689,22.689,0,0,0-3.285-1.2C19.45,72.374,19.4,72.582,19.5,72.582Z" fill="#191919"></path></svg>