<?xml version="1.0" encoding="UTF-8" standalone="no"?>
<svg
   fill="none"
   viewBox="0 0 189.92965 160.33734"
   height="801.68671"
   width="949.64825"
   version="1.1"
   id="svg1762"
   sodipodi:docname="schedule_unavailable.svg"
   inkscape:version="1.2.2 (732a01da63, 2022-12-09, custom)"
   xmlns:inkscape="http://www.inkscape.org/namespaces/inkscape"
   xmlns:sodipodi="http://sodipodi.sourceforge.net/DTD/sodipodi-0.dtd"
   xmlns="http://www.w3.org/2000/svg"
   xmlns:svg="http://www.w3.org/2000/svg">
  <defs
     id="defs1766" />
  <sodipodi:namedview
     id="namedview1764"
     pagecolor="#ffffff"
     bordercolor="#000000"
     borderopacity="0.25"
     inkscape:showpageshadow="2"
     inkscape:pageopacity="0.0"
     inkscape:pagecheckerboard="0"
     inkscape:deskcolor="#d1d1d1"
     showgrid="false"
     inkscape:zoom="0.85"
     inkscape:cx="474.11765"
     inkscape:cy="401.76471"
     inkscape:window-width="1846"
     inkscape:window-height="1016"
     inkscape:window-x="74"
     inkscape:window-y="27"
     inkscape:window-maximized="1"
     inkscape:current-layer="svg1762" />
  <g
     id="collaboration--work-collaboration-job-office"
     transform="translate(-5.066287,-19.831102)">
    <g
       id="board_1_">
      <path
         id="Vector"
         fill="#38a1ff"
         d="m 76.467,21.2424 c 0,-0.9 0.7002,10e-5 14.7002,-0.6999 1.1,-0.1 0.4998,0.6 0.7998,2.5 0.3,1.6 -2.3998,1.0999 -6.5998,1.1999 -10,0.3 -8.9002,0.7 -8.9002,-3 z" />
      <path
         id="Vector_2"
         fill="#38a1ff"
         d="m 79.267,88.6425 c -0.1,-11.5 -0.5999,-11.2999 1.1001,-11.3999 5.4,-0.3 5.5,-0.1 5.5,-1 -0.2,-13.4 -0.6001,-13.6001 0.8999,-13.6001 12.3,-0.2 12.8,-0.3999 12.7,0.1001 0,0.3 -0.1999,0.3 -0.3999,0.3 -8.5,0.7 -12.7,-0.5001 -12.7,1.0999 0.3,12.9 -0.5001,12.9 1.0999,12.8 8.3,-0.3 8.6002,-0.4999 8.7002,0.8001 0.1,1 0.1999,10 0.1999,11 0,1.6 0.1999,1.0998 -8.4001,1.0998 v -0.0998 c -8.8,0.1 -8.7,0.5999 -8.7,-1.1001 z m 15.5,0.6999 c 1.4,0 0.9,0 0.7,-11 0,-1 -0.1,-0.6 -6,-0.5 -9.8,0.1 -9.7998,-0.2998 -9.7998,0.7002 0.6,10.6 -0.3,10.7 1,10.7 2.5,0 11.4998,-2e-4 14.0998,0.0998 z" />
      <path
         id="Vector_3"
         fill="#38a1ff"
         d="m 47.467,41.0425 c 0,-4.6 -0.0999,-5 0.3001,-5 0.3,0 0.4,0 0.3,4.5 0,1.3 0.3,0.1998 16.2,0.2998 1.5,0 0.8999,0.1 1.1999,-4.5 0.1,-1.3 0.5001,-0.8 -16.6999,-0.5 -0.4,0 -1.0999,0.3001 -1.0999,-0.3999 0,-0.5 0.6999,-0.3999 1.0999,-0.3999 17.6,-0.4 17.6,-0.9002 17.5,0.5998 -0.1,5.6 0.4999,6 -0.8001,6 -18,0.4 -18,0.6002 -18,-0.5998 z" />
      <path
         id="Vector_4"
         fill="#38a1ff"
         d="m 100.767,52.0425 c 0,-0.5 -0.6,-0.5 -0.6,0 -0.1,0.9 -0.1,13.2999 0.2,20.3999 0,1.2 0.2,1.3999 1.3,1.3999 7.615,0.0295 13.444,-0.0629 17.084,-0.1951 l 0.218,-0.585 c -3.409,-0.0583 -9.016,-0.0507 -17.102,0.0801 -0.8,0 -0.6,0 -0.7,-8 -0.1,-3.8 -0.1,-9.7998 -0.4,-13.0998 z" />
      <path
         id="Vector_5"
         fill="#38a1ff"
         d="m 123.367,51.4423 c -0.1,-1.3 -0.3,-0.9999 -9.2,-0.8999 -4.8,0.1 -10.3,0.0999 -11.8,0.3999 -0.5,0 -0.5,0.6001 0,0.6001 3.2,0.1 14.8,-0.1002 19.5,-0.2002 0.6,0 0.8,0.2001 0.8,0.8001 -0.085,5.8947 -0.083,10.2457 -0.029,13.3268 l 1.086,-1.2809 c 0.067,-3.7017 -0.008,-8.3139 -0.357,-12.7459 z" />
      <path
         id="Vector_6"
         fill="#38a1ff"
         d="m 92.067,36.8423 c 0,-0.8 18.5,-0.9999 24.1,-1.3999 0.4,0 1.2,-0.3001 1.2,0.3999 0,0.8 0,0.3001 -22.8,1.4001 -0.1,-0.2 -2.5,0.2999 -2.5,-0.4001 z" />
      <path
         id="Vector_7"
         fill="#38a1ff"
         d="m 92.267,42.7423 c 0,-0.9 13.4,-0.5999 23.1,-1.1999 0.4,0 0.9,-0.1001 0.9,0.3999 0,0.5 -0.4,0.3999 -0.8,0.3999 -13.1,0.3 -23.2,1.3001 -23.2,0.4001 z" />
      <path
         id="Vector_8"
         fill="#38a1ff"
         d="m 95.3671,40.1423 c -2.6,0.1 -3,0.1001 -3,-0.3999 0,-0.3 0.1999,-0.4 2.6999,-0.5 19.2,-0.6 18.1,-0.7999 18.1,-0.1999 -0.1,0.8 -0.1,0.6998 -17.7999,1.0998 z" />
      <path
         id="Vector_9"
         fill="#38a1ff"
         d="m 109.167,87.6425 c -7.5,0 -6.7,0 -7.5,0 -0.5,0 -0.8,-0.5 -0.1,-0.7 1,-0.2 0,-0.1999 14.9,-0.1999 0.3,0 0.7,-0.1001 0.7,0.3999 0.1,1 -8,0.2 -8,0.5 z" />
      <path
         id="Vector_10"
         fill="#38a1ff"
         d="m 113.167,89.6426 c 0.2,0 0.5,0 0.6,0.3 0,0.4 -0.3,0.2999 -0.6,0.3999 -9.9,0.9 -12.5,-1.4999 0,-0.6999 z" />
      <g
         id="Group">
        <path
           id="Subtract"
           fill="#38a1ff"
           fill-rule="evenodd"
           d="m 152.767,25.4423 c -1.6,-4.6 -6,-5.5 -10.9,-5.6 -2.4,-0.1 -35.9,0.5 -38.3,0.6 -3.347,0.0948 -5.6372,0.0998 -7.2011,0.1032 -2.3772,0.0052 -3.0763,0.0067 -3.2582,0.3142 -0.0758,0.128 -0.0618,0.3092 -0.042,0.5658 l 0.0013,0.0168 c 0.009,0.1086 0.018,0.2141 0.0268,0.3167 0.1097,1.2882 0.1801,2.1139 -0.1827,2.6418 -0.6476,0.9423 -2.6753,0.936 -8.3222,0.9185 -2.0794,-0.0064 -4.6494,-0.0144 -7.822,0.023 -0.7,0 -0.9998,-0.3 -1.0998,-1 -0.2013,-1.0465 -0.1758,-1.7851 -0.1582,-2.2942 0.0261,-0.7558 0.0348,-1.0057 -0.742,-1.0057 -11.3035,0.336 -20.5105,0.4013 -27.9929,0.4544 -23.6957,0.168 -30.0951,0.2133 -31.0071,8.3455 -0.4808,3.9426 0.2405,35.3493 0.4744,38.8213 0.3134,-0.2313 0.634,-0.4608 0.9618,-0.6882 -0.0142,-0.7762 -0.0257,-1.3705 -0.036,-1.733 -0.2432,-10.2685 -0.4572,-17.6235 -0.6105,-22.8898 -0.3285,-11.29 -0.3776,-12.98 0.1636,-13.197 0.0953,-0.0382 0.2089,-0.0307 0.3425,-0.0219 0.0635,0.0041 0.1315,0.0086 0.2042,0.0086 6.2177,0.087 32.4937,-0.639 60.2263,-1.4052 h 1e-4 10e-5 c 36.0496,-0.9959 74.5606,-2.0599 74.6736,-1.4947 0.026,0.0263 0.233,4.5918 0.465,11.3467 0.454,0.4951 0.853,1.0315 1.197,1.5995 -0.382,-8.0829 -0.804,-13.9725 -1.062,-14.7463 z m -28.311,73.004 c -0.017,-0.2768 -0.019,-0.6754 -0.008,-1.1505 -3.863,0.0349 -8.284,0.0662 -13.35,0.1021 -12.0642,0.0854 -27.7842,0.1968 -48.3311,0.4443 -1.5489,0.0189 -3.9433,0.102 -6.8309,0.2029 0.0115,0.3101 0.0214,0.6123 0.0285,0.906 17.1622,-0.5066 40.0334,-1.1223 68.3025,-0.5088 0.061,0.0013 0.123,0.0026 0.189,0.004 z"
           clip-rule="evenodd" />
      </g>
    </g>
    <g
       id="Group_2">
      <path
         id="Subtract_2"
         fill="#38a1ff"
         fill-rule="evenodd"
         d="m 158.633,164.388 c -5.331,-0.014 -11.059,-0.024 -17.053,-0.031 -0.017,0.187 -0.145,0.532 -0.372,0.965 5.707,-0.021 11.165,-0.044 16.259,-0.066 0.379,-0.273 0.768,-0.562 1.166,-0.868 z m 9.413,0.819 c 0.128,-0.331 0.157,-0.603 0.074,-0.789 12.583,0.048 21.837,0.121 25.347,0.224 1.9,0.1 2.1,0.3 0.2,0.4 -0.147,0.025 -10.247,0.091 -25.621,0.165 z M 60.0898,164.43 c 21.9841,-0.063 48.2742,-0.095 71.7842,-0.081 l -0.202,0.151 -0.002,0.001 c -0.343,0.257 -0.726,0.545 -1.164,0.86 -23.058,0.079 -48.7561,0.14 -70.3397,0.133 -0.0241,-0.339 -0.0497,-0.693 -0.0765,-1.064 z m -24.1157,0.092 c 4.1863,-0.021 8.791,-0.04 13.7145,-0.058 0.0813,0.346 0.1625,0.687 0.2437,1.021 -5.0484,-0.008 -9.7662,-0.02 -14.0455,-0.038 0.0285,-0.298 0.0575,-0.606 0.0873,-0.925 z m -9.0325,0.052 c -7.438,0.051 -12.5912,0.107 -14.4749,0.168 -1.3,0.1 -0.7,0.3 0,0.4 1.8919,0.117 7.0581,0.199 14.5074,0.255 -0.0106,-0.263 -0.0214,-0.537 -0.0325,-0.823 z"
         clip-rule="evenodd" />
      <path
         id="Subtract_3"
         fill="#38a1ff"
         fill-rule="evenodd"
         d="m 141.233,156.386 c 5.246,0.002 10.286,0.007 15.031,0.014 0.096,0.264 0.193,0.518 0.293,0.762 -4.815,0.027 -9.953,0.056 -15.316,0.084 -0.005,-0.278 -0.007,-0.565 -0.008,-0.86 z m -10.476,0 c -23.352,0.008 -49.3967,0.066 -71.2201,0.158 0.0228,0.347 0.0454,0.686 0.0677,1.019 21.9369,-0.037 48.0854,-0.147 71.3924,-0.264 -0.088,-0.284 -0.168,-0.588 -0.24,-0.913 z m 37.452,0.709 c -0.009,-0.042 -0.018,-0.085 -0.027,-0.127 -0.038,-0.175 -0.076,-0.355 -0.116,-0.54 12.604,0.04 21.767,0.109 25.001,0.214 1.6,0.1 1.7,0.2 -0.1,0.3 -0.039,0 -0.757,0.005 -2.071,0.013 -3.619,0.023 -11.764,0.075 -22.687,0.14 z M 47.8286,156.599 c -3.9326,0.02 -7.6524,0.042 -11.1071,0.064 -0.031,0.307 -0.0613,0.608 -0.0909,0.906 3.5556,0.006 7.391,0.007 11.449,0.006 -0.0828,-0.33 -0.1664,-0.655 -0.251,-0.976 z m -35.5619,0.343 c 2.2434,-0.072 7.3025,-0.14 14.3619,-0.202 0.0118,0.27 0.0232,0.536 0.0343,0.797 -7.114,-0.035 -12.2221,-0.098 -14.4961,-0.195 -0.0727,-0.018 -0.205,-0.043 -0.3566,-0.071 -0.6816,-0.128 -1.7524,-0.329 0.4565,-0.329 z"
         clip-rule="evenodd" />
      <path
         id="Subtract_4"
         fill="#38a1ff"
         fill-rule="evenodd"
         d="m 141.658,145.327 c 3.961,0.001 7.772,0.005 11.378,0.012 0.098,0.318 0.192,0.63 0.284,0.937 -3.695,0.016 -7.62,0.032 -11.714,0.048 0.017,-0.331 0.035,-0.663 0.052,-0.997 z m -11.663,0.007 c -23.652,0.03 -50.5029,0.155 -71.1,0.324 0.0159,0.304 0.0319,0.606 0.0478,0.903 20.6755,-0.02 47.5582,-0.105 71.0952,-0.193 -0.014,-0.333 -0.028,-0.678 -0.043,-1.034 z m 36.134,0.888 c -0.045,-0.274 -0.09,-0.552 -0.135,-0.834 8.559,0.05 14.867,0.132 17.673,0.254 2,0.1 2.2,0.4 0.3,0.5 -0.043,0 -0.84,0.004 -2.287,0.01 -2.881,0.014 -8.341,0.039 -15.551,0.07 z M 45.1604,145.787 c -2.6116,0.029 -5.0218,0.059 -7.1965,0.088 -0.0294,0.227 -0.0583,0.452 -0.0869,0.676 2.2562,0.006 4.7627,0.01 7.4818,0.013 -0.0653,-0.256 -0.1314,-0.515 -0.1984,-0.777 z m -19.2935,0.355 c 0.108,-0.006 0.2294,-0.012 0.3638,-0.019 l 0.0081,0.333 c -0.1756,-0.004 -0.3331,-0.009 -0.472,-0.014 -0.9,0 -0.8999,-0.3 0.1001,-0.3 z"
         clip-rule="evenodd" />
      <path
         id="Subtract_5"
         fill="#38a1ff"
         fill-rule="evenodd"
         d="m 181.409,173.65 c -16.53,0.083 -151.1254,0.751 -158.7422,0.093 -0.2,0 -0.7,-0.201 0,-0.101 7.8,-0.5 146.6002,-0.8 160.4002,-0.3 1.5,0 1.6,0.2 0,0.3 -0.036,0 -0.61,0.003 -1.658,0.008 z"
         clip-rule="evenodd" />
    </g>
    <g
       id="Group_3">
      <path
         id="Vector_11"
         fill="#191919"
         d="m 58.7668,144.243 c -2.3,-12.9 -1.2,-32.6 -2.3,-32.5 -2.1,0.1 3.0001,57.2 3.1001,59.8 0,1 -0.8001,0.3 -5.8001,0.2 -1.8,0 -0.9998,0.099 -7.5998,-27.101 -0.5,-1.4 -6.9001,-26.8 -8.6001,-26 -0.6,0.3 2.7999,6.901 2.3999,8.401 -1.4,6 -5.7,36.899 -5.7,43.799 0,1.3 -0.9,0.801 -5.8,0.601 -1,0 2e-4,-0.001 -0.7998,-12.801 -0.8,-12.9 -0.2001,-46.2 -2.3001,-45.8 -0.6,0.1 0.4001,2.3 0.8001,10.8 0.3,8.4 -0.5002,13 0.2998,30.7 0.8,17.3 0.3002,17.601 2.2002,17.901 1.9,0.3 3.8998,0.199 5.7998,-0.101 1.7,-0.2 1.0001,-14.5 6.1001,-43.5 0,0 6.3001,23.401 6.6001,25.901 2.1,6.8 3.4999,17.8 5.6999,17.7 0.7,0 1.3999,0.699 6.5999,0.399 1.8,-0.1 0.6,-2.699 -0.7,-28.399 z" />
      <path
         id="Vector_12"
         fill="#191919"
         d="m 30.9668,61.3424 c 1.8,-0.6 1.9001,-0.5999 1.9001,-2.5999 -0.1,-3.5 -0.6001,-4.5001 -3.4001,-5.4001 -3.6,-1.1 -5.5,-4.6 -4,-9 1.4,-4.1 3.5001,-2.6999 3.4001,-4.3999 -0.4,-4.1 4.1,-7.5 8.5,-6.7 3.6,0.6 4.5,4.8001 1.7,6.8001 -1,0.7 -2.3,0.9 -4.2,1.5 -2.1,0.8 0.7,2.7999 -0.5,4.8999 -0.4,0.8 -0.8001,0.7999 -1.4001,0.1999 -0.6,-0.6 -1.1998,-0.1998 -1.2998,0.4002 -0.3,2.2 3.1999,2.2998 1.3999,5.2998 -0.2,0.2 -0.3,0.7 -0.7,0.5 -0.3,-0.2 0.1,-0.5 0.2,-0.7 0.5,-1.5 0.9,-1.7999 -0.5,-2.6999 -0.9,-0.6 -1.3,-1.9001 -1,-2.8001 0.3,-0.9 1.4001,-1.1998 2.1001,-0.5998 0.1,0.1 0.1999,0.2998 0.3999,0.2998 0.6,-0.9 0.5999,-1.2 0.1999,-2.2 -2.4,-4.8 6.4,-2.8998 6.2,-7.0998 -0.3,-4.9 -10.0999,-4.3001 -10.3999,3.1999 0,0.4 0,0.7999 -0.5,0.8999 -2.7,0.5 -4.9999,6.5 -1.8999,9.7 2.2,2.4 5.1998,1.3002 6.0998,4.7002 0.5,1.8 0.2001,4.5999 0.1001,4.8999 0.4,0 2.1,-0.6001 4.2,-1.1001 14.3,-3.5 33.3,-4.2999 41,-16.8999 0.6,-0.9 0.8,10e-5 1.8,2.6001 0.1,0.1 -1e-4,0.2998 -0.1001,0.2998 -0.1,0 -0.2999,0.1 -0.3999,0 -0.5,-0.6 -0.8999,-1.4 -1.1999,-2.2 -1,2.1 -2.4,3.6 -4,5 -15.9,12.9 -42.0002,8.1 -57.4002,21.5 -0.7,0.2 -6.5999,5.0002 -9.39989,10.4002 -3.5,6.8 -2.00005,15.6998 5.19999,20.2994 2.8,1.8 7.0999,2.6 7.3999,3.1 -0.9,0.2 -1.7999,0.1 -2.5999,-0.1 C -0.0330896,99.4424 -2.13323,72.4424 30.9668,61.3424 Z" />
      <path
         id="Vector_13"
         fill="#191919"
         d="m 56.0668,99.1429 c 1.3,11.0001 1.3001,10.1001 -0.3999,10.9001 -6.2,3 -18.1,3.3 -25.5,2.6 -2.1,-0.2 -4.2001,-0.6 -6.3001,-0.8 -1.2,-0.2 -0.3001,-3 -1.9001,-15.0002 -2.2,-16.6 -4.6,-17.2999 -3.7,-17.6999 1.1,-0.4 5.6,15.9 5.7,31.8001 0,0.8 20.2001,2.7 30.9001,-1.3 2.1,-0.8 1.7,0 0,-10.5001 -0.6,-21.1 3.3,-21.2 19.7,-40.7 5.8,-6.9 6.3,-10.5 7,-11.8 0.2,-0.4 0.5,-0.2001 0.5,0.1999 -2,11.1 -19.4001,23.7001 -23.8001,34.3001 -3,7 -2.2999,13.5 -2.1999,18 z" />
      <path
         id="Vector_14"
         fill="#191919"
         d="m 60.2667,180.142 c -4.7,-0.4 -6.8999,0.9 -6.8999,-2.8 0,-3.6 0.1,-3.9 1,-3.9 4.4,0.2 5.2,0 6.5,1.1 3.4,2.8 5.8999,2.5 7.5999,3.4 0.6,0.3 0.8,1.3 -0.2,1.7 -2.2,0.7 -5.7,0.5 -8,0.5 z m 0.2,-0.9 c 0,0 7.5001,0.1 7.6001,-0.4 0,-0.5 -0.7,-0.5 -1.2,-0.6 -2.4,-0.4 -4.6001,-1.4 -6.4001,-3 -1.1,-0.9 -1.1999,-0.7 -5.8999,-1.1 -0.5,0 -0.7,-0.1 -0.5,3.5 0.1,2.5 1.5999,1.2 6.3999,1.6 z" />
      <path
         id="Vector_15"
         fill="#191919"
         d="m 35.6669,179.843 c -4.8,-0.1 -6.9002,0.6 -6.9002,-2.3 0,-4 0.1001,-4.3 1.1001,-4.3 4.2,0.3 4.9,-0.1 6.2,1 4.8,3.9 8.8,2.6 8.3,4.5 -0.4,1.5 -7.0999,1.1 -8.6999,1.1 z m 0.2998,-0.8 c 1.3,0 7.4,0.1 7.5,-0.4 0.1,-0.9 -3.3,0.1 -7.7,-3.6 -1,-0.9 -1.1999,-0.7 -5.8999,-1 -0.5,0 -0.7,0 -0.5,3.5 0.2,2.3 1.7999,1.2 6.5999,1.5 z" />
      <path
         id="Vector_16"
         fill="#191919"
         d="m 34.1669,54.8428 c 2.8,-0.6 4.3998,-0.7998 5.0998,-2.7998 1,-3 0.2001,-5.0001 2.6001,-4.9001 -0.8,-1.1 -3.4999,-5.4 -2.6999,-5.7 0.6,-0.2 -2e-4,0.7999 3.0998,4.8999 1.7,2.2 -1.4999,0.4002 -1.6999,2.7002 -0.1,1.1 -0.5999,4.1 -1.3999,4.7 -1.2,0.8 -0.6001,1.8998 -0.3001,3.5998 0.1,0.5 -0.3,0.6002 -0.5,0.2002 -1.1,-1.9 -0.1001,-2.9001 -1.4001,-2.6001 -0.8,0.2 -1.7998,0.3999 -2.7998,-0.1001 z" />
      <path
         id="Vector_17"
         fill="#191919"
         d="m 35.7667,98.2427 c -0.1,0.1 -0.1001,0.2999 -0.3001,0.1999 -0.1,0 -0.0998,-0.1999 -0.0998,-0.3999 -2.8,-18.4 -6.4,-21.3001 -5.5,-21.6001 1,-0.4 5.7999,13.3001 5.8999,21.8001 z" />
      <path
         id="Vector_18"
         fill="#191919"
         d="m 80.0667,41.5425 c -0.6,-0.3 0.8,-5.9002 5.3,-6.7002 3.1,-0.5 4.1999,2.6002 3.5999,3.4002 -0.7,-0.4 -0.8998,-3.7 -4.2998,-2.5 -3.6,1.3 -4.1001,5.2 -4.6001,5.8 z" />
      <path
         id="Vector_19"
         fill="#191919"
         d="m 82.0669,35.9425 c -0.1,0.4 -0.4,0.5001 -0.7,0.3001 -0.8,-0.5 -6,-4.0001 -5.5,-4.6001 0.4,-0.7 5.5,3 6.2,4.3 z" />
      <path
         id="Vector_20"
         fill="#191919"
         d="m 82.9666,45.9426 c -0.4,0.2 -0.5998,-0.1001 -0.2998,-0.3001 1.5,-1.2 -0.5001,-3.1 0.5999,-5 0.7,-1.3 3.0001,-0.8 3.1001,0.5 0.1,0.5 -0.3001,0.8 -0.6001,0.2 -0.4,-0.6 -0.8999,-0.9 -1.5999,-0.7 -1.7,0.7 0.7998,4.1001 -1.2002,5.3001 z" />
      <path
         id="Vector_21"
         fill="#191919"
         d="m 87.5667,40.3426 c -0.3,-0.3 -1.2,-4.0998 -4,-1.7998 -0.3,0.2 -0.6,0.7999 -0.8,0.5999 -0.3,-0.3 0.3,-0.7 0.5,-1 2.8,-3.1 5.4,1.4999 4.3,2.1999 z" />
      <path
         id="Vector_22"
         fill="#191919"
         d="m 37.3667,50.043 c -0.6,0.7 -2.2,0.3999 -2.5,-0.9001 -0.1,-0.4 0.3,-0.6999 0.5,-0.3999 0.4,0.8 1.2,0.9 2,1.3 z" />
      <path
         id="Vector_23"
         fill="#191919"
         d="m 35.6668,43.8424 c -0.7,-0.8 0.1,-2.1 1.2,-2 0.6,0.1 0.5999,0.7002 0.1999,0.7002 -0.7,0.1 -0.9999,0.6998 -1.3999,1.2998 z" />
      <path
         id="Vector_24"
         fill="#191919"
         d="m 36.8668,45.5424 c 0.1,-1 1,-0.7001 1,0.0999 -0.1,0.8 -1,0.9001 -1,-0.0999 z" />
    </g>
    <g
       id="Group_4">
      <path
         id="Vector_25"
         fill="#191919"
         d="m 157.267,58.8423 c -0.4,-0.2 -0.8,-0.3 -1.2,-0.7 0.5,-0.3 1,-0.1 1.4,0 16.2,3.8 20.5,31.0001 -3.9,34.6001 -2.1,0.4 -11.4,-0.0999 -12.7,-2.1999 0.6,-0.2 1.8,0.8998 7,1.2998 24.4,1.8 29.7,-24.3 9.4,-33 z" />
      <path
         id="Vector_26"
         fill="#191919"
         d="m 156.067,152.342 c 2.9,10.7 4.3,8.301 12.7,9.701 -0.3,0.4 -0.6,0.5 -0.9,0.5 -12.6,0.4 -10.5,-3.701 -15.5,-18.801 0,-0.5 -9.8,-29.5 -10.3,-31.1 -0.5,-1.6 0.3,-3.6 7.9,20.3 5.5,17.3 1.2,1.4 6.1,19.4 z" />
      <path
         id="Vector_27"
         fill="#191919"
         d="m 124.467,98.3425 c 0,-1.4 0,-3.8998 0.5,-5.2998 0.6,0 -0.4,1.1998 0.9,12.2993 0.3,2.4 38.9,5.701 39.2,0.201 0.6,-9.9003 0.3,-9.4004 0,-14.3004 -0.3,-3.9 2,1.1999 0.6,14.4004 -0.6,5.8 -28.7,4.4 -39.2,1 -1.3,-0.4 -1.8,-0.901 -2,-8.3005 z" />
      <path
         id="Vector_28"
         fill="#191919"
         d="m 130.267,151.943 c 0,-0.1 -1.9,-43.2 -1.3,-43.3 1.1,0 1.9,40.3 3,49.6 0.1,1.3 4,2.5 6.5,2.9 1.2,0.2 2.3,0.2 3.5,0.4 -1.3,0.6 -2.7,0.6 -4.1,0.4 -5.5,-0.9 -7.3,-2.1 -7.6,-10 z" />
      <path
         id="Vector_29"
         fill="#191919"
         d="m 155.167,43.7424 c -0.7,-4.5 -3.9,-7.3001 -7.4,-8.3001 -10.1,-2.7 -14.4,12.8 -10.4,17.5 -3.6,1 -4.5,5.6 -3.5,7.2 0.2,-2.4 0.4,-4.6999 2.6,-6.0999 0.6,-0.4 1.3,-0.5 2.2,-0.3 -1.5,0.5 -2.7,1.1999 -3,2.6999 3.1,-2.9 3.9,-2 5.7,-0.3 0.1,-1 -0.4,-1.8 -1.5,-2.2 -1.4,-0.4 -1,-0.8999 -1.4,-0.8999 -0.9,0 -1.2,-1.2 -1.4,-2 -1.2,-5.1 -0.1,-9.5002 3.6,-13.2002 4.1,-4.1 10,-1.2 11.8,1.5 4.1,4.3 2.4,16.0001 -6.5,17.6001 -0.5,0.1 -0.9,0.2001 -1.5,0.3001 2.1,2.2 12.4,-2.6 10.7,-13.5 z" />
      <path
         id="Vector_30"
         fill="#191919"
         d="m 167.167,152.043 c 0.7,3.2 1.9,7.599 1.6,8.799 -4.8,-10.4 -8.4,-51.8 -6.6,-51.5 0.3,0 0.3,0.1 0.3,3.3 -0.1,1.6 2.4,28.601 4.7,39.401 z" />
      <path
         id="Vector_31"
         fill="#191919"
         d="m 154.967,172.543 c -1.3,0 -3.9,-0.3 -5,-1 -2.7,-1.7 2.3,-1.701 10.1,-8.201 1,-0.8 2.1,0.8 7.5,0.9 2.7,0 -4.1,8.501 -12.6,8.301 z m -4.8,-1.801 c 5.3,2.7 15.3,-1.2 16.8,-5.5 -1.7,-0.1 -3.5,-0.2 -5.1,-0.9 -1.8,-0.8 -2,0.301 -3.2,1.201 -2.6,1.9 -5.3,3.799 -8.5,5.199 z" />
      <path
         id="Vector_32"
         fill="#191919"
         d="m 128.367,172.442 c -4.2,0 -7.3,-1.6 -4.9,-2.8 9.4,-4.7 9.3,-7.4 12.3,-6.3 3,1.1 5.6,0.3 5.9,1.1 0.2,0.4 -1.7,4 -4.6,5.5 -2.7,1.3 -5.5,2.5 -8.7,2.5 z m -4.8,-1.9 c 5.3,2.8 15.5,-1.3 16.8,-5.6 -2.1,0 -4.1,-0.4 -6.1,-1.2 -0.7,-0.3 -0.4,0.4 -3.2,2.3 -2.3,1.7 -4.7,3.4 -7.5,4.5 z" />
      <path
         id="Vector_33"
         fill="#191919"
         d="m 143.767,119.942 c 0.6,0.1 0,0 -1.4,20.5 -0.5,8.2 -0.6,16.1 -1.3,19.8 -0.5,-0.6 -0.5,-1.2 -0.5,-1.7 0,-8.3 1.7,-38.8 3.2,-38.6 z" />
      <path
         id="Vector_34"
         fill="#191919"
         d="m 154.467,56.1422 c 0.9,-1.2 1,-2.6 0.7,-4 -0.1,-0.2 0,-0.6998 -0.4,-0.5998 -0.8,0.2 2.2,4.6 -5.5,7.5 -1.5,0.6 -3.6,1.9998 -3.3,3.5998 1.6,-3.5 5.7,-2.5 8.5,-6.5 z" />
      <path
         id="Vector_35"
         fill="#191919"
         d="m 154.367,56.7426 c -0.2,0.3 1.4,4.4 -0.7,6.5 -1.2,1.7 -5.6,1.8001 -5,5.3001 1,-2.6 2.8,-2.8002 4.9,-3.9002 3.4,-3 1.6,-8.8999 0.8,-7.8999 z" />
      <path
         id="Vector_36"
         fill="#191919"
         d="m 163.267,77.1425 c -4,0.3 -6.9,0.1001 -12.3,1.4001 -7.4,1.7 -8.7,3.5999 -9.1,2.8999 -0.3,-0.8 11.9,-6.8 21.4,-4.3 z" />
      <path
         id="Vector_37"
         fill="#191919"
         d="m 137.367,98.0423 c -0.5,4.2997 -0.2,9.0997 -0.8,9.0997 -1.5,0 2,-31.6997 0.8,-9.0997 z" />
      <path
         id="Vector_38"
         fill="#191919"
         d="m 151.067,93.4424 c 0.4,0.8 0.6,13.0996 0.6,14.3996 -0.5,-0.2 -0.5,-0.6 -0.5,-1 -0.3,-2.4 -0.9,-11.3996 -0.1,-13.3996 z" />
      <path
         id="Vector_39"
         fill="#191919"
         d="m 160.767,66.4424 c -3.1,9.6 -2.8,9.7001 -3.3,9.6001 -0.5,-0.3 1.4,-8.1001 3.3,-9.6001 z" />
      <path
         id="Vector_40"
         fill="#191919"
         d="m 131.867,58.5422 c -0.3,0.7 -7.2,2.9998 -10.8,10.2998 -4.6,9.4 -1.7,19.8001 5.4,22.6001 6.5,2.5 14,-2.0999 14,-15.3999 0,-6.7 -3,-11.4 -2.8,-12.3 2.3,1.2 6.5,14.1999 1.1,23.6999 -6.1,10.8 -22.9,4.9 -20.8,-12 1.5,-11.3 11.7,-17.2999 13.9,-16.8999 z" />
      <path
         id="Vector_41"
         fill="#191919"
         d="m 143.367,39.4427 c -3.5,1.5 -4.9,6.5 -3.3,10.5 2.1,5.3 7.3,6.0001 9.8,2.1001 2.6,-4 1.1,-10.9 -3.6,-12.5 -0.2,-0.1 -0.6,-0.1 -0.5,-0.5 0.1,-0.3 0.4,-0.2001 0.6,-0.1001 5.2,1.5 7.2,9.5001 3.5,14.1001 -5.7,7.1 -15,-3.4 -9.8,-11.5 1.8,-2.6 4.4,-2.6001 3.3,-2.1001 z" />
      <path
         id="Vector_42"
         fill="#191919"
         d="m 150.467,71.3425 c -3.5,-0.1 -4.9,-2.2998 -6.4,-4.7998 -3.2,-5 -5.3,-4.1 -4.8,-5 0.2,-0.5 2.4,0.4999 3.7,1.8999 2.5,2.6 2.8,5.2001 6.5,7.1001 0.4,0.2 0.7,0.2998 1,0.7998 z" />
      <path
         id="Vector_43"
         fill="#191919"
         d="m 133.567,52.1423 c 0.1,0.2 0.4,0.4001 0.2,0.6001 -0.2,0.2 -0.4,-0.1001 -0.6,-0.3001 -2.1,-1.9 -1.9,-3 -2.5,-2.5 -0.7,0.6 -0.3,0.6001 3.1,4.3001 0.2,0.2 0.5,0.3999 0.3,0.6999 -0.4,0.4 -2.6,-2.3 -4.2,-4 -0.2,-0.2 -0.4,-0.5 -0.1,-0.8 1.2,-1.4 0.9,-1.8 3.8,2 z" />
      <path
         id="Vector_44"
         fill="#191919"
         d="m 151.567,66.6426 c 1.2,8.6 -0.8,11.1 -0.7,9.5 0.7,-9 0.1,-9.1 0.7,-9.5 z" />
      <path
         id="Vector_45"
         fill="#191919"
         d="m 141.167,59.2427 c -0.9,-0.4 -1.7,-2.7001 -3.2,-0.9001 -0.9,1 -0.7,2.7 -1.2,2.5 -0.7,-0.2 0.6,-4.4998 2.9,-3.7998 0.7,0.3 1.5,1.3999 1.5,2.1999 z" />
      <path
         id="Vector_46"
         fill="#191919"
         d="m 132.567,59.5425 c 1.1,2.6 3.2,3.1998 4.9,2.2998 -0.9,2.1 -5.6,0.5002 -4.9,-2.2998 z" />
      <path
         id="Vector_47"
         fill="#191919"
         d="m 141.367,57.7428 c -0.9,-0.3 -1.7,-2.3002 -4.1,-0.9002 -0.2,0.1 -0.4,0.4001 -0.6,0.1001 -0.2,-0.2 0.1,-0.4 0.2,-0.5 1.9,-1.7 4.2,-0.4999 4.5,1.3001 z" />
      <path
         id="Vector_48"
         fill="#191919"
         d="m 143.667,45.1426 c 0.7,1.7 -0.7,3.5001 0.6,3.4001 0.6,0 0.3,0.8999 -0.8,0.5999 -0.8,-0.2 -0.5,-1.5 0.2,-4 z" />
      <path
         id="Vector_49"
         fill="#191919"
         d="m 147.367,41.6426 c 0.8,0 1.7,1.2001 1.5,1.4001 -0.2,0.3 -1.2,-0.6001 -2.3,-0.6001 -0.6,0.1 -0.7,-0.8 0.8,-0.8 z" />
      <path
         id="Vector_50"
         fill="#191919"
         d="m 140.667,43.8424 c -0.2,-1.9 2.1,-1.8998 2.1,-1.2998 0.1,0.4 -0.3,-2e-4 -2.1,1.2998 z" />
      <path
         id="Vector_51"
         fill="#191919"
         d="m 147.067,49.5423 c 0,1.3 -1.6,1.9999 -1.8,1.3999 -0.2,-0.4 0.4,-0.2 1.2,-1.5 0.1,-0.1 0.1,-0.4 0.4,-0.3 0.2,0 0.2,0.2001 0.2,0.4001 z" />
      <path
         id="Vector_52"
         fill="#191919"
         d="m 146.967,45.0425 c 0.6,0.1 0.7,1.2998 0,1.2998 -0.6,0.1 -0.7,-1.0998 0,-1.2998 z" />
      <path
         id="Vector_53"
         fill="#191919"
         d="m 141.267,45.4424 c 0.8,0.1 0.6,1.3 0,1.3 -0.5,0 -0.6,-1.2 0,-1.3 z" />
    </g>
    <g
       id="Group_5">
      <path
         id="Vector_54"
         fill="#38a1ff"
         d="m 89.9667,135.842 c -1.2,0 -1.2998,0.1 -1.2998,1.3 0.1,3.3 1.3998,9.501 1.5998,11.101 0.5,4.9 0.8001,4.999 1.8001,5.099 2.4,0.1 6.5999,-0.499 17.7002,-0.599 1.5,0 0.9,-0.5 1.9,-15.7 0.1,-2.3 1.7,-1.601 -21.7003,-1.201 z m 1.2002,3.201 c -0.1,-0.5 0.0999,-0.9 0.6999,-1 1.1,-0.2 1.2001,1.299 1.3001,2.299 0.8,8.4 -1.4,4.101 -2,-1.299 z" />
      <path
         id="Vector_55"
         fill="#38a1ff"
         d="m 113.467,125.643 c 0.4,0.3 0.9,0.5 1.3,0.8 1.8,1.4 1.7,3.7 -0.3,4.9 -2.7,1.6 -5.1,0.7 -9.1,1.8 -0.2,0.1 -0.6,0.2 -0.7,-0.1 -0.1,-0.3 0.3,-0.4 0.5,-0.6 3.3,-1.8 6,-0.4 8.8,-2 2.7,-1.6 0,-5.1 -2.3,-3.6 -8.6,5.6 -7.9,6.1 -8.5,5.8 -0.9,-0.5 1.2,-12.9 8.5,-14.6 3.6,-0.8 6.8,2.8 1.8,7.6 z m -9.8,5.6 c 0.4,0.2 0,0 0.9,-0.7 5.4,-4.6 8.5,-4.8 10.1,-8.1 2.6,-5.4 -8.7,-6 -11,8.8 z" />
      <path
         id="Vector_56"
         fill="#38a1ff"
         d="m 101.467,127.242 c -0.6,0.3 -0.8,-0.4 -1.2,-0.8 -3.6003,-3.4 -7.8001,-2.3 -11.1001,-6.8 -3.2,-4.3 1.3,-9.4 6,-6.8 5.7001,3.2 7.4001,13.9 6.3001,14.4 z m -0.7,-1.1 c 0.7,-3.8 -4.6002,-15.6 -9.9002,-12.7 -3.4,1.9 -2.4,7.1 4,9.3 2.1,0.7 4.1999,1.5 5.9002,3.4 z" />
      <path
         id="Vector_57"
         fill="#38a1ff"
         d="m 102.667,111.043 c 3,-5.9 12.5,-1.3 4.7,7.6 -1.1,1.3 -2.4,2.3 -3.6,3.5 -1.5,1.5 -3,-7.3 -1.1,-11.1 z m 0.5,10.4 c 2.5,-2.6 6.1,-5.5 6.2,-9 0.1,-4 -4.8,-3.9 -6.1,-0.6 -1,3.1 -0.5,6.3 -0.1,9.6 z" />
      <path
         id="Vector_58"
         fill="#38a1ff"
         d="m 99.8667,132.843 c -4.1,0.1 -8.3,2.1 -11,-2.3 -1.7,-2.9 1.2999,-7.2 7.8999,-4.4 2.5,1.1 4.0004,3 4.5004,5.7 0.2,1.2 0.1,1 -1.4003,1 z m -7,-6.8 c -2.3,-0.2 -4.7001,2 -3.1001,4.2 2.7,3.8 6.2001,1.6 10.1001,1.6 0.7003,0 0.6003,-0.3 0.4003,-0.7 -1.0004,-3.5 -4.4003,-4.8 -7.4003,-5.1 z" />
      <path
         id="Vector_59"
         fill="#38a1ff"
         d="m 101.067,108.543 c 0,1.8 -0.7,3.499 -1,5.299 -0.1001,0.3 -0.2002,0.501 -0.6002,0.301 -2.1,-1.6 -4.9,-3.4 -5.5,-6.4 -0.8,-4.5 7.2002,-5.5 7.1002,0.8 z m -1.7001,4.799 c 0.5,-2.3 1.0001,-4.099 0.8001,-5.899 -0.3,-2.6 -3.4001,-3 -4.8001,-1.7 -2.3,2.3 3.5,6.999 4,7.599 z" />
    </g>
  </g>
</svg>
