<svg viewBox="0 0 200 200" xmlns="http://www.w3.org/2000/svg"><path d="M118.289,115.778a27.4,27.4,0,0,0-10.6-3.957.787.787,0,0,0-.733.335c-.807,1.137-2.582,3.743-3.769,5.062-1.365-1.459-2.629-3.077-4.135-4.583a.813.813,0,0,0-.706-.225,28.086,28.086,0,0,0-10.312,3.475.488.488,0,0,0,.445.869,42.253,42.253,0,0,1,6.269-1.98c-.069,1.146-.371,5-.459,9.256a.807.807,0,0,0,1.23.685c2.154-1.345,4.613-2.916,6.678-4.418-.744,4.2-.457,17.7-.344,21.94a.536.536,0,0,0,1.072.039,38.847,38.847,0,0,0,.367-4.711c0-.1.2-16.8.169-17.747,1.876,1.492,4.712,3.956,6.5,5.554a.792.792,0,0,0,1.309-.5c.079-.68.183-1.358.288-2.033,1.462-8.676,1.232-8.107,1.413-8.05a23.71,23.71,0,0,1,4.763,1.887.535.535,0,0,0,.733-.165A.524.524,0,0,0,118.289,115.778Zm-22.376,6.789c0-2.886.076-2.791-.184-8.02.1,0,.769-.2,2.461-.475,1.3,1.346,2.563,2.95,3.852,4.313C100.212,119.752,97.8,121.365,95.913,122.567Zm14,.622c-1.7-1.509-3.757-3.316-5.586-4.78A61.044,61.044,0,0,0,108,113.486a31.486,31.486,0,0,1,3.869.971A79.979,79.979,0,0,0,109.914,123.189Z" fill="#191919"></path><path d="M102.089,85.431c-.1.992.018,5.075.105,6.145.14.9.188,2.183.837,2.172.513-.014.571-.472.733-1.942.036-.634-.091-6.019-.157-6.655-.2-1.508-.326-1.65-.655-1.67C102.364,83.454,102.119,85.14,102.089,85.431Z" fill="#191919"></path><path d="M100.859,97.126c1.059,3.176,6.176,2.193,6.176-1.429a.533.533,0,0,0-1.046-.2,7.683,7.683,0,0,1-.864,1.178,2,2,0,0,1-2.2.6,9.226,9.226,0,0,1-1.255-.686.464.464,0,0,0-.655-.138A.5.5,0,0,0,100.859,97.126Z" fill="#191919"></path><path d="M112.689,86.316c-2.471-4.363-8.386-3.9-9.815.712-.093.3.029.255-.261-.257-2.477-4.371-8.391-3.9-9.814.711a5.594,5.594,0,0,0,1.57,5.656,5.2,5.2,0,0,0,8.678-2.5,5.3,5.3,0,1,0,9.642-4.319Zm-11.673,4.958c-2.23,3.623-7.816.966-6.7-3.37a4.841,4.841,0,0,1,.471-1.181c1.112-2.11,2.816-2.391,4.79-1.1a5.73,5.73,0,0,1,1.648,1.9A3.756,3.756,0,0,1,101.016,91.274Zm10.076-.454c-2.23,3.623-7.816.966-6.7-3.37a4.826,4.826,0,0,1,.471-1.181c1.026-1.947,2.671-2.487,4.79-1.1a5.742,5.742,0,0,1,1.648,1.9A3.759,3.759,0,0,1,111.092,90.82Z" fill="#38a1ff"></path><path d="M97.126 89.045 A1.047 1.57 0 1 0 99.220 89.045 A1.047 1.57 0 1 0 97.126 89.045 Z" fill="#191919"></path><path d="M106.917 88.982 A1.047 1.57 0 1 0 109.011 88.982 A1.047 1.57 0 1 0 106.917 88.982 Z" fill="#191919"></path><path d="M114.834,64.042a9.649,9.649,0,0,0-2.407-6.888c-2.25-2.478-6.559-3.636-9.814-3.335-4.055.378-7.862,2.235-11.882,1.665A.818.818,0,0,0,90,56.831a8.115,8.115,0,0,0,2.513,1.89,22.331,22.331,0,0,1-5.784,2.212.817.817,0,0,0-.366,1.464,7.512,7.512,0,0,0,3.166,1.33c-2.372,2.77-3.151,6.227-3.638,9.8-.322,2.75-.287,6.176-2.93,7.081a.811.811,0,0,0,.026,1.544,8.013,8.013,0,0,0,2.3.382,6.636,6.636,0,0,1-.6,1.958.8.8,0,0,0,.994,1.133,6.211,6.211,0,0,0,1.178-.591,13.7,13.7,0,0,0,2.264,5.029A3.6,3.6,0,0,0,91.045,95a7.258,7.258,0,0,0,2.172.562c.145,4.806,1.5,9.574,6.1,10.961a50.977,50.977,0,0,0,.288,5.87.525.525,0,0,0,.549.508.517.517,0,0,0,.5-.553l.235-6.419a.758.758,0,0,0-.6-.788c-4.4-1-5.443-5.8-5.443-10.311a.8.8,0,0,0-.733-.809c-1.337-.121-2.692-.265-3.455-1.345-1.037-1.505.322-3.233,1.963-3.541.308-.062.916-.6.916-.885a.5.5,0,0,0-.2-.4c1.072-5.928,6.6-11.043,11.527-14.53a39.381,39.381,0,0,0,5.156,9.727,18.119,18.119,0,0,0,2.774,3,.56.56,0,0,0,.5.124,5.468,5.468,0,0,1,2.983.769c1.568,1,.775,3.191-.811,4.122a5.727,5.727,0,0,1-2.8.555.809.809,0,0,0-.812.8c-.142,5.024-1.47,11.276-6.28,12.651a.773.773,0,0,0-.55.822c.17,1.312.255,3,.654,6.134a.5.5,0,0,0,.524.448.485.485,0,0,0,.445-.521c-.027-1.442.026-2.881,0-4.324,0-.418-.027-.834-.027-1.251,5-1.8,6.589-7.866,6.831-13.153a6.153,6.153,0,0,0,2.8-.759c2.309-1.324,3.32-4.539,1.466-6.213-.907-.841-.685.211.157-2.195a1.552,1.552,0,0,1,.1-.327.626.626,0,0,0,1.177.185C122.4,77.811,120.606,66.871,114.834,64.042Z" fill="#191919"></path><path d="M79.635,145.508c.07-.213.278-.771.314-.872.4-1.493.628-2.255,1.936-3.106a4.316,4.316,0,0,1,.707-.463.53.53,0,0,0-.183-1.044,3.109,3.109,0,0,0-1.178.12c-1.776.58-3.35,3.561-2.565,5.388A.485.485,0,0,0,79.635,145.508Z" fill="#191919"></path><path d="M84.4,145.966c.845-1.64.461-2.786,2.12-4.263a3.946,3.946,0,0,1,.654-.584.537.537,0,0,0,.366-.662.556.556,0,0,0-.68-.353,3.086,3.086,0,0,0-2.539,1.643,5.99,5.99,0,0,0-1.047,3.274,5.014,5.014,0,0,0,.157.9.512.512,0,0,0,.472.51A.472.472,0,0,0,84.4,145.966Z" fill="#191919"></path><path d="M89.71,146.515c.105-.3.167-.352.341-.826a8.25,8.25,0,0,1,.6-1.817,5.182,5.182,0,0,1,1.074-1.473,7.113,7.113,0,0,1,.523-.631.533.533,0,0,0,.235-.714.561.561,0,0,0-.732-.231,3.326,3.326,0,0,0-1.021.393c-1.364.849-2.656,3.8-1.989,5.281a.473.473,0,0,0,.471.495A.488.488,0,0,0,89.71,146.515Z" fill="#191919"></path><path d="M100.152,167.062c-.177,1.861-.2,5.144-.183,7.016.008,1.059,0,2.81.707,2.843.554.02.65-.569.837-2.152.1-.855.175-5.775.184-6.977.006-.924.014-2.759-.629-2.811C100.528,164.938,100.424,165.618,100.152,167.062Z" fill="#191919"></path><path d="M166.469,134.966c.347.422,1.745,1.8,2.329,2.356.787.751,3.766,3.78,4.475,2.91.539-.662-1.11-1.923-3.219-3.96-.836-.807-3.726-3.91-4.423-3.174C165.257,133.494,165.938,134.337,166.469,134.966Z" fill="#191919"></path><path d="M184.256,126.062a5.737,5.737,0,0,0-3.245-1.007,5.97,5.97,0,0,1-2.158-.393,14.215,14.215,0,0,1-1.268-2.3,11.1,11.1,0,0,0-.773-2.027c-1.7-2.441-5.1-1.059-4.871,1.916a7.317,7.317,0,0,0,.1.752c-2.049-.939-4.419.481-5.437,2.405a2.967,2.967,0,0,0-3.49,4.645c-1.152,2.381-2.014,5.127-.916,7.544,3.356,7.047,11.7,7.611,16.7,3.7a5.99,5.99,0,0,0,.785.379,3.523,3.523,0,0,0,3.795-5.729.552.552,0,0,0-.759-.088.52.52,0,0,0-.079.743,2.54,2.54,0,0,1,.314,2.578,2.305,2.305,0,0,1-2.878.957,6.561,6.561,0,0,1-.838-.484.794.794,0,0,0-.942.079c-3.985,3.478-10.821,3.19-13.818-1.442a6.39,6.39,0,0,1-1.073-2.246c-.363-1.876.46-4.023,1.335-5.723a.779.779,0,0,0-.131-.906,2.671,2.671,0,0,1-.838-1.491,1.9,1.9,0,0,1,2.471-1.619,3.983,3.983,0,0,0,3.148,5.109c-.785,1.762.993,4.379,3.043,4.021.611-.122,1.6-.683,1.309-1.27-.332-.658-1.686.312-2.564-.908a1.97,1.97,0,0,1-.341-1.41c.067-.627-.2-.352.566-.587a4.836,4.836,0,0,0,3.378-3.7,6.041,6.041,0,0,0,1.474.994c1.687.858,1.231-.015-.39,1.4-3.794,3.385-.694,8.656,3.632,7.327,2.787-.868,4.616-3.972,2.46-6.8C185.126,130.7,186.165,127.555,184.256,126.062Zm-13.319,3.64c-2.837.827-4.532-2.542-1.979-4.681a6.972,6.972,0,0,0,1.065,1.117c-.456.509-1.264,1.8-.67,2.151.269.157.525.024.747-.178a5.691,5.691,0,0,0,.934-1.082,17.033,17.033,0,0,0,1.73,1.405A3.626,3.626,0,0,1,170.937,129.7Zm2.428-2.747c-.5-.557-2.8-2.529-3.024-2.706a2.28,2.28,0,0,1,2.975,1.943A2.606,2.606,0,0,1,173.365,126.955Zm5.666,8.771c-2.813.821-4.548-2.506-1.978-4.681a6.97,6.97,0,0,0,1.064,1.118c-.456.508-1.263,1.8-.669,2.15.269.157.524.024.747-.177a5.7,5.7,0,0,0,.934-1.083,16.761,16.761,0,0,0,1.729,1.405A3.618,3.618,0,0,1,179.031,135.726Zm2.429-2.747c-.51-.569-2.582-2.355-3.024-2.705a2.392,2.392,0,0,1,2.534.753A3.608,3.608,0,0,1,181.46,132.979Zm2.1-4.726c-.36.853-1.628.668-2.519.425-.777-.216-3.638-1.379-4.067-1.591-2.5-1.245-4.321-5.137-2.968-6.208a1.112,1.112,0,0,1,1.638.487A16.684,16.684,0,0,0,177.052,124c.357.487.755.939,1.131,1.407a1.6,1.6,0,0,0,.389.262c1.6.785,3.538.574,4.682,1.58A.853.853,0,0,1,183.563,128.253Z" fill="#191919"></path><path d="M163.8,121.209a9.754,9.754,0,0,1,.288,3.169.484.484,0,0,1-.968-.034,10.577,10.577,0,0,0-1.073-4.457.639.639,0,0,1,1-.722c3.663,3.045,6.182-.538,5.365-4.572a.811.811,0,0,1,1.412-.668c2.1,2.494,5.807,3.179,8.14.8a9.967,9.967,0,0,0,2.12-4.53.825.825,0,0,1,1.622.22c-.074,7.622,3.108,14.233,10.521,12.151a.807.807,0,0,1,.785,1.35c-3.272,3.127-5.874,7.785-3.507,11.792a.638.638,0,0,1,.026.618c-.305.58-.756.191-2.2.631a6.621,6.621,0,0,0-1.545.706.531.531,0,0,1-.575-.892,7.55,7.55,0,0,1,2.748-1.193c-1.9-3.655-.307-7.778,2.276-11.026-5.892.439-9.019-4.424-9.918-10.3a6.766,6.766,0,0,1-10.18,2.123C169.893,120.281,167.19,122.954,163.8,121.209Z" fill="#191919"></path><path d="M23.394,163.369c.264-.648.476-.668,1.23-1.253.222-.173.419-.411.314-.683-.34-.882-3.044.192-2.512,1.894.08.257.183.494.444.506C23.159,163.845,23.293,163.618,23.394,163.369Z" fill="#191919"></path><path d="M29.2,158.36c-.045-.918,1.082-1.887,1.753-2.051a.507.507,0,0,0,.262-.7c-.433-.982-3.4.711-2.957,2.664.059.262.157.5.419.526A.451.451,0,0,0,29.2,158.36Z" fill="#191919"></path><path d="M41.713,159.682a12.36,12.36,0,0,0-2.407.115c-1.64.1-4.382-.4-5.941,1.615a9.659,9.659,0,0,0-.752,1.179.529.529,0,0,0-.74.718,4.745,4.745,0,0,1,.157,1.743.778.778,0,0,1-.785.665c-1.282.129-2.461-1.023-3.271-2.013a.482.482,0,0,0-.864.427,4.039,4.039,0,0,0,.966,1.94c-1.441,1.357-1.558,3.244-1.934,5.058a10.613,10.613,0,0,0-.34,1.753c-.042,1.952,2.606,3.263,4.737,0,1.37.554,2.636-.68,3.14-2.054a3.23,3.23,0,0,0,3.4-2.709,2.806,2.806,0,0,0,2.8-2.347C43.749,164.92,44.873,160.2,41.713,159.682Zm-2.826,4.575a.815.815,0,0,0-.733,1.182c.363.679-.953,1.28-1.648.992a.819.819,0,0,0-1.1.958,1.575,1.575,0,0,1-2.12,1.74.828.828,0,0,0-1.046.752c0,.732-.762,1.535-1.047,1.512-.105-.007-.183-.1-.288-.241a.818.818,0,0,0-1.439.267c-.2.815-1.524,2.332-2.068,1.678-.052.029-.026-.126-.026-.2a11.434,11.434,0,0,1,.236-1.524c.182-1.607.211-3.452,1.289-4.645,1.622.968,3.891.915,4.546-.832a2.722,2.722,0,0,0-.141-2.349c.922-1.251,1.257-2.091,3.151-2.228.969-.071,1.989.062,2.9.049.523-.015,1.23-.167,1.858-.133.732.032.733.284.733.589A3.078,3.078,0,0,1,38.887,164.257Z" fill="#191919"></path><path d="M20.28,167.575c-5.78-6.474-1.395-15.453,5.783-17.126,3.566-.831,6.463.059,9.291,3.855a2.908,2.908,0,0,1,2.564-.327c2.588.841,2.573,3.418,1.021,5.278a.534.534,0,0,1-.837-.662,2.88,2.88,0,0,0,.654-2.049,1.672,1.672,0,0,0-2.041-1.193,3.707,3.707,0,0,0-1.073.654.8.8,0,0,1-1.126-.181c-2.894-4-5.18-4.481-8.086-3.789-6.233,1.466-9.973,9.391-4.659,14.865a.78.78,0,0,1,.105.981,2.031,2.031,0,0,0-.418,1.761c.406.993,2.318,1.227,3.4,1.094a.505.505,0,0,1,.575.4.5.5,0,0,1-.418.56,5.623,5.623,0,0,1-3.979-.539,2.547,2.547,0,0,1-.994-2.905,5.005,5.005,0,0,1,.236-.646Z" fill="#191919"></path><path d="M31.036,174.633a8.191,8.191,0,0,0,2.12.094,11.612,11.612,0,0,0,4.684-1.716c2.815-1.829,3.63-3.918,3.481-6.15a.524.524,0,1,0-1.047-.055,8.909,8.909,0,0,1-1.2,2.8c-1.613,2.366-4.324,3.224-7.092,3.847-.34.073-.628.152-.942.2A.486.486,0,1,0,31.036,174.633Z" fill="#191919"></path><path d="M19.023,150.967a12.75,12.75,0,0,1,.5-1.405c2.652-5.921,9.587-2.364,13.5-2.507,2.493-.089,4.589-1.475,7.328-.945,2.261.437,4.6,2.709,3.82,4.936,1.936.957,1.865,3.622.315,5.072.991,1.258,1.209,2.786.078,3.957a.486.486,0,0,1-.706-.668c.82-.889.287-2.095-.629-2.957a.6.6,0,0,1,.079-.916c1.345-.95,1.484-3.088-.288-3.363a.713.713,0,0,1-.471-1.12,1.613,1.613,0,0,0-.236-2.06c-2.449-2.907-6.089-.454-9.238-.327-4.059.166-10.221-2.987-12.065,1.536a5.784,5.784,0,0,0-.444,1.594.851.851,0,0,1-.785.743c-3.694.158-3.339,4.757-4.633,7.611-.446.983-1.25,1.9-1.727,2.92-.94,2.007.323,3.049,1.806,2.442a.815.815,0,0,1,.864,1.348,17.419,17.419,0,0,0-1.44,1.28,2.2,2.2,0,0,0,.1,3.02,2.424,2.424,0,0,0,2.382.178.792.792,0,0,1,.838,1.313c-3.256,2.952.724,5.5,2.512,5.24a2.914,2.914,0,0,0,1.361-.652c1.012-.8,1-1.455,1.518-1.536a.613.613,0,0,1,.5.144,1.8,1.8,0,0,0,2.46-.126.545.545,0,0,1,.759,0,.53.53,0,0,1,0,.749,2.984,2.984,0,0,1-3.429.672c-1.8,2.467-4.123,2.715-6.385,1.225a3.989,3.989,0,0,1-1.675-5.208v-.029c-3.017-.313-4.021-3.762-2.2-5.99a2.866,2.866,0,0,1-1.911-3.1c.159-1.884,1.484-3.05,2.173-4.567C14.836,156.875,14.659,151.646,19.023,150.967Z" fill="#191919"></path><path d="M24.624 164.611 A0.84 1.178 0 1 0 26.304 164.611 A0.84 1.178 0 1 0 24.624 164.611 Z" fill="#191919" transform="translate(-106.081 62.43) rotate(-43.367)"></path><path d="M30.578 159.403 A0.84 1.178 0 1 0 32.258 159.403 A0.84 1.178 0 1 0 30.578 159.403 Z" fill="#191919" transform="translate(-100.879 65.096) rotate(-43.367)"></path><path d="M147.077,141.7c-3.559-9.863-11.961-18.26-21.146-23.221a42.8,42.8,0,0,0-6.988-3.431.8.8,0,0,0-1.021.565,124.611,124.611,0,0,0-3.193,22.24,30.449,30.449,0,0,1-.261,4.323c-7.351.013-14.841-.076-22.115.911a.844.844,0,0,0-.549.337c-1.5,2.192-1.415,5.714-3.35,5.46-.857-.114-1.7-1.316-1.858-2.07a.823.823,0,0,0-1.57-.029,5.591,5.591,0,0,1-.419.945,1.46,1.46,0,0,1-2.774-.307.83.83,0,0,0-1.465-.227c-1,1.456-2.642.711-2.8-.992q-.03-.3-.031-.6c-.84.291-2.943.913-4.287,1.192-.6.125-.935-.5-.366-.9a12.536,12.536,0,0,1,4.758-1.489,7.371,7.371,0,0,1,1.634-3.422c-.283-.216-.3-1.327-.3-1.43-.066-.525.374-4.99.446-5.321.015-.111.377-1.572.889-1.526.548.045.628,1.485.628,1.654a36.333,36.333,0,0,1-.548,5.511c1.3-1.072,2.9-1.687,3.872-.306a.8.8,0,0,0,1.2.131,4.887,4.887,0,0,1,1.334-.832,2.047,2.047,0,0,1,2.565.385.813.813,0,0,0,1.387-.715c-1.2-5.963-3.3-16.729-3.454-22.81a.8.8,0,0,0-.942-.769c-5.975.982-11.208,4.814-15.494,9.055-9,8.873-16.043,20.215-12.143,32.3,2.646,8.333,9.027,12.146,16.671,16.108,0,2.161,0,3-.157,6.249a.785.785,0,0,0,.89.832,147.733,147.733,0,0,1,14.839-.788.767.767,0,0,0,.759-.816c-.119-2.669,0-5.224-.072-7.99a44.591,44.591,0,0,1-5.725,1.919,14.659,14.659,0,0,1-6.412.68.486.486,0,0,1-.026-.971c.314-.065.6-.146.89-.215,2.158-.485,2.562-.4,5.1-1.075.1-.027,9.185-2.781,10.822-3.518a46.084,46.084,0,0,0,4.632-2.454,66.965,66.965,0,0,0,11.619,2.779,70.062,70.062,0,0,0-.392,9.448.582.582,0,0,0,.183.447c.3.324.123.083,7.066-.031,8.3-.139,8.924.1,11.018.081,1.275-.016,1.607-.11,1.858-.11a.54.54,0,0,0,.576-.487c.351-4.6.312-6.62.366-9.84a16.072,16.072,0,0,0,1.623-.421C146.686,162.344,150.565,151.409,147.077,141.7Zm-43.235,19.979a.487.487,0,0,1-.628-.744c3.05-2.988,11.622-12.521,17.169-16.034a31.8,31.8,0,0,1,2.893-1.528c-3.217-.337-1.967.015-7.395-.477a.5.5,0,0,1-.5-.482.487.487,0,0,1,.5-.489,27.268,27.268,0,0,1,4.737-.33,48.1,48.1,0,0,1,6.072.586c.732.042,1.491.032,2.224.05a47.5,47.5,0,0,1-.157-4.776.539.539,0,0,1,1.073-.1c.157.942.34,1.874.471,2.821.105.937.183,1.882.288,2.822a.8.8,0,0,1-.864.884,41.461,41.461,0,0,1-4.47-.219C114.5,149.839,111.841,155.874,103.842,161.674Zm13.217,6.812c-.986-.217-1.623-.292-1.571-.825.1-.51.461-.457,2.2-.473,1.883-.013,4.525.225,7.406.081,1.089-.052,1.314-.1,5.025-.448.921-.092,1.445-.25,1.6.3C132.027,168.818,121.878,169.511,117.059,168.486Z" fill="#38a1ff"></path><path d="M160.685,155.291a.528.528,0,0,1,.6-.639c2.968.4,4.712,2.926,4.554,5.975a5.557,5.557,0,0,1-9.265,4.067c-2.74-2.853-1.013-8.795,3.586-9.6A.5.5,0,0,1,160.685,155.291Zm.078.175a.485.485,0,0,1-.366.57c-3.971,1.318-5.392,8.553.027,8.419,4.883-.12,5.071-7.655.68-8.761A.451.451,0,0,1,160.763,155.466Z" fill="#191919"></path><path d="M193.9,172.218a.53.53,0,0,1,.262,1.01c-5.45,2.523-11.527,5.784-20.23,8.6a.8.8,0,0,1-1.046-.882c1.155-8.411,2.349-17.481,4.58-25.726a.807.807,0,0,1,1.36-.361c2.757,2.781,7.013,7.514,8.375,9.073C191.744,169.137,191.842,169.753,193.9,172.218Zm-15.231-15.192a228.908,228.908,0,0,0-4,22.854c4.757-1.593,9.838-3.744,18.241-7.27-1.656-1.822-2.832-3.327-4.056-4.648C187.8,166.834,179.475,157.855,178.664,157.026Z" fill="#38a1ff"></path><path d="M105.518 131.378 A1.570 1.570 0 1 0 108.658 131.378 A1.570 1.570 0 1 0 105.518 131.378 Z" fill="#191919"></path><path d="M104.994 139.230 A1.570 1.570 0 1 0 108.134 139.230 A1.570 1.570 0 1 0 104.994 139.230 Z" fill="#191919"></path><path d="M103.947 171.158 A1.570 1.570 0 1 0 107.087 171.158 A1.570 1.570 0 1 0 103.947 171.158 Z" fill="#191919"></path><path d="M43.755,83.858c11.861-4.072,24.976-6.806,29.52-8a.53.53,0,0,1,.288,1.021c-2.817.826-5.627,1.742-8.479,2.533-6.741,1.87-13.371,3.4-21.722,6.315a.8.8,0,0,1-1.073-.656c-.61-4.9-1.985-13.78-2.277-17.373-.183-2.279-.256-4.556-.419-6.819a.49.49,0,0,1,.446-.522.5.5,0,0,1,.523.446C40.826,63.2,43.231,80.2,43.755,83.858Z" fill="#191919"></path><path d="M47,73.175a7.531,7.531,0,0,1,1.91-3.052c1.372-1.174,3.227-1,5-.612,4.346.946,11.367,4.459,13.164-3.763a11.2,11.2,0,0,0,.131-3.882.525.525,0,1,0-1.047.076c0,2.173-.876,5.97-2.774,7.048-3.893,2.211-12.03-4.46-15.886.463a7.891,7.891,0,0,0-1.413,3.468.473.473,0,0,0,.34.594A.466.466,0,0,0,47,73.175Z" fill="#38a1ff"></path><path d="M63.7,103.046a.5.5,0,0,1,.5-.178c3.346.214,4.341,5.33.68,6.47-4.258,1.325-5.337-4.622-1.648-6.266A.489.489,0,0,1,63.7,103.046Zm.13.793a3,3,0,0,0-.994,1.408,3.851,3.851,0,0,0-.235,1.487c.115.952.687,1.38,1.779,1.041a1.754,1.754,0,0,0,.968-2.593A2.262,2.262,0,0,0,63.827,103.839Z" fill="#191919"></path><path d="M10.23,91.11a.516.516,0,0,1,.55-.411c7.133.219,7.227,10.973-.707,10.96-6.812-.011-6.717-10.862-.052-10.589A.554.554,0,0,1,10.23,91.11Zm.262.586a.475.475,0,0,1-.445.345c-4.566.406-4.671,7.974.026,7.98,4.255,0,5.478-4.109,3.455-6.687A4.769,4.769,0,0,0,10.492,91.7Z" fill="#38a1ff"></path><path d="M80.812,29.768a.537.537,0,0,1,.654-.583,6.338,6.338,0,0,1,5.313,6.484c-.119,6.019-7.542,7.144-10.442,4.2S75.18,30.765,80.812,29.768Zm.733.553a.475.475,0,0,1-.366.371c-5.487,1.591-6.5,9.181-.6,9.077C86.691,39.662,86.4,32.04,81.545,30.321Z" fill="#38a1ff"></path><path d="M124.334,43.9c.119-4.486,3.922-5.152,6.15-8.783,1.91-3.111,1.519-8.182,5-9.522a.54.54,0,0,0,.366-.663.525.525,0,0,0-.654-.351c-4.825,1.128-4.317,6.778-6.1,9.68-2.1,3.422-6.545,4.389-5.731,9.706a.5.5,0,0,0,.523.451A.48.48,0,0,0,124.334,43.9Z" fill="#38a1ff"></path><path d="M130.562,46.756a12.666,12.666,0,0,1,.655-2.47c.961-2.482,3.181-2.83,5.443-4.085a6.593,6.593,0,0,0,3.716-6.185.551.551,0,0,0-.47-.594.509.509,0,0,0-.576.458,9.039,9.039,0,0,1-.785,2.111,5.5,5.5,0,0,1-2.015,2.377c-2.192,1.468-6.891,2.2-7.014,7a10.617,10.617,0,0,0,.078,1.368.484.484,0,1,0,.968.015Z" fill="#38a1ff"></path><path d="M177.356,59.752c-2.308-6.328-2.672-8.446-4.868-13.221a.832.832,0,0,1,.654-1.144c6.222-.555,11.447-.65,17.587-.981a.821.821,0,0,1,.68,1.341c-5.369,6.283-9.051,10.153-12.876,14.146C178.394,60.061,177.574,60.35,177.356,59.752Zm11.567-13.624c-3.454.168-13.137.661-14.5.769a83.858,83.858,0,0,1,3.768,11.881C184.538,50.957,183.543,52.419,188.923,46.128Z" fill="#38a1ff"></path><path d="M144.355,70.294c4.122-10.173,3.794-9.633,4.239-9.807.484-.189.383-.02,3.3,1.072,3.338,1.252,6.4,2.167,9.657,3.657,1.572.719,3.1,1.555,4.684,2.254a.544.544,0,0,1,.288.691.552.552,0,0,1-.706.288c-6.687-2.494-6.394-2.467-8.061-3.081-2.881-1.059-5.911-2.028-8.4-3.05-1,2.351-3.847,9.3-4.344,10.415a.752.752,0,0,1-1.413-.068l-1.414-5.214a.489.489,0,0,1,.916-.34C143.306,67.6,143.832,68.758,144.355,70.294Z" fill="#191919"></path><path d="M155.346,67.109c-.243-.394-.688-.341-1.858.178a13.765,13.765,0,0,0-1.517.809c-.037-.1-.367-.971-.419-1.066-.872-1.593-1.762-1.431-1.44.508a13.749,13.749,0,0,0,.429,1.408c-.405.239-1.372.817-1.763,1.115-.426.323-1.295,1.077-1,1.512.414.721,2.638-.657,3.275-1.029.24.7.783,2.368,1.488,2.149.705-.2.316-1.987-.033-3,.475-.282,1.446-.865,1.891-1.189C155.2,67.858,155.571,67.545,155.346,67.109Z" fill="#191919"></path><path d="M157.963,74.96a2.505,2.505,0,0,1-2.512-2.036c-.322-1.726.68-3.083,1.649-4.52a.477.477,0,1,1,.837.458c-.481,1.13-1.264,2.61-.942,3.742a1.02,1.02,0,0,0,1.754.4c.693-.681.726-1.175,1.544-3.067a.817.817,0,0,1,1.073-.426.8.8,0,0,1,.418,1.067c-.929,2.2-1.766,5.011-3.768,6.663-1.928,1.591-4.264-.058-4.319-2.211a.535.535,0,0,1,.472-.581.523.523,0,0,1,.575.471,1.951,1.951,0,0,0,1,1.351A1.065,1.065,0,0,0,157,76.048,6.416,6.416,0,0,0,157.963,74.96Z" fill="#191919"></path><path d="M152.18,98.61a12.7,12.7,0,0,1,1.1-4.7,8.454,8.454,0,0,1,2.067-3.154,5.8,5.8,0,0,1,9,1.694c2.251,4.153-1.555,9.811-6.2,10.766a.568.568,0,0,0-.444.615.552.552,0,0,0,.628.432c6.908-1.027,9.832-8.081,7.459-12.585-2.226-4.224-8.077-5.47-11.568-2.084a11.472,11.472,0,0,0-3.01,9.087.5.5,0,0,0,.524.45A.485.485,0,0,0,152.18,98.61Z" fill="#191919"></path><path d="M152.729,103.782c1.4,1.011,2.834,2.473,3.429,1.886.941-.94-3.052-3.855-4.4-4.326-.383-.136-1.531-.434-1.754.095C149.792,102.124,151.916,103.192,152.729,103.782Z" fill="#191919"></path><path d="M149.353,104.671c.335.268,1.355.809,2.146,1.322s2.75,2.167,3.324,1.565c.357-.429-.452-1.365-.654-1.581a15.146,15.146,0,0,0-3.979-2.554c-.49-.155-1.473-.4-1.674.076C148.367,103.848,148.574,104.039,149.353,104.671Z" fill="#191919"></path><path d="M149.851,106.375a12.023,12.023,0,0,0-.89.924.532.532,0,1,0,.811.688,10.889,10.889,0,0,0,.811-.992A.48.48,0,1,0,149.851,106.375Z" fill="#191919"></path><path d="M156.471,96.53a38.277,38.277,0,0,1-1.7,3.807.463.463,0,0,1-.575.351.506.506,0,0,1-.367-.591A30.948,30.948,0,0,1,155.791,94a.807.807,0,0,1,1.466.062,19.822,19.822,0,0,1,.994,2.735c1.354-.3,1.956-.3,2.984-.513a.844.844,0,0,1,.89.427.831.831,0,0,1-.184.965c-2.3,2.118-3.829,3.063-5.129,4.154-.5.5-1.2-.234-.759-.746a31.915,31.915,0,0,1,2.643-2.709,6.8,6.8,0,0,0-.759.223.809.809,0,0,1-1.073-.618A10.4,10.4,0,0,0,156.471,96.53Z" fill="#38a1ff"></path><path d="M185.887,84.735c1.492-3.314,4.523-9.052,4.449-9.945-.281-3.422-4.962-4.714-6.071-2.34a105.836,105.836,0,0,0-4.475,10.408c.418-.738,1.963-3.041,2.538-1.146a4.37,4.37,0,0,1,.131,1.578c.6-.8,2.46-2.892,3.245-1.12a5.489,5.489,0,0,1,.078,2.588Z" fill="#38a1ff"></path><path d="M186.594,69.65c1.657-.021,2.369.49,3.376,1.84.762.951.9,1.24,1.308,1.075.572-.207.232-1.371.027-1.85a4.633,4.633,0,0,0-4.92-2.578c-.538.141-1.585.63-1.414,1.18C185.12,69.678,185.278,69.65,186.594,69.65Z" fill="#191919"></path><path d="M192.325,69.351a5.038,5.038,0,0,0-5.26-2.08.812.812,0,0,1-.968-1.052c1.092-3.085,3.312-5.461,6.359-4.356a3.84,3.84,0,0,1,2.329,4.992,10.144,10.144,0,0,1-1.308,2.489.528.528,0,0,1-.34.518l-.027.015A.491.491,0,0,1,192.325,69.351Zm.55-1.345a5.691,5.691,0,0,0,.445-3.187c-.427-1.654-3.477-2.783-5.156.714A5.592,5.592,0,0,1,192.875,68.006Z" fill="#191919"></path><path d="M183.506,72.105a113.69,113.69,0,0,0-4.5,10.491.805.805,0,0,0,.077.677c-.032.275-.26,1.733-.313,2.629-.053.617-.314,4.731-.419,6.184a.83.83,0,0,0,1.518.5c1.731-2.654,3.924-4.707,5.661-7.36a.627.627,0,0,0,.8-.293c1.444-2.832,4.815-8.541,4.815-10.206C190.8,70.529,185.007,68.9,183.506,72.105Zm-1.2,14.746a2.62,2.62,0,0,0-2.038-.54c-.006-.458-.052-1.493-.183-2.712.42-.18.435-.58,1.01-1.238a5.251,5.251,0,0,1,.419-.55,3.325,3.325,0,0,1,.157.673l.026.759a.773.773,0,0,0,1.387.515c.415-.617,1.446-1.718,1.78-1.6.226.079.419.641.419.973a4.366,4.366,0,0,1,.026.57C185.193,83.776,183.094,85.957,182.309,86.851Zm7.137-11.679c-.708,1.9-2.108,4.735-3.061,7.058a1.638,1.638,0,0,0-1.728-1.432,3.164,3.164,0,0,0-1.57.746c-.065-.1-.254-1.383-1.439-1.361,1.076-2.417-.386.615,3.349-7.385.42-.911,1.623-.916,2.617-.476A2.7,2.7,0,0,1,189.446,75.172Z" fill="#191919"></path><path d="M35.537,53.9c-1.91-1.008-16.4-9.1-19.131-10.52a.768.768,0,0,1-.418-.6c-.084-.824-.24,0,15.545-15.719a.8.8,0,0,1,1.361.421,205.6,205.6,0,0,1,3.69,26.888.487.487,0,0,1-.968.1ZM31.585,29.287c-2.172,2.158-11.122,10.957-13.451,13.191,6.427,3.451,11.23,6.542,17.22,10.072C34.429,46.851,33.333,38.118,31.585,29.287Z" fill="#191919"></path><path d="M116.483,26.37c0-2.258.214-4.8-1.23-6.574-1.646-1.961-3.835-1.773-6.359-1.472-2.588.323-5.121.448-7.774,1.008-1.907.52-2.851,2.663-3.14,4.4-.419,2.436-.026,5.358-.026,7.3.049,3.486-.06,10.022,2.015,12.923a5.424,5.424,0,0,0,3.664,1.9c2.849.481,6.81.715,9.553-.151C117.273,44.437,116.61,39.363,116.483,26.37Zm-3.769,17.766a20.96,20.96,0,0,1-10.337-.314,2.633,2.633,0,0,1-1.1-.82c-1.7-2.329-1.738-9.106-1.78-12-.143-3.429-1.388-8.9,1.649-10.627a2.32,2.32,0,0,0,.645-.073,3.238,3.238,0,0,0,1.865,1.954,6.938,6.938,0,0,0,3.179.187,13.426,13.426,0,0,0,2.082-.308c1.349-.339,2.664-1.129,2.738-2.5a3.179,3.179,0,0,1,2.367,1.156c1.076,1.292.864,3.749.864,5.582C114.887,38.886,115.52,43.252,112.714,44.136Z" fill="#191919"></path><path d="M37.133,118.594l-.287.081c-1.78.173-1.6,2.845.026,3.162C38.457,122.146,39.466,119.322,37.133,118.594Z" fill="#38a1ff"></path><path d="M36.767,118.191a.554.554,0,0,1,.5-.1,2.642,2.642,0,0,1,1.414.6,2.406,2.406,0,0,1,.156,3.075c-1.288,1.844-4.029.69-4.056-1.507a1.916,1.916,0,0,1,.419-1.374A1.8,1.8,0,0,1,36.767,118.191Zm.262.942a.563.563,0,0,1-.131.026c-.7.21-.741,1.711.131,1.874C37.613,121.143,38.233,119.876,37.029,119.133Z" fill="#191919"></path><path d="M45.325,133.671a21.193,21.193,0,0,0,3.062-3.012c.118-.177.768-1.241.366-1.6-.686-.541-2.509,1.584-2.879,1.939-.66.636-2.7,2.355-2.093,3.026C44.088,134.416,45.2,133.751,45.325,133.671Z" fill="#191919"></path><path d="M55.924,140.852a32.727,32.727,0,0,0-2.067-4.323l.523.115a.8.8,0,0,0,.916-1.081,8.047,8.047,0,0,0-5.051-4.114.534.534,0,0,0-.626.808l-2.36,1.8a.491.491,0,0,0-.835.5,23.029,23.029,0,0,0,2.146,4.719.781.781,0,0,0,1.413-.356l.053-.461c.209.152.415.306.6.451,1.31,1.011,2.7,1.9,4.03,2.9A.822.822,0,0,0,55.924,140.852Z" fill="#38a1ff"></path><path d="M52.836,125.33a7.472,7.472,0,0,0-5.26-2.946,6.252,6.252,0,0,0-1.853.2c-3.3-6.008-8.084-10.657-14.941-10.546a8.929,8.929,0,0,0-1.264-1.877c-.484-.678-1.857-2.629-2.565-2.173-.716.519.741,2.453.916,2.7a14.85,14.85,0,0,0,1.657,2.063,22.137,22.137,0,0,0-.008,3.046c.295,5.624,3.83,9.622,7.944,13.425a8.3,8.3,0,0,0-.564,2.963,10.408,10.408,0,0,0,2.041,5.59.812.812,0,0,0,1.466-.288c.374-1.674.893-2.758,1.289-4.362a.73.73,0,0,0,1.014-.066c1.519-1.711,3.15-3.3,4.763-4.964a.521.521,0,0,0,.576-.683.536.536,0,0,0,.025-.142c2.609-.209,2.368-.391,4.24-.625A.808.808,0,0,0,52.836,125.33Zm-13.5,9.927c-1-2.14-.841-2.99-.791-5.045.238.217,1.669,1.512,2.137,1.948A21.7,21.7,0,0,0,39.332,135.257Zm2.852-3.766c-5.835-5.861-11.4-9.256-11.07-17.82,7.6.046,12.151,6.831,15.7,13.646C45.106,128.82,43.428,130.229,42.184,131.491Zm5.335-5.289c-.382-.837-.784-1.681-1.213-2.516a8.2,8.2,0,0,1,4.227,1.608A14.417,14.417,0,0,0,47.519,126.2Z" fill="#191919"></path><path d="M17.165,85.781C10.764,75.967,7.022,73.6,7.587,70.034c.429-2.7,3.025-4.562,5-6.18,3.659-3,9.077-9.4,13.765-2.7a76.685,76.685,0,0,1,5.522,9.862c1.1,2.233,2.458,3.971.733,6.755-1.8,2.908-11.047,12.518-15.284,8.369A.505.505,0,0,1,17.165,85.781Zm.89-.405c3.379,3.081,11.825-6.233,13.19-8.435a2.779,2.779,0,0,0,.393-2.675,17.947,17.947,0,0,0-1.2-2.525A76.477,76.477,0,0,0,25.017,62.1c-3.463-4.9-6.856-.7-11.411,3.017-1.736,1.417-4.052,3.022-4.423,5.182-.306,1.785,1.345,3.554,2.33,5C13.833,78.694,16.2,81.965,18.055,85.376Z" fill="#191919"></path><path d="M23.865,64.115c-2.407-4.074-7.066,1.313-9.5,3.174-1.047.812-3.114,2.3-2.538,3.907l-.445-.157c.6.746,1.178,1.851,2.172,2.175,2.25.749,5.653-2.62,7.3-3.837C22.53,68.129,25.252,66.449,23.865,64.115Z" fill="#38a1ff"></path><path d="M11.172,70.6c-.074-1.6,1.6-2.982,2.748-3.913,1.649-1.336,4.3-4.263,6.909-4.793a3.277,3.277,0,0,1,3.742,1.8,3.062,3.062,0,0,1-.026,3.41,12.269,12.269,0,0,1-3.218,2.926c-1.148.837-3.11,2.693-4.973,3.517-3.563,1.577-4.489-1.037-5.365-2.2A.5.5,0,0,1,11.172,70.6Zm1.152.8a3.162,3.162,0,0,0,1.439,1.175c1.7.508,5.353-2.928,6.6-3.853,1.561-1.155,3.817-2.5,2.827-4.19a1.985,1.985,0,0,0-1.231-1.052c-2.039-.458-5.337,3.116-7.118,4.407a9.272,9.272,0,0,0-2.12,1.791C11.93,70.754,12.5,71.008,12.324,71.4Z" fill="#191919"></path><path d="M16.537 76.944 A1.047 1.047 0 1 0 18.631 76.944 A1.047 1.047 0 1 0 16.537 76.944 Z" fill="#191919"></path><path d="M20.201 73.871 A1.047 1.047 0 1 0 22.295 73.871 A1.047 1.047 0 1 0 20.201 73.871 Z" fill="#191919"></path><path d="M18.631 80.084 A1.047 1.047 0 1 0 20.725 80.084 A1.047 1.047 0 1 0 18.631 80.084 Z" fill="#191919"></path><path d="M22.295 77.467 A1.047 1.047 0 1 0 24.389 77.467 A1.047 1.047 0 1 0 22.295 77.467 Z" fill="#191919"></path><path d="M20.724 83.224 A1.047 1.047 0 1 0 22.818 83.224 A1.047 1.047 0 1 0 20.724 83.224 Z" fill="#191919"></path><path d="M24.258 80.084 A1.047 1.047 0 1 0 26.352 80.084 A1.047 1.047 0 1 0 24.258 80.084 Z" fill="#191919"></path><path d="M23.865 71.186 A1.047 1.047 0 1 0 25.959 71.186 A1.047 1.047 0 1 0 23.865 71.186 Z" fill="#191919"></path><path d="M26.477,73.321c-.809,1.075.1,2.168.764,3.057a2.687,2.687,0,0,0,1.387,1.191c1.441.337,1.218-1.3.707-2.041C28.77,74.71,27.074,72.528,26.477,73.321Z" fill="#191919"></path></svg>