<svg viewBox="0 0 200 200" xmlns="http://www.w3.org/2000/svg"><path d="M67.125,94.236a.381.381,0,0,0-.434-.582c-1.338.4-4.51,3.639-5.219,5.519s1.044,6.021,2.067,7.714c.215.355.723,0,.6-.341-.542-1.612-2.008-5.4-1.626-6.9C63.138,97.34,66,95.759,67.125,94.236Z" fill="#191919"></path><path d="M73.843,97.2c-.278,2.06-.368,7.178.742,8.7a.348.348,0,0,0,.489.059c.615-.477-.8-3.553-.094-8.69C75.241,95.587,74.061,95.58,73.843,97.2Z" fill="#191919"></path><path d="M90.629,101.716a37.109,37.109,0,0,1,10.537-2.944c.535-.087.328-.836-.154-.883a19.746,19.746,0,0,0-4.4.723,28.444,28.444,0,0,1-2.769-3.587c-.429-.669-1.051-.234-.542.783a11.961,11.961,0,0,0,2.475,3.024c-1.432.4-4.335,1.338-5.432,2.268C90.033,101.34,90.248,101.885,90.629,101.716Z" fill="#191919"></path><path d="M92.067,85.311c6.108,1.579,10.477,6.061,13.849,11.119,1.779,2.676,3.118,6.2-.268,8.383-3.111,2.007-9.192,3.526-13.033,3.867-.347,0-.521.563-.113.669,2.81.669,11.855-2.107,14.357-4.175,2.75-2.268,2.054-6.021.368-8.7-3.345-5.352-8.6-10.511-15.02-11.748A.3.3,0,0,0,92.067,85.311Z" fill="#191919"></path><path d="M87.792,86.85c-1.089,2.576-6.216,3.452-7.427,1.278a4.272,4.272,0,0,1-.451-1.553c-.074-.406-.178-.648-.632-.568-.91.16-4.436,2.134-5.165,3.238-.148.214.087.575.347.482.522-.188,2.9-1.8,4.824-2.6a4.138,4.138,0,0,0,.482,1.646c1.164,1.793,4.857,2.114,7.185.488C89.605,87.412,88.153,85.994,87.792,86.85Z" fill="#191919"></path><path d="M82.145,106.138c2.509-.179,3.024-1.719,2.194-1.76-1.17-.053-1.445,1.338-4.549.361C78.86,104.438,79.014,106.361,82.145,106.138Z" fill="#191919"></path><path d="M83.269,103.488c-.194-.742-.6-3.733-2.281-3.572s-1.024,2.636-.763,4.061C81.262,104.191,82.841,104.264,83.269,103.488Z" fill="#191919"></path><path d="M84.688,107.643c.429-.179.307-.917-.194-.836-2.389.368-2.168.79-4.63-.046-.3-.1-.669.24-.442.541C80.546,108.586,83.272,108.232,84.688,107.643Z" fill="#191919"></path><path d="M81.663,111.724c1.778.588,6.37,0,6.751-2.107.248-1.338.341-4.971-2.194-6.884s-2.77-.724-2.442-.435a20.488,20.488,0,0,0,1.906,1.277c1.847,1.338,2.181,4.59,1.733,6.021a7.109,7.109,0,0,1-5.907,1.278C81.128,110.754,81.262,111.592,81.663,111.724Z" fill="#191919"></path><path d="M84.855,109.035c-.557-.663-2.128,1.2-4.683-.141a.364.364,0,0,0-.409.6C82.125,111.256,85.633,109.961,84.855,109.035Z" fill="#191919"></path><path d="M66.65,107.061c1.077.289,3.292.348,3.888-.475a.449.449,0,0,0-.162-.613c-.562-.331-1.747.917-4.542-.056C65.353,105.7,64.81,106.567,66.65,107.061Z" fill="#191919"></path><path d="M66.055,103.4a3.388,3.388,0,0,0,2.917-.114c-.228-.87-.388-3.526-2.007-3.479S65.874,102.264,66.055,103.4Z" fill="#191919"></path><path d="M65.346,104.773c2.016,1.263,5.486.354,4.73-.535-.462-.549-1.144.576-4.389-.228A.422.422,0,0,0,65.346,104.773Z" fill="#191919"></path><path d="M84.774,76.7c.4-.29-.26-1.76-.756-1.412C83.363,75.717,84.2,77.113,84.774,76.7Z" fill="#191919"></path><path d="M90.468,83.237a12.073,12.073,0,0,0-.589-3.4c-.107-.274-.616-.274-.6.054,0,1.432,2.007,5.513-3.566,5.867A28.683,28.683,0,0,1,82.62,85.5c-.435.04-1.1.957,1.559,1.2C86.668,86.93,90.523,86.421,90.468,83.237Z" fill="#191919"></path><path d="M86.4,83.136a2.345,2.345,0,0,1,1.111-.936.348.348,0,0,0-.141-.669,1.752,1.752,0,0,0-1.478,1.338C85.865,83.2,86.238,83.394,86.4,83.136Z" fill="#191919"></path><path d="M88.347,75.1c.52-.224-.067-1.592-.582-1.338S87.951,75.273,88.347,75.1Z" fill="#191919"></path><path d="M71.421,78.48a8.424,8.424,0,0,0,7.359.288c1,2.007,1.666,2.743,3.854,3.178,3.264.669,3.271-3.4,4.683-4.282a2.957,2.957,0,0,1,1.338,1.124,4.878,4.878,0,0,1-1.2.823c-.629.321.414,1.1,1.659-.214a.877.877,0,0,0,.167-1.165c2.542.368,1.746-4.576,1.338-5.86-.669-2.1-1.766-1.967-3.5-1.526a20.539,20.539,0,0,0-6.3,2.783c-1.338.864-3.184,1.88-2.676,3.667-2.228.87-4.014.575-6.3.08A.619.619,0,0,0,71.421,78.48Zm17.562-6.69c.9.916,1.732,6.081.361,5.292-1.171-.669-2.449-.957-3.3.187-1.131,1.519-.81,3.954-3.533,3.258-2.007-.522-2.769-2.208-3.184-4.114a21.383,21.383,0,0,1,9.661-4.6Z" fill="#191919"></path><path d="M96.041,82.869c4.385-2.357,10.149-5.587,14.217-7.58.516-.254,0-.957-.482-.8-3.171,1.044-11.139,5.821-14.05,7.861C95.439,82.548,95.727,83.037,96.041,82.869Z" fill="#191919"></path><path d="M97.613,79.4a.341.341,0,0,0,.107-.669c-.809-.227-3.345-1.338-2.228-2.4,2.409-2.321,9.962-2.408,13.02-2.488a.493.493,0,0,0,.033-.984C91.558,72.766,91.793,78.855,97.613,79.4Z" fill="#191919"></path><path d="M94.315,84.669c8.971-.83,15.034.776,14.21,11.607-.066.843.636.857.729.348,1.626-8.878-2.743-15.153-15.04-12.6a.328.328,0,0,0,.1.649Z" fill="#191919"></path><path d="M123.284,71.241a.334.334,0,0,0-.414-.508c-.837.5-10.37,8.229-10.779,6.088-.736-3.814.669-15.589,2.9-22.627.849-2.676,3.151-8.664,5.353-2.89.95,2.509,1.7,10.751,2.073,13.662.067.528.89.548.836,0-.368-3.934-.388-12.779-2.843-15.923-3.292-4.209-5.908,2.756-6.509,5.124-1.212,4.777-3.934,18.325-2.676,23.1C112.1,80.628,121.412,73.572,123.284,71.241Z" fill="#191919"></path><path d="M128.416,84.936c-.669.729-2.4,5.453-7.3,14.15-.228.408.448.77.715.395,1.2-1.706,7.165-12.19,7.3-14.264A.4.4,0,0,0,128.416,84.936Z" fill="#191919"></path><path d="M129.332,70.472c.256.28.856-.121.71-.542-.356-1.017-3-2.081-3.432-1.244C126.389,69.114,128,69.02,129.332,70.472Z" fill="#191919"></path><path d="M123.719,82.2c10.645-1.145,21.135-3.051,25.423-7.955,4.061-4.683-1.338-5.66-4.382-4.6a.428.428,0,0,0,.207.816c1.807-.227,5.9-.876,4.014,2.275-3.88,6.563-18.157,7.192-24.921,8.423a69.226,69.226,0,0,1,5.527-8.082c2.528-.475,5.064-.937,7.586-1.432.522-.107,1.673-1.405-4.014-.281-1.9.375-3.626.281-4.918,1.753C126.335,75.269,121.4,82.449,123.719,82.2Z" fill="#191919"></path><path d="M178.881,93.828c-14.72-1.576-44.759,3.96-60.019,7.359a19.347,19.347,0,0,0-10.618,5.56c-5.453,5.037-11.6,13.166-14.2,18.592-3.159,6.59,1.9,6.777,6.516,6.249,22.078-2.509,51.288-8.43,71.8-16.5,6.107-2.4,14.719-6.61,15.388-14.17C188.214,95.44,183.283,94.3,178.881,93.828Zm7.961,7.091c-1.056,7.293-10.845,11.575-15.669,13.441-20.953,8.1-48.551,13.776-70.556,16.057-4.683.488-8.2.743-5.084-5.105a68.728,68.728,0,0,1,14.23-18.264c3.573-3.259,4.014-3.345,9.052-4.6,14.718-3.646,45.147-8.791,59.436-7.467C182.393,95.373,187.552,96.015,186.842,100.919Z" fill="#191919"></path><path d="M38.444,107.971c-3.439-.16-10.966.227-14.592.535C1.52,110.4.309,125.225,13.509,129.126a109.988,109.988,0,0,0,16.552,3.057c.769.087.937-1.251.161-1.338-4.684-.629-9.367-1.405-14.01-2.468-12.9-2.958-11.949-11.234-3.807-15.616,7.259-3.907,18.064-2.723,26.173-4.014C39.046,108.687,38.9,107.992,38.444,107.971Z" fill="#191919"></path><path d="M58.04,107.71c1.131-3.847.462-5.981,3.639-12.966.8-1.739,4.015-1.953,5.794-2.047,6.918-.368,13.816-.783,16.766.582,2.335,1.077,4.844,13.963,6.269,17.522.2.509,1,.5,1-.127,0-3.379-3.2-12.257-4.684-15.562-1.11-2.475-1.866-3.492-4.322-3.873-3.92-.6-9.747-.4-14.819.039-5.352.456-6.69,1.58-7.439,3.345-1.579,3.654-3.345,10.7-3.165,12.993A.509.509,0,0,0,58.04,107.71Z" fill="#191919"></path><path d="M87.444,115.016c2.348-.2,5.714-1.338,6.951-3.519.228-.388-.194-.984-.635-.669-2.335,1.519-3.172,2.642-6.356,2.917-5.352.468-7.761-3.713-13.662-5.352-4.429-1.245-12.169-.516-16.237,1.431C53.33,111.831,46.2,121.793,45.683,126.4c-.047.421.669.615.749.241.89-3.7,8.758-14.445,11.722-15.89,1.759-.856,9.935-2.616,15.2-1.17C78.466,110.928,81.657,115.514,87.444,115.016Z" fill="#191919"></path><path d="M98.724,133.254a27.4,27.4,0,0,0-5.433,5.887c-.18.328.288.73.562.475,1.907-1.82,3.8-3.646,5.66-5.506C100,133.655,99.266,132.906,98.724,133.254Z" fill="#191919"></path><path d="M87.785,144.139c-8.592,7.371-14.32,6.72-17.529,7.359-.588.127-1.338,1.833,5.058.482a25.779,25.779,0,0,0,13.254-7.012A.571.571,0,0,0,87.785,144.139Z" fill="#191919"></path><path d="M194.329,47.37c-.763,1.338-2.122,6.2-2.677,7.961-10.436,33.2-9.5,30.862-10.122,33.479-.094.388.522.669.669.247.694-1.8-.11.853,11.6-36.944a21.579,21.579,0,0,0,1.2-4.6C195.038,47.142,194.516,47.1,194.329,47.37Z" fill="#38a1ff"></path><path d="M21.859,103.1c4.639-5.507,5.458-8.286,23.6-28.193,1.82-2.007,4.683-5.252,5.7-7.707.174-.435-.455-.669-.709-.328-3.86,5.018-7.192,8.718-11.447,13.461-4.5,5.011-14.244,16.572-17.823,22.339C20.9,103.147,21.537,103.482,21.859,103.1Z" fill="#38a1ff"></path><path d="M176.967,71.315c-.682,1.183-2.414,6.924-3,8.7-.99,2.944-2.147,5.861-2.964,8.858a.388.388,0,0,0,.736.248c1.458-3.138,3.472-9.367,4.683-13.067a21.883,21.883,0,0,0,1.258-4.469A.388.388,0,0,0,176.967,71.315Z" fill="#38a1ff"></path><path d="M36.323,99.026c-.267.369.241.823.542.462,3.66-4.336,7.292-8.7,10.965-13.026,1.225-1.439,2.57-2.79,3.66-4.336.214-.294-.14-.789-.462-.508C47.81,84.414,38.66,95.794,36.323,99.026Z" fill="#38a1ff"></path><path d="M142.144,31.347a37.291,37.291,0,0,1,4.737-2.522,16.994,16.994,0,0,1,1.759,8.6c0,1.72.442,1.961.863.328,1.338-5.238.716-11.293-.809-16.558-.616-2.121-.87-1.927-.917-1.091-.287,5.152-4.91,7.266-6.242,11.046C141.415,31.447,141.7,31.637,142.144,31.347Z" fill="#38a1ff"></path><path d="M124.287,57.272c3.266.007,4.524-3.566,6.25-5.8-.669,1.967.729,5.145-.322,7.587-.595,1.385,1.03,1.639,2.181-5.352.783-4.8,8.825-6.69,11.883-11.862,2.046-3.486,1.652-8.584,1.156-6.777C142.672,45.1,130.8,43.811,127.278,50.99c-1.071,2.181-.06,4.335-3.238,5.579C123.873,56.616,122.742,57.268,124.287,57.272Z" fill="#38a1ff"></path><path d="M170.826,40.747c-.175-.576-.556-1.626-.957.314-1.131,5.413-7.814,7.359-9.367,9.54-.816,1.138-.608,1.512.562.669,2.114-1.465,4.456-1.391,6.249-2.622a16.079,16.079,0,0,1,.167,7.68c-.294,1.338.054,1.7.89.623C171.5,52.923,172.3,45.612,170.826,40.747Z" fill="#38a1ff"></path><path d="M162.791,54.167c-4.875,7.957-22.915,8.223-24.983,20.212-.053.288.161.736.576.194.6-.776,4.014-8.249,16.057-9.942-2.3,3.773-2.195,6.69-3.666,10.37-4.912,12.23-12.712,14.117-21.229,15.027-.348,0-.321,1.01.234,1.07,19.222,2.067,24.507-10.7,26.761-20.934,1.392-6.289,8.075-7.667,7.113-16.057C163.593,53.5,163.426,53.131,162.791,54.167Z" fill="#38a1ff"></path><path d="M149.276,49.585c-2.007,3.572-2.007,7.921-1.212,11.928.141.669.744.248.717-1.09-.127-7.172,4.683-9.935,9.292-13.883,5.827-5.011,11.769-16.679,6.082-23.5-.408-.408-.762-.341-.669.107,2.007,11.139-6.182,15.823-14.2,20.867-14,8.831-5.68,13.555-18.525,18.526C126.5,64.2,121.05,65.889,119.8,70.92a.378.378,0,0,0,.723.221c1.224-3.486,10.878-5.687,13.976-6.891C144.552,60.329,142.719,54.8,149.276,49.585Z" fill="#38a1ff"></path><path d="M77.194,76.68c-.522-1.933,2.549-4.014,5.547-5.439S86.594,69.856,87.5,69.9c-1.392-3.084-3.92-6.269-10.925-3.553s-5.319,8.3-4.884,10.2A11.739,11.739,0,0,0,77.194,76.68Z" fill="#38a1ff"></path><path d="M72.177,80.012c-.75,3.586.715,5.7,3.92,5.954a4.014,4.014,0,0,0,4.416-3.679,4.412,4.412,0,0,1-2.135-2.342A11.691,11.691,0,0,1,72.177,80.012Z" fill="#38a1ff"></path><path d="M70.1,174.847c-5.58,4.553-15.929,5.574-22.64,2.844-.394-.161-.883.368-.475.669,5.567,4.081,18.7,1.733,23.805-2.442C71.414,175.4,70.736,174.33,70.1,174.847Z" fill="#38a1ff"></path><path d="M81.616,129.4c2.772,5.185,2.677,6.811,4.055,12.2a.569.569,0,0,0,1.124-.18c-.154-3.686-1.894-9.728-4.316-12.538C82.118,128.457,81.334,128.872,81.616,129.4Z" fill="#38a1ff"></path><path d="M85.276,125.286c7.112,11.242,6.022,20.01,5.1,25.376-.08.468.917.669,1.031.194,2.348-9.942.368-19.328-5.44-26.052C85.671,124.443,85.029,124.9,85.276,125.286Z" fill="#38a1ff"></path><path d="M30.81,155.459c.389.286.77-.235.529-.589-1.92-2.77-3.279-5.225-3.131-8.7,0-.789-1.191-.9-1.225-.106C26.823,149.391,28,153.394,30.81,155.459Z" fill="#38a1ff"></path><path d="M67.607,171.489c.463-.427-.248-1.258-.743-.85-4.288,3.54-6.864,3.038-11.694,2.757a.354.354,0,0,0-.141.669C58.421,176,64.547,174.31,67.607,171.489Z" fill="#38a1ff"></path><path d="M78.686,161.233c-1.223-.945-2.482-1.786-3.532-2.569-4.5-3.345-9-6.691-13.5-10a21.91,21.91,0,0,0,2.3-1.819c1.131-1.961.241-5.212-1-7.192,5.48-3.553,16.137-11,19.509-16.726s-2.455-10.083-7.627-6.323c-4.683,3.379-11.882,14.385-14.9,19.4-1.96-1.244-5.921-1.746-7.62-.669a4.916,4.916,0,0,0-1.1,1.3c-4.684-5.185-9.441-10.905-14.331-15.822-6.871-6.9-16.278-1.252-5.968,8.536,2.5,2.376,11.447,9.367,17.843,12.177a21.513,21.513,0,0,0-1.666,6.649c-4.576,3.079-11.333,9.026-15.715,12.967-7.935,7.138,1.672,14.771,8.657,6.536,3.64-4.295,7.42-10.43,10.658-15.147a14.354,14.354,0,0,0,6.556-1.425,172.235,172.235,0,0,0,12.712,18.064C79.67,181.217,89.3,169.439,78.686,161.233Zm-39.861,5.653c-5.815,6.529-13.046,1-6.489-4.9,4.683-4.248,10.276-8.109,14.826-12.43a3.064,3.064,0,0,0,2.134,2.676C46.145,156.67,42.323,162.958,38.825,166.886Zm10.2-25.978c-.415-.469-9.8-5.467-17.207-12.551-9.186-8.771-1.372-12.926,4.522-6.624,4.824,5.165,9.521,10.7,14.231,16A32.69,32.69,0,0,0,49.028,140.908Zm10.189-2.195c3.76-5.238,11.374-17.89,16.345-21.242,4.088-2.77,8.436.154,5.727,4.684-3.305,5.533-15.094,13.936-21.121,18.177C59.371,140.332,59.09,139.67,59.217,138.713Zm-.749,11.8c.776-.388,1.532-.816,2.255-1.265,1.866,1.532,12.443,9.351,17.087,13.047,8.657,6.911,1.713,16.257-6.63,5.88C71.18,167.93,65.784,161.9,58.468,150.515Z" fill="#38a1ff"></path><path d="M23.832,137.034a.549.549,0,0,0-1.01-.381c-3.693,7.231-1.338,18.171,4.088,24.124.321.349.937-.153.669-.541C21.919,152.8,21.524,145.624,23.832,137.034Z" fill="#38a1ff"></path><path d="M45.669,113.337c-2.538.671-6.175,2.16-7.359,4.683-.207.434.468.863.789.521,2.516-2.676,3.513-2.736,6.972-4.1C46.673,114.207,46.308,113.168,45.669,113.337Z" fill="#38a1ff"></path><path d="M49.088,107.523c-4.536.255-11.42,3.064-14.8,7.245-.281.348.214.8.5.529,3.439-3.151,7.447-6.215,14.425-6.617C49.951,108.633,49.818,107.482,49.088,107.523Z" fill="#38a1ff"></path></svg>