<svg viewBox="0 0 200 200" xmlns="http://www.w3.org/2000/svg"><path d="M167.966,75.756c-.186,5.2-3.9,16.308-3.9,16.308s12.971,1.842,20.151-2.428C192.041,84.991,174.132,76.29,167.966,75.756Z" fill="#38a1ff"></path><path d="M119.5,153.613c.72-4.511,1.468-11.023,2.428-16.228,0,0,11.718,1.174,17.429,4.084,1.442.72,3.363,1.761,3.951,3.256.747,1.868.48,3.656-2.349,5.365C138.927,151.317,129.8,155.881,119.5,153.613Z" fill="#38a1ff"></path><path d="M118,38.39c-.374-1.655-1.388-2.349-2.909-2.936a47.192,47.192,0,0,0-12.945-3.2c-1.468-.107-3.63-.027-4.4,1.468a15.977,15.977,0,0,0-1.682,6.139,4.644,4.644,0,0,0,1.281,3.416c.935.828,2.59,1.068,3.737,1.442.1.033,8.18,2.607,10.543,2.989,1.254.213,2.722.507,3.844-.267,1.521-1.068,2-3.043,2.3-4.778A10.951,10.951,0,0,0,118,38.39Zm-4.111,7.953a.409.409,0,0,1-.8-.106c.16-3.016,2.989-7.127-.187-9.555-1.468-1.148-3.763-1.522-5.525-2.029s-3.55-1.041-5.338-1.468c-.106-.026-.053-.16.027-.16,2.322.4,4.644.8,6.939,1.334,1.735.4,3.977.668,5.312,1.976C116.961,38.95,114.612,43.434,113.891,46.343Z" fill="#38a1ff"></path><path d="M101.881,45.73a8.884,8.884,0,0,0,1.441,8.354c1.6,2.055,4.7,3.817,7.367,3.149a.379.379,0,0,0,0-.72c-2.509-.614-4.724-1.041-6.539-3.07a8.733,8.733,0,0,1-1.815-7.58A.237.237,0,1,0,101.881,45.73Z" fill="#191919"></path><path d="M109.328,53.764c1.642.646,4.377.347,5.231-1.415a.348.348,0,0,0-.374-.507c-1.3.359-2.1,1.281-4.777,1.281C109.034,53.123,109.005,53.636,109.328,53.764Z" fill="#191919"></path><path d="M105.751,46.984c-.194.791.664,2.021,2.322,2.242a1.638,1.638,0,0,0,1.2-.347c.294-.187.187-.72-.187-.667a3.2,3.2,0,0,1-1.654-.267,6.784,6.784,0,0,1-1.228-1.068A.27.27,0,0,0,105.751,46.984Z" fill="#191919"></path><path d="M120.084,45.463c.827-.881,1.361.64,1.441,1.121.416,2.592-1.658,2.8-2.429,3.6a.5.5,0,0,0,.214.827c1.4.493,3.843-1.663,3.47-4.217-.187-1.361-1.842-3.256-2.963-1.521A.164.164,0,0,0,120.084,45.463Z" fill="#191919"></path><path d="M96.223,36.495c-1.605-1.49-5.923-.719-7.821,2.669-1.659,2.892-1.213,6.31.216,9.188a4.866,4.866,0,0,0-3.525,7.066c.053.214.453.054.374-.213a4.146,4.146,0,0,1,4.35-5.445.779.779,0,0,0,.667-1.148c-1.325-2.49-2.3-5.365-1.147-8.114a5.276,5.276,0,0,1,2.588-2.829c1.361-.64,2.483-.213,3.9-.24A.561.561,0,0,0,96.223,36.495Z" fill="#191919"></path><path d="M138.1,68.2a9.407,9.407,0,0,0-3.79-6.059c2.882-2.962,3.47-7.713,2.108-11.557-1.6-4.51-5.5-7.633-9.635-9.742a14.811,14.811,0,0,0-8.114-13.131c-4.8-2.349-11.8-1.842-15.48,2.348-.16.161.026.454.24.321,4.511-2.589,9.769-3.737,14.6-1.228a13.529,13.529,0,0,1,7.019,12.2.81.81,0,0,0,.427.721c11.089,4.753,12.383,14.8,7.1,19.618a.745.745,0,0,0,.16,1.174,7.681,7.681,0,0,1,3.95,5.845c.267,2.456-.747,4.4-2,6.406-.348.587.4,1.068.88.694C137.753,74.1,138.509,70.817,138.1,68.2Z" fill="#191919"></path><path d="M126.436,89.422c.318,2.665,1.279,3.755,2.509,10.623a42.143,42.143,0,0,1,.827,10.036,34.589,34.589,0,0,1-1.708,9.181c-.674,1.88-2.729,5.078-.56,9a.631.631,0,0,0,1.147-.481,8.039,8.039,0,0,1-.16-5.792,32.535,32.535,0,0,0,2.669-12.838,57.4,57.4,0,0,0-2.375-14.653,18.441,18.441,0,0,0-2-5.124C126.65,89.262,126.409,89.289,126.436,89.422Z" fill="#191919"></path><path d="M133.723,84.671c2.812,9.485,3.023,14.178,2.135,20.925a99.622,99.622,0,0,1-1.975,10.943c-.46,2.56,1.744,8.693-.133,13.426-.241.614.64.854.987.4,2.52-3.335.633-9.169.56-12.945,0-1.412,3-11.3,2.323-20.1-.321-4.3-1.095-9.154-3.39-12.891C134.043,84.217,133.616,84.378,133.723,84.671Z" fill="#191919"></path><path d="M132.148,123.612c0,1.148.027,2.3-.027,3.47a32.523,32.523,0,0,1-.8,4.271c-.053.267.267.507.481.294,1.762-1.9,1.735-5.846.774-8.141C132.468,123.292,132.148,123.426,132.148,123.612Z" fill="#191919"></path><path d="M129.479,124.867a23.617,23.617,0,0,1-.187,3.63,13.886,13.886,0,0,0-.534,2.936.274.274,0,0,0,.454.187c1.708-1.442,1.6-4.938.987-6.833A.366.366,0,0,0,129.479,124.867Z" fill="#191919"></path><path d="M91.178,58.541a17.41,17.41,0,0,1-10.222-3.9,19.7,19.7,0,0,1-6.166-9.688c-2.082-7.314.561-14.734,4.351-21.006.347-.56-.481-1.014-.855-.507-4.724,6.326-7.046,15.08-4.457,22.714,2.4,7.1,9.4,13.719,17.349,12.918A.268.268,0,0,0,91.178,58.541Z" fill="#191919"></path><path d="M87.068,69.431a35.17,35.17,0,0,1-8.728-5.178,29.818,29.818,0,0,1-6.486-8.007,25.321,25.321,0,0,1-3.2-17.269c.294-1.895,1.148-3.843,1.228-5.765a.384.384,0,0,0-.507-.374C67.8,28.8,72.118,25.511,71.267,19.706c-.027-.266-.481-.266-.534,0a42.612,42.612,0,0,1-1.628,7.314c-.694,2.055-1.13,4.32-.169,6.295-.987,1.681-1.192,3.927-1.486,5.8a26.039,26.039,0,0,0,3.417,17.429C74.336,62.625,80.048,67.91,86.8,70.071A.348.348,0,0,0,87.068,69.431Z" fill="#191919"></path><path d="M73.135,18.879a28.645,28.645,0,0,1-.213,3.176,24.833,24.833,0,0,0-.507,3.1.377.377,0,0,0,.694.187c1.2-1.761.987-4.564.56-6.512C73.616,18.505,73.139,18.586,73.135,18.879Z" fill="#191919"></path><path d="M75.484,25.925a10.512,10.512,0,0,0,.8-3.6c.053-.961.32-2.642-.4-3.39a.265.265,0,0,0-.427.054c-.427.827-.026,2.055,0,2.963a11.7,11.7,0,0,1-.373,3.843C74.977,26.005,75.378,26.166,75.484,25.925Z" fill="#191919"></path><path d="M56.934,104.075c-4.814,3.982.187,11.424,2.776,15.32a91.167,91.167,0,0,0,8.7,10.837c.988,1.068,2.055,2.749,3.39,3.363.347.16.907-.107.72-.561a9.39,9.39,0,0,0-2.188-2.749c-4.967-5.533-9.02-10.1-12.438-16.788-1.335-2.669-2.829-6.379-.587-9.048A.265.265,0,0,0,56.934,104.075Z" fill="#191919"></path><path d="M82.664,115.766c-1.128-.985-7.3-2.7-9.39-3.062a8.2,8.2,0,0,0-1.767-3.211.412.412,0,0,0-.694.294,8.182,8.182,0,0,0,1.2,3.069c4.071,8.675,3.972,9.119,5.418,11.5a.2.2,0,0,0,.374-.16c-.575-2.588-2.23-6.382-4.132-10.6,2.27,1.039,7.346,2.953,8.7,2.863C82.69,116.433,82.934,116,82.664,115.766Z" fill="#191919"></path><path d="M110.742,112.083c-6.792,13.659-12.03,17.314-18.389,23.967-7.437,7.719-7.929,15.6-10.57,28.933-3.189,15.944-3.346,16.266-3.551,18.819-.821-.013-1.691.37-2.508.345a7.6,7.6,0,0,1-2.312-.564c.276-1.9.091,1.061,1.058-31.652.16-5.391.187-10.863,1.361-16.174,2.5-10.958,7.865-16.706,13-23.941.214-.294-.294-.7-.56-.4-5.747,6.345-10.73,13.372-13.105,21.7-1.884,6.576-1.877,11.359-2.643,41.157a71.769,71.769,0,0,0-.106,9.582.56.56,0,0,0,.6.465c1.339,1.181,4.256,1.641,5.436.184a.422.422,0,0,0,.533-.249,69.8,69.8,0,0,0,1.921-8.541c5.411-26.778,5.082-30.895,11.958-38.194,3.389-3.63,7.1-6.833,10.222-10.7a64.032,64.032,0,0,0,8.781-14.065C112.21,112,111.116,111.335,110.742,112.083Z" fill="#191919"></path><path d="M72.148,184.44c-1.337-1.306-11.424,7.954-12.011,9.822,3.683,1.522,8.274.481,11.877-1.227s5.792-3.951,6.94-7.794A5.69,5.69,0,0,1,72.148,184.44Z" fill="#191919"></path><path d="M49.247,30.943c-4.837,7.768-8.861,28.906-8.861,28.906a70.152,70.152,0,0,1-14.92-12.678,15,15,0,0,1-3.55-8.327c-.16-6.62,9.769-8.168,14.493-8.541a82.35,82.35,0,0,1,13.078.32A1.8,1.8,0,0,0,49.247,30.943Z" fill="#38a1ff"></path><path d="M27.521,109.413c-1.488-1.209-4.374-1.4-5.231.32-.043.086-2.99,3.775.854,6.006a3.985,3.985,0,0,0,5.1-1.148A3.94,3.94,0,0,0,27.521,109.413Z" fill="#191919"></path><path d="M152.86,153.906a3.145,3.145,0,1,0,4.831-1.094,3.255,3.255,0,0,0-4.271.267Z" fill="#38a1ff"></path><path d="M48.981,20.534c-1.5-1.393-3.665-2.188-5.738-3.259a43.845,43.845,0,0,0,3.362-4.428c.187-.347-.214-.827-.587-.587a18.9,18.9,0,0,0-4.024,4.382c-1.533-.765-3.1-1.472-4.624-2.247-.458-.232-.881.454-.4.721,1.446.852,2.879,1.719,4.319,2.557a19.855,19.855,0,0,0-2.211,4.142c-.114.345.4.667.641.374.983-1.207,1.836-2.545,2.745-3.841,2.3,1.3,4.074,2.6,6.009,3.067A.532.532,0,0,0,48.981,20.534Z" fill="#191919"></path><path d="M61.285,162.608a8.436,8.436,0,0,0-2.483-1.564,22.074,22.074,0,0,0,2.456-3.374c.187-.347-.218-.809-.587-.588a12.67,12.67,0,0,0-3.155,3.334c-1.154-.574-2.347-1.089-3.518-1.625a.419.419,0,0,0-.427.72c1.069.678,2.127,1.34,3.217,1.988a14.536,14.536,0,0,0-1.589,3.137c-.115.371.4.691.641.4.761-.909,1.419-1.89,2.1-2.85a8.9,8.9,0,0,0,2.834,1.3A.531.531,0,0,0,61.285,162.608Z" fill="#38a1ff"></path><path d="M163.082,24.938c-.533,1.505.988,2.989,2.349,3.229a3.013,3.013,0,0,0,3.39-2.348,2.907,2.907,0,0,0-1.869-3.524c-1.2-.4-3.283-.133-3.469,1.388a.383.383,0,0,0,.48.374c.774-.24,1.334-.747,2.216-.561,2.063.452,1.356,3.442-.374,3.337-1.121-.054-1.735-.988-2.109-1.922A.325.325,0,0,0,163.082,24.938Z" fill="#191919"></path><path d="M154.835,33.1a69.549,69.549,0,0,0-6.326,9.342,118.073,118.073,0,0,1,12.678-.454C159.372,39.431,156.427,35.324,154.835,33.1Z" fill="#191919"></path><path d="M91.311,8.016c1.709,1.762,3.9,2.722,5.6,4A69.073,69.073,0,0,1,97.771,5C96.2,5.774,92.931,7.273,91.311,8.016Z" fill="#38a1ff"></path><path d="M24.8,141.068c.534-2.4.107-4.751.267-6.886-2.055,1.148-4.164,2.189-6.326,3.149A53.135,53.135,0,0,1,24.8,141.068Z" fill="#38a1ff"></path><path d="M171.2,140.961c-.834-.87-1.5-.894-4.453-3.044,1.357-1.181,3.466-2.542,3.652-4.135a.421.421,0,0,0-.533-.4c-1.025.171-1.035.738-4.241,3.684a43.866,43.866,0,0,1-3.846-3.417c-.348-.347-.833.164-.534.534a31.939,31.939,0,0,0,3.478,3.7c-1.066.953-2.152,1.89-3.238,2.84-.347.294.16.934.587.667a36.713,36.713,0,0,0,3.669-2.627c1.438,1.206,3.225,2.808,4.9,3.188A.59.59,0,0,0,171.2,140.961Z" fill="#191919"></path><path d="M178.723,93.506c-10.036,1.494-21.7.827-30.32-2.776-1.869,11.37-3.523,14.653-6.193,25.73,12.625,5.017,30.267,4.857,36.113-1.228,3.363-8.728,6.672-18.71,10.035-27.411C188.358,87.821,186.223,92.385,178.723,93.506ZM153.607,108.96c-1.494.08-3.71.24-4.324-.294-1.014-.908,3.47-12.518,3.47-12.518a21.769,21.769,0,0,1,4.778.374C159.079,96.842,155.1,108.853,153.607,108.96Z" fill="#38a1ff"></path><path d="M97.45,149.476s-1.148,7.553.107,21.459l.454,1.868c12.091,5.739,30.507,7.714,40.116,1.281,0,0,6.032-15.133,6.992-25.889C143.6,149.5,133.563,163.035,97.45,149.476Zm38.782,23.914c-1.522,1.121-2.189,1.735-2.8,1.2-1.014-.907,4.431-18.523,4.431-18.523,1.628-.987,3.2-2.135,3.5-1.708C142.291,155.641,137.433,172.51,136.232,173.39Z" fill="#38a1ff"></path><path d="M128.118,67.4a21.885,21.885,0,0,0-11.4-8.167s-2.082,3.31-3.684,4.057a5.089,5.089,0,0,1-5.017-.267c-1.415-1.014-.988-4.751-.988-4.751-6.3-1.948-13.986.027-13.986.027A22.9,22.9,0,0,0,89.2,64.813a18.535,18.535,0,0,0-1.121,7.42,34.367,34.367,0,0,0,3.39.641A7.857,7.857,0,0,1,96.7,68.363a.405.405,0,0,1,.4.668c-1.736,1.736-4.241,2.671-5.044,6.085a10.819,10.819,0,0,0-.134,1.6c.481.267,17.616,2.643,19.405,2.91l-7.314,28.025a23.064,23.064,0,0,0,7.393,2.936,3.808,3.808,0,0,0,1.815.053c.881-.267,1.842-.934,1.949-1.842a64.969,64.969,0,0,1,7.367-24.688c.4,1.121,2.081,4.4,2.482,5.525,4.884-1.815,7.339-3.39,9.715-7.554C131.854,76.878,131.339,71.519,128.118,67.4Z" fill="#191919"></path><path d="M60.618,71.139c-13.773-4.511-27.358-11.29-36.94-22.206a13.9,13.9,0,0,1-3.2-13.266c-9.342,14-10.85,29.227-6.513,41.317,6.539,15.187,55.65,34.4,87.038,32.8l8.061-28.879C94.7,78.746,74.39,75.65,60.618,71.139ZM16.631,73.915c-2.522-8.647-1.8-20.321,2.509-27.838-.026,3.389,2.776,6.459,2.776,6.459a67,67,0,0,0-.907,22.393c.16,1.148,1.281,5.979,1.281,5.979S17.486,76.851,16.631,73.915ZM44.6,86.833c3.1.934,6,2.589,9.048,3.657,8.056,2.736,6.987,2.163,7.9,2.642a.5.5,0,0,1-.106.907c-3.08.449-12.747-2.7-17.136-6.645C44.069,87.153,44.309,86.726,44.6,86.833ZM61.5,98.737c-1.361.4-3.042-.32-4.377-.667-5-1.289-9.923-2.809-13.8-6.246a.328.328,0,0,1,.32-.534c4.6,1.74,8.532,3.718,14.173,5.152,1.281.347,2.929.378,3.95,1.281A.615.615,0,0,1,61.5,98.737Zm.881-9.689c-2.058-.228-17.735-5.129-17.616-8.194a59.461,59.461,0,0,1,2.216-11.076,50.763,50.763,0,0,0,6.779,3.39c4.191,1.681,10.409,3.336,11.85,3.763C65.4,77.785,62.619,87.821,62.379,89.048ZM90.7,96.308a21.1,21.1,0,0,1-5.5-.106,51.181,51.181,0,0,1-11.556-2.563,22.141,22.141,0,0,1-6.086-2.829c-.294-.214-.134-.614.213-.534,3.512.571,7.545,2.884,17.857,4.03,1.681.187,3.416.134,5.071.427A.824.824,0,0,1,90.7,96.308Zm2.829-5.632a18.431,18.431,0,0,1-5.552-.053c-6.121-.612-14.341-2.015-19.537-5.338-.267-.16-.08-.587.213-.454,7.76,2.13,11.478,3.1,19.511,3.924a24.094,24.094,0,0,1,5.365.747A.615.615,0,0,1,93.527,90.676Zm1.788-5.524c-1.655.934-4.324.08-6.086-.214A82.618,82.618,0,0,1,76.018,81.6a29.6,29.6,0,0,1-6.192-2.643c-.267-.16-.08-.534.24-.48,4.009.668,6.88,2.416,19.724,4.4,1.735.267,4.271.08,5.658,1.254A.645.645,0,0,1,95.315,85.152Z" fill="#38a1ff"></path></svg>