<svg viewBox="0 0 200 200" xmlns="http://www.w3.org/2000/svg"><path d="M12.515,20.973c-.236-.473-.552-.868-.789-1.341s-.394-.947-.631-1.421a.393.393,0,0,0-.71.158,5.072,5.072,0,0,0,1.42,3.077C12.121,21.92,12.831,21.367,12.515,20.973Z" fill="#191919"></path><path d="M7.466,36.911a8.407,8.407,0,0,0-2.052.158c-.553.07-.553.938,0,.867A10,10,0,0,0,7.545,37.7C8.018,37.621,7.86,36.99,7.466,36.911Z" fill="#191919"></path><path d="M105.381,87.486c-.553-.158-1.105.394-1.263,1.1a1.3,1.3,0,0,0,.71,1.578c.553.158,1.105-.394,1.263-1.1C106.17,88.354,105.933,87.643,105.381,87.486Z" fill="#191919"></path><path d="M95.124,85.908c-.553-.158-1.1.394-1.263,1.1a1.3,1.3,0,0,0,.71,1.578c.552.158,1.112-.393,1.263-1.1A1.252,1.252,0,0,0,95.124,85.908Z" fill="#191919"></path><path d="M106.012,84.487a2.29,2.29,0,0,0-2.446.868c-.232.32,0,.868.394.71a3.242,3.242,0,0,1,2.762.395.436.436,0,0,0,.631-.237A1.723,1.723,0,0,0,106.012,84.487Z" fill="#191919"></path><path d="M94.256,83.541a.4.4,0,0,0,.552.552,1.853,1.853,0,0,1,2.209.394.436.436,0,0,0,.631-.236C98.035,82.833,95.58,81.447,94.256,83.541Z" fill="#191919"></path><path d="M103.724,93.324c-1.421-.079-6,1.42-9.074,1.42a.4.4,0,1,0,0,.789c.474,0,1.026.079,1.5.079,0,.079,2.766,4.76,5.444,4.34,2.845-.446,2.762-3.709,2.762-6C104.355,93.64,104.039,93.4,103.724,93.324Zm-2.762,5.365c-1.736-.072-2.761-1.735-3.55-3.077.552,0,4.26-.789,5.6-.946C103.092,96.4,103.013,98.775,100.962,98.689Z" fill="#191919"></path><path d="M35.633,66.577c-.079-.473-.868-.315-.789.237,3.077,14.754,12.387,27.378,24.38,36.215a57.308,57.308,0,0,0,9.626,5.917,9.555,9.555,0,0,1,.789-1.1A83.035,83.035,0,0,1,52.991,96.086,59.183,59.183,0,0,1,35.633,66.577Z" fill="#191919"></path><path d="M57.8,126.857a51.112,51.112,0,0,1-15.7-15.544C34.409,99.526,30.255,87.244,26.954,73.6a.412.412,0,0,0-.789.237,129.968,129.968,0,0,0,8.284,26.352c5.142,11.256,12.08,21.659,22.724,27.773C57.883,128.277,58.514,127.251,57.8,126.857Z" fill="#191919"></path><path d="M172.367,73.915c.17-.628-.711-.789-.947-.237-2.823,7.716-6.571,15.6-12.309,21.777.553-.079,1.184-.158,1.815-.237A59.708,59.708,0,0,0,172.367,73.915Z" fill="#191919"></path><path d="M154.693,99.794a51.173,51.173,0,0,1-17.831,9.863.574.574,0,0,0,.315,1.1,51.057,51.057,0,0,0,19.094-10.73C155.719,99.952,155.166,99.873,154.693,99.794Z" fill="#191919"></path><path d="M177.811,82.752c-3.339,18.855-8.255,32.682-24.144,43.4-4.663,3.144-9.847,5.48-14.754,8.126-.56.3-.156,1.346.473,1.1a65.416,65.416,0,0,0,23.67-15.307c9.945-10.394,13.206-23.186,15.623-37.083C178.679,82.515,177.894,82.279,177.811,82.752Z" fill="#191919"></path><path d="M94.808,104.686a11.874,11.874,0,0,0-.4,4.339c0,.553.789.553.868,0,.079-1.42.474-2.84.474-4.26A.486.486,0,0,0,94.808,104.686Z" fill="#191919"></path><path d="M35.791,65.788c1.736-2.761,2.356-7.331.473-10.178-1.666-2.519-4.971-3.077-7.811-3.314-.473-.079-.63.783-.079.868,2.372.367,5.433.875,6.864,3.077,1.8,2.771.711,6.391-.315,9.153C34.765,65.946,35.554,66.262,35.791,65.788Z" fill="#191919"></path><path d="M25.3,72.337a11.453,11.453,0,0,1-4.024-3.472c-1.179-1.423-2.595-3.075-2.13-5.128.8-3.548,4.734-5.76,7.416-7.654a.583.583,0,0,0-.552-1.025,21.151,21.151,0,0,0-5.523,4.181C19.159,60.6,17.877,62.316,17.8,64.21c-.083,2.051,1.12,3.7,2.367,5.129,1.358,1.563,2.84,3.156,4.891,3.787C25.613,73.363,25.77,72.574,25.3,72.337Z" fill="#191919"></path><path d="M18.038,57.188c1.342-4.1,4.873-6.5,8.916-7.18.55-.093.394-.952-.158-.947-4.5.04-8.442,3.709-9.7,7.89A.492.492,0,0,0,18.038,57.188Z" fill="#191919"></path><path d="M175.365,60.186c.631-.236.391-1.278-.316-1.1-3.253.8-6.549,3-7.416,6.469-.711,2.841.789,6.076,3.787,6.628a.488.488,0,0,0,.236-.947c-2.763-.7-3.741-3.881-2.6-6.312C170.28,62.3,172.84,61.133,175.365,60.186Z" fill="#191919"></path><path d="M178.679,63.5c-.713-.144-.947.868-.316,1.026a14.357,14.357,0,0,1,4.655,2.051,5,5,0,0,1,1.657,4.813c-.625,3.552-3.763,6.042-5.523,9-.326.546.473.946.789.473,2.367-3.077,5.957-6.39,5.917-10.573C185.821,66.262,182.137,64.2,178.679,63.5Z" fill="#191919"></path><path d="M176.627,57.109a.434.434,0,0,0,0,.868,8.654,8.654,0,0,1,8.679,6.707.575.575,0,0,0,1.1-.316A9.024,9.024,0,0,0,176.627,57.109Z" fill="#191919"></path><path d="M175.128,50.876c-.009.552.8.553.868,0,.18-1.418.552-6.785.947-7.969h.868c-.079,1.263-.079,7.338,0,9.547a7.847,7.847,0,0,0-2.367.079c-.553.079-.395.947.157.947,4.494,0,6.412,1.346,9.074,4.813.308.4,1.178.16.947-.395a9.461,9.461,0,0,0-6.47-5.128c0-1.657-.158-8.916-.395-10.415,0-.158-2.051-.71-2.6-.237C175.68,42.434,175.168,48.587,175.128,50.876Z" fill="#191919"></path><path d="M19.38,34.859c-2.841.237-5.607.678-8.364,1.1-.474.073-.473.789,0,.71,2.841-.316,5.681-.394,8.521-.868C20.011,35.648,19.932,34.78,19.38,34.859Z" fill="#191919"></path><path d="M37.29,32.729c-3.866.316-7.812.862-11.677,1.5-.474.078-.395.868.079.868,3.866-.316,7.811-.71,11.677-1.341C37.921,33.6,37.842,32.65,37.29,32.729Z" fill="#191919"></path><path d="M23.64,32.335a101.826,101.826,0,0,0,8.206-8.758c.318-.393-.237-.947-.553-.553-2.761,2.841-5.523,5.839-8.2,8.758C22.614,32.1,23.24,32.724,23.64,32.335Z" fill="#191919"></path><path d="M18.748,32.256a.46.46,0,0,0,.789-.474c-1.561-2.692-3.235-5.286-4.97-7.89-.316-.394-.947-.079-.71.395C15.435,26.969,17.064,29.67,18.748,32.256Z" fill="#191919"></path><path d="M14.093,30.441c-2.837-.8-5.759-1.578-8.6-2.525-.473-.158-.634.559-.237.71a71.964,71.964,0,0,0,8.6,2.683C14.409,31.388,14.646,30.6,14.093,30.441Z" fill="#191919"></path><path d="M21.668,26.575c.157-2.919.355-5.838.315-8.758a.434.434,0,0,0-.868,0q-.354,4.379-.473,8.758C20.721,27.206,21.668,27.206,21.668,26.575Z" fill="#191919"></path><path d="M33.029,29.257a53.215,53.215,0,0,0,8.758-5.207c.474-.394.073-1.194-.473-.868-2.953,1.76-5.76,3.551-8.758,5.286C32.082,28.705,32.483,29.507,33.029,29.257Z" fill="#191919"></path><path d="M33.66,21.289c.553-.632,1.119-1.251,1.657-1.894.325-.387-.228-.94-.552-.552-.538.643-1.105,1.262-1.657,1.893A.392.392,0,1,0,33.66,21.289Z" fill="#191919"></path><path d="M170.315,42.67a11.953,11.953,0,0,0,4.1-.71c.477-.23.158-.868-.237-.868a40.719,40.719,0,0,0-4.339.474,40.319,40.319,0,0,1-4.419.237c-.552,0-.552.789,0,.867A38.576,38.576,0,0,0,170.315,42.67Z" fill="#191919"></path><path d="M192.092,44.485c-1.894-.71-3.788-1.262-5.681-1.815a58.136,58.136,0,0,0-5.76-1.656c-.472-.087-.789.552-.316.789,1.815.789,3.7,1.364,5.523,1.972,1.965.656,3.942,1.358,5.918,1.815A.577.577,0,0,0,192.092,44.485Z" fill="#191919"></path><path d="M159.664,44.012a12.83,12.83,0,0,0,2.446-.237c.552-.079.631-.947,0-.947-.868.079-1.736.158-2.525.237C159.111,43.223,159.19,44.012,159.664,44.012Z" fill="#191919"></path><path d="M160.137,32.808c3.8,1.306,7.5,2.993,11.2,4.576.552.236,1.11-.563.552-.868a60.469,60.469,0,0,0-11.519-4.5C159.824,31.852,159.665,32.646,160.137,32.808Z" fill="#191919"></path><path d="M175.68,37.542a.537.537,0,0,0,1.026-.316,74.686,74.686,0,0,0-3.393-10.414c-.157-.553-1.039-.312-.868.236C173.541,30.548,174.4,34.077,175.68,37.542Z" fill="#191919"></path><path d="M180.257,38.725a60.453,60.453,0,0,1,8.757-5.6c.552-.318.079-1.107-.473-.868a30.64,30.64,0,0,0-8.758,5.838C179.389,38.41,179.854,39.031,180.257,38.725Z" fill="#191919"></path><path d="M171.893,24.208a24.582,24.582,0,0,1-.789-3.393c-.076-.553-.947-.552-.868,0a12.482,12.482,0,0,0,.789,3.787C171.262,25.076,172.051,24.76,171.893,24.208Z" fill="#191919"></path><path d="M194.3,28.626a9.992,9.992,0,0,0-1.578,1.026c-.559.385-1.026.71-1.578,1.105a.427.427,0,0,0,.473.71c.552-.316,1.105-.71,1.657-1.105a7.111,7.111,0,0,0,1.578-1.1C195.248,28.942,194.774,28.39,194.3,28.626Z" fill="#191919"></path><path d="M179.941,33.6a82.546,82.546,0,0,1,4.892-9.626c.324-.547-.474-.947-.789-.473a42.542,42.542,0,0,0-4.892,9.862C178.915,33.913,179.783,34.149,179.941,33.6Z" fill="#191919"></path><path d="M98.832,85.276c-.552,1.105-2.774,4.975-2.525,5.76a.824.824,0,0,0,.552.474,6.475,6.475,0,0,0,2.367-.553c.71-.158.393-1.35-.315-1.183-.317.074-.71.236-1.105.315a40.225,40.225,0,0,0,1.815-4.5C99.7,85.119,99.069,84.8,98.832,85.276Z" fill="#191919"></path><path d="M99.305,104.055c-2.367-.868-4.893-1.022-7.259-1.894-4.263-1.571,1.973-19.33,2.6-21.934.079-.474-.631-.789-.789-.316a57.591,57.591,0,0,0-2.682,8.6c-.761,3.006-1.5,6-1.973,9.074-.316,2.051-.318,4.265,1.736,5.365a20,20,0,0,0,3.866,1.184,27.929,27.929,0,0,0,4.418.946C99.78,105.149,99.858,104.212,99.305,104.055Z" fill="#191919"></path><path d="M115.322,90.878a20.532,20.532,0,0,0,.394-7.022,6.4,6.4,0,0,0-2.84-4.5,16.344,16.344,0,0,1-.158,2.761c-.082.473-.789.553-.789,0a35.818,35.818,0,0,0-.473-4.181c-1.3-5.048-6.286-12.906-11.362-13.887-3.479-.672-6.334,2.2-7.416,5.208A9.1,9.1,0,0,0,94.1,78.1c2.849,3.306,7.732,3.629,11.756,2.682a14.711,14.711,0,0,0,3.945,5.444,35.792,35.792,0,0,1-.631,4.971c-.237.947-1.1,3.549-.237,4.339.949.866,2.367-1.5,3.314-3.313,4.024-2.683,3.945,3.55.631,4.1-.158,0-3.281,9.3-3.787,11.125-.261.941,1.341.947,1.893.947s.553-.71.079-.868a4.423,4.423,0,0,0-.947-.315c.789-3.472,2.289-6.549,3.472-9.863,2.209-.868,4.261-3.629,2.367-5.917A2.126,2.126,0,0,0,115.322,90.878ZM104.986,73.205c-1.5-1.973-3.3-8.346-6.785-6.233-.394.238-1.019-.31-.71-.71,3.234-4.2,8.536,3.785,8.836,6.627C106.411,73.678,105.3,73.757,104.986,73.205Z" fill="#191919"></path><path d="M72.953,85.987a7.5,7.5,0,0,1-5.366-4.656A.51.51,0,0,0,66.8,81.1a8.288,8.288,0,0,0-2.288,3.077.346.346,0,0,0,0,.394c1.216,2.314,3.788,6,6.865,5.287,0,0,2.446-3.077,2.524-3.077C74.294,86.144,73.505,85.592,72.953,85.987Z" fill="#38a1ff"></path><path d="M138.6,67.524c-.552-.079-.236,4.892-1.735,6.391a.376.376,0,0,0,.157.631,7.264,7.264,0,0,0,3,.631.315.315,0,0,0,.315-.158c1.483-1.946,3.069-5.136,1.342-6.864C141.6,68.155,138.676,67.524,138.6,67.524Z" fill="#38a1ff"></path><path d="M132.285,67.287c1.323,1.323,7.35-6.821,8.127-9.152a2.955,2.955,0,0,0-.079-.868c-.315-.868-4.181-3.629-4.26-3.629a.739.739,0,0,0-.868.631,16.716,16.716,0,0,1-2.131,4.1c-1.1,1.344-4.5,3.708-4.339,4.181A25.556,25.556,0,0,0,132.285,67.287Z" fill="#38a1ff"></path><path d="M108.142,64.841a.6.6,0,0,0,.71-.079c.158,0,1.337-1.826,2.209-2.13a5.991,5.991,0,0,1,2.762.237c.394.158.868,0,.868-.474a18,18,0,0,0-.789-3.787c-2.6-2.209-6.549-.71-7.811,2.209C105.7,61.606,107.59,64.526,108.142,64.841Z" fill="#38a1ff"></path><path d="M56.936,46.931c2.13,3.156,6.628,4.892,10.178,3.156a13.291,13.291,0,0,0,1.1-2.84.485.485,0,0,0-.079-.474c-.079-.158-.237-.394-.474-.394a16.805,16.805,0,0,1-4.5-.789A14.757,14.757,0,0,1,59.224,43.3c-.237-.158-1.266.865-1.5,1.183A7.025,7.025,0,0,0,56.7,46.379.614.614,0,0,0,56.936,46.931Z" fill="#38a1ff"></path><path d="M151.064,142.558a7.76,7.76,0,0,0-4.261-.631c-1.824.52-1.045,1.265-.552,4.339.483,3.015-.36,5.893-1.263,8.6-.473,1.184-.945,1.813.4,2.525a13,13,0,0,0,3.945,1.341c.947.158,2.149.643,2.84-.473,2.515-4.061,1.894-11.835,1.5-13.571C153.115,143.031,152.089,143.11,151.064,142.558Z" fill="#38a1ff"></path><path d="M177.574,65.394c-.158,1.1-.119,5.683-.158,6s-.409,1.661-.552,1.026c-.088-.393,0-6.312,0-7.654,0-.552-.789-.552-.868,0-.079,2.052-.079,4.1-.079,6.155,0,1.025-.473,2.761,1.026,2.761,1.578,0,1.514-1.261,1.578-2.446a26.587,26.587,0,0,0,0-5.759C178.363,65,177.653,65,177.574,65.394Z" fill="#191919"></path><path d="M18.433,50.008c3.882-2.372,5.255-2.347,9.389-2.446a.491.491,0,0,0,.158-.947,9.076,9.076,0,0,0-3.866-.078c-.316-1.5-1.105-5.523-1.342-8.206a5.969,5.969,0,0,0,1.184.079c.079,1.1.7,5.918.868,7.1.076.552,1.025.394.946-.158-.078-1.341-.473-6.233-.71-7.259-.079-1.025-3.307-.946-3.392-.158-.146,1.343.868,7.338,1.183,8.758a12.365,12.365,0,0,0-4.97,2.525A.489.489,0,0,0,18.433,50.008Z" fill="#191919"></path><path d="M28.059,67.84c1.344-.385.935-1.5.71-2.6-.417-2.047-.71-4.182-1.1-6.233-.079-.631-1.105-.4-.947.236.158,1.263,1.42,7.18.868,7.417-.315.158-1.684-5.6-1.893-6.864-.091-.551-.873-.315-.789.236.3,1.975.621,3.948,1.1,5.918C26.317,67.21,26.641,68.245,28.059,67.84Z" fill="#191919"></path><path d="M136.625,90.563c.079-.316,0-.635-.4-.71-1.733-.331-3.827-1.5-4.1-3.393-.07-.475-.316-.868-.789-.631A5.411,5.411,0,0,0,130,87.17a6.023,6.023,0,0,0-.947,1.5c-.236.552.553,3.077,1.5,3.945s3.392,1.5,3.866,1.1A12.926,12.926,0,0,0,136.625,90.563Zm-2.446,2.209A4.353,4.353,0,0,1,131.5,91.9a4.255,4.255,0,0,1-1.42-2.919,13.268,13.268,0,0,0,.868-1.105l.474-.473a5.478,5.478,0,0,0,3.945,3.471Z" fill="#191919"></path><path d="M79.9,67.84a.486.486,0,0,0-.868,0A12.465,12.465,0,0,1,77.055,70.6a8.984,8.984,0,0,1-3.077,1.815.461.461,0,0,0-.157.789c.157.394,1.183,2.051,1.5,2.525a.636.636,0,0,0,.71.236c2.525-.552,5.444-2.682,5.759-5.444a.591.591,0,0,0,0-.71C81.079,69.181,80.527,68.471,79.9,67.84Zm-.947,5.365a7.028,7.028,0,0,1-2.919,1.814c-.639-1.064-.327-.49-1.263-1.893a8.26,8.26,0,0,0,4.813-4.1,15.151,15.151,0,0,0,1.026,1.341A7.914,7.914,0,0,1,78.949,73.205Z" fill="#191919"></path><path d="M35.87,124.49a.5.5,0,0,0-.553-.631c-.394-.079-2.367-.237-2.919-.237a.591.591,0,0,0-.552.473c-1.026,2.367-.868,6,1.183,7.89a.625.625,0,0,0,.631.395,15.712,15.712,0,0,0,2.683-.395.507.507,0,0,0,.473-.71A10.937,10.937,0,0,1,35.87,124.49ZM33.739,131.2a10.518,10.518,0,0,1-1.341-3,7.165,7.165,0,0,1,.158-3.393c.038,0,.947.079,2.209.079a8.14,8.14,0,0,0,.631,6.233C34.844,131.117,34.292,131.2,33.739,131.2Z" fill="#191919"></path><path d="M117.058,27.206c-.631.239-.71,2.84-.316,3.945.265,1.326.983-.306,3.156-.473a4.779,4.779,0,0,1,2.762.868.354.354,0,0,0,.631-.158,32.209,32.209,0,0,1,.947-3.235C124.474,27.837,122.429,25.172,117.058,27.206Zm5.759,3.472a5.041,5.041,0,0,0-5.444-.158,5.827,5.827,0,0,1,.158-2.6c1.573-.262,3.6-1.7,5.918.237A16.849,16.849,0,0,0,122.817,30.678Z" fill="#191919"></path><path d="M93.624,44.406c.868-1.657-5.54-3.376-7.337-5.286a12.847,12.847,0,0,1-3.63-7.259.693.693,0,0,0-.946-.789,43.071,43.071,0,0,0-6.628,4.182c-2.215,1.49,3.945,12.939,10.178,15.622.079.237,1.5,1.026,1.736.789A23.242,23.242,0,0,0,93.624,44.406Zm-6.469,5.287c-5.681-3.156-9.389-6.865-10.81-13.571,1.894-1.1,3-2.446,4.971-3.393.316,2.84,2.277,5.059,4.182,7.259,1.647,1.9,3.787,3,6.627,4.418A39.44,39.44,0,0,1,87.155,49.693Z" fill="#191919"></path><path d="M134.5,108.315c-9.626,3.077-22.329-.631-22.329-.631S108.456,117,99.7,115.022c-8.681-1.964-6.865-7.338-6.865-7.338-13.018,2.919-21.855-1.657-21.855-1.657-5.207,5.681-11.756,28.01-11.756,28.01a106.982,106.982,0,0,0,14.36,7.811L72.4,178.221c25.88,8.126,54.126,2.445,54.126,2.445V160.784a40.018,40.018,0,0,0-4.892,7.258l-5.76-8.521a17.11,17.11,0,0,1,10.652-9.862v-4.813l9.389-3.787C139.86,131.67,134.5,108.315,134.5,108.315ZM75.714,133.958,75,129.776s3.708,1.183,6.391-3.077l2.051,3.55C83.367,130.249,80.133,135.22,75.714,133.958Zm12.624-22.092a26.635,26.635,0,0,1-16.569.158.451.451,0,0,1,.237-.868,32.114,32.114,0,0,0,15.938-.868C88.969,109.893,89.372,111.492,88.338,111.866Z" fill="#38a1ff"></path><path d="M83.841,130.092a7.436,7.436,0,0,0-2.052-3.788.468.468,0,0,0-.867-.157,8.329,8.329,0,0,1-2.367,2.524A5.542,5.542,0,0,1,75,129.3c-.237-.158-.71.157-.631.473.237,1.341.631,2.683.789,4.1a.545.545,0,0,0,.789.394c2.84,1.1,6.233-1.1,7.732-3.471.079-.079.079-.158.079-.316A.59.59,0,0,0,83.841,130.092Zm-3.708,2.445a4.771,4.771,0,0,1-4.024.789,19.325,19.325,0,0,0-.632-3.077c2.21.237,5.05-.868,6-2.919a7.473,7.473,0,0,1,1.262,2.919A29.974,29.974,0,0,1,80.133,132.537Z" fill="#191919"></path><path d="M48.573,113.128a17.264,17.264,0,0,0-3.235-3.629.712.712,0,0,0-.4-.079,1.01,1.01,0,0,0-.473.079c-3.07,1.515-5.681,3.787-9.31,2.446-.316-.632-1.184-.079-1.026.473.315,1.894,1.026,3.787,1.5,5.681.079.237.473.552.552.631,4.5,1.578,9.389-1.262,12.388-4.576A.734.734,0,0,0,48.573,113.128Z" fill="#38a1ff"></path><path d="M132.917,156.286c-1.07-3.03-5.2-7.524-5.76-7.337A15.467,15.467,0,0,0,115.4,159.442s-.079.316,0,.395c1.814,3.077,3.289,6.26,6.154,8.837,1.33,1.2,4.375-8.392,11.125-11.046A.794.794,0,0,0,132.917,156.286Zm-11.046,10.731a86.605,86.605,0,0,1-5.6-7.417,16.462,16.462,0,0,1,11.125-9.152,24.052,24.052,0,0,1,2.367,3.077c.623.952,1.025,2.051,1.656,3C126.994,158.2,123.092,163.08,121.871,167.017Z" fill="#191919"></path><path d="M161.478,94.981a16.207,16.207,0,0,1-1.972.316,13.312,13.312,0,0,1-6.312-.71.714.714,0,0,0-.789.236,23.567,23.567,0,0,0-1.973,2.92c-.471.869,2.842,1.963,4.34,2.209a10.322,10.322,0,0,0,6.154-.553c.158,0,.316-.157.4-.394.236-1.026.473-1.973.71-3C162.267,95.3,162.031,94.9,161.478,94.981Z" fill="#38a1ff"></path><path d="M69.639,93.245c.473-.236,1.893-.71,2.051-.789s.868-.079,1.578,1.184a11.084,11.084,0,0,1,.868,4.024c0,.315-1.262.947-1.657,1.1s-1.893.868-1.578-.079a4.6,4.6,0,0,0-.394-3.156C70.112,94.981,68.692,93.64,69.639,93.245Z" fill="#38a1ff"></path></svg>